%TF.GenerationSoftware,KiCad,Pcbnew,8.0.1*%
%TF.CreationDate,2024-04-15T20:54:24+02:00*%
%TF.ProjectId,Audio_shield,41756469-6f5f-4736-9869-656c642e6b69,rev?*%
%TF.SameCoordinates,Original*%
%TF.FileFunction,Copper,L2,Bot*%
%TF.FilePolarity,Positive*%
%FSLAX46Y46*%
G04 Gerber Fmt 4.6, Leading zero omitted, Abs format (unit mm)*
G04 Created by KiCad (PCBNEW 8.0.1) date 2024-04-15 20:54:24*
%MOMM*%
%LPD*%
G01*
G04 APERTURE LIST*
%TA.AperFunction,ComponentPad*%
%ADD10C,2.000000*%
%TD*%
%TA.AperFunction,ComponentPad*%
%ADD11R,1.700000X1.700000*%
%TD*%
%TA.AperFunction,ComponentPad*%
%ADD12O,1.700000X1.700000*%
%TD*%
%TA.AperFunction,ComponentPad*%
%ADD13R,1.980000X3.960000*%
%TD*%
%TA.AperFunction,ComponentPad*%
%ADD14O,1.980000X3.960000*%
%TD*%
%TA.AperFunction,ComponentPad*%
%ADD15C,2.950000*%
%TD*%
%TA.AperFunction,ViaPad*%
%ADD16C,0.600000*%
%TD*%
%TA.AperFunction,Conductor*%
%ADD17C,0.400000*%
%TD*%
%TA.AperFunction,Conductor*%
%ADD18C,1.000000*%
%TD*%
G04 APERTURE END LIST*
D10*
%TO.P,SW2,1,A*%
%TO.N,Net-(D3-A)*%
X170850000Y-97250000D03*
X170850000Y-103750000D03*
%TO.P,SW2,2,B*%
%TO.N,B2*%
X166350000Y-97250000D03*
X166350000Y-103750000D03*
%TD*%
%TO.P,SW1,1,A*%
%TO.N,Net-(D2-A)*%
X170850000Y-107050000D03*
X170850000Y-113550000D03*
%TO.P,SW1,2,B*%
%TO.N,B1*%
X166350000Y-107050000D03*
X166350000Y-113550000D03*
%TD*%
%TO.P,SW4,1,A*%
%TO.N,Net-(D5-A)*%
X170850000Y-77600000D03*
X170850000Y-84100000D03*
%TO.P,SW4,2,B*%
%TO.N,B4*%
X166350000Y-77600000D03*
X166350000Y-84100000D03*
%TD*%
%TO.P,SW5,1,A*%
%TO.N,Net-(D6-A)*%
X157950000Y-107050000D03*
X157950000Y-113550000D03*
%TO.P,SW5,2,B*%
%TO.N,B5*%
X153450000Y-107050000D03*
X153450000Y-113550000D03*
%TD*%
D11*
%TO.P,J2,1,Pin_1*%
%TO.N,B1*%
X194730000Y-110660000D03*
D12*
%TO.P,J2,2,Pin_2*%
%TO.N,B2*%
X194730000Y-108120000D03*
%TO.P,J2,3,Pin_3*%
%TO.N,B3*%
X194730000Y-105580000D03*
%TO.P,J2,4,Pin_4*%
%TO.N,B4*%
X194730000Y-103040000D03*
%TO.P,J2,5,Pin_5*%
%TO.N,B5*%
X194730000Y-100500000D03*
%TO.P,J2,6,Pin_6*%
%TO.N,B6*%
X194730000Y-97960000D03*
%TO.P,J2,7,Pin_7*%
%TO.N,AUDIO_PWM*%
X194730000Y-95420000D03*
%TO.P,J2,8,Pin_8*%
%TO.N,B7*%
X194730000Y-92880000D03*
%TD*%
D10*
%TO.P,SW7,1,A*%
%TO.N,Net-(D8-A)*%
X157950000Y-87400000D03*
X157950000Y-93900000D03*
%TO.P,SW7,2,B*%
%TO.N,B7*%
X153450000Y-87400000D03*
X153450000Y-93900000D03*
%TD*%
%TO.P,SW6,1,A*%
%TO.N,Net-(D7-A)*%
X157950000Y-97250000D03*
X157950000Y-103750000D03*
%TO.P,SW6,2,B*%
%TO.N,B6*%
X153450000Y-97250000D03*
X153450000Y-103750000D03*
%TD*%
%TO.P,SW3,1,A*%
%TO.N,Net-(D4-A)*%
X170850000Y-87400000D03*
X170850000Y-93900000D03*
%TO.P,SW3,2,B*%
%TO.N,B3*%
X166350000Y-87400000D03*
X166350000Y-93900000D03*
%TD*%
D11*
%TO.P,J1,1,Pin_1*%
%TO.N,B8*%
X194730000Y-88820000D03*
D12*
%TO.P,J1,2,Pin_2*%
%TO.N,unconnected-(J1-Pin_2-Pad2)*%
X194730000Y-86280000D03*
%TO.P,J1,3,Pin_3*%
%TO.N,unconnected-(J1-Pin_3-Pad3)*%
X194730000Y-83740000D03*
%TO.P,J1,4,Pin_4*%
%TO.N,unconnected-(J1-Pin_4-Pad4)*%
X194730000Y-81200000D03*
%TO.P,J1,5,Pin_5*%
%TO.N,unconnected-(J1-Pin_5-Pad5)*%
X194730000Y-78660000D03*
%TO.P,J1,6,Pin_6*%
%TO.N,unconnected-(J1-Pin_6-Pad6)*%
X194730000Y-76120000D03*
%TO.P,J1,7,Pin_7*%
%TO.N,GND*%
X194730000Y-73580000D03*
%TO.P,J1,8,Pin_8*%
%TO.N,unconnected-(J1-Pin_8-Pad8)*%
X194730000Y-71040000D03*
%TO.P,J1,9,Pin_9*%
%TO.N,unconnected-(J1-Pin_9-Pad9)*%
X194730000Y-68500000D03*
%TO.P,J1,10,Pin_10*%
%TO.N,unconnected-(J1-Pin_10-Pad10)*%
X194730000Y-65960000D03*
%TD*%
D10*
%TO.P,SW8,1,A*%
%TO.N,Net-(D9-A)*%
X157950000Y-77600000D03*
X157950000Y-84100000D03*
%TO.P,SW8,2,B*%
%TO.N,B8*%
X153450000Y-77600000D03*
X153450000Y-84100000D03*
%TD*%
D11*
%TO.P,J3,1,Pin_1*%
%TO.N,unconnected-(J3-Pin_1-Pad1)*%
X146470000Y-110660000D03*
D12*
%TO.P,J3,2,Pin_2*%
%TO.N,unconnected-(J3-Pin_2-Pad2)*%
X146470000Y-108120000D03*
%TO.P,J3,3,Pin_3*%
%TO.N,unconnected-(J3-Pin_3-Pad3)*%
X146470000Y-105580000D03*
%TO.P,J3,4,Pin_4*%
%TO.N,unconnected-(J3-Pin_4-Pad4)*%
X146470000Y-103040000D03*
%TO.P,J3,5,Pin_5*%
%TO.N,unconnected-(J3-Pin_5-Pad5)*%
X146470000Y-100500000D03*
%TO.P,J3,6,Pin_6*%
%TO.N,unconnected-(J3-Pin_6-Pad6)*%
X146470000Y-97960000D03*
%TD*%
D11*
%TO.P,J4,1,Pin_1*%
%TO.N,unconnected-(J4-Pin_1-Pad1)*%
X146470000Y-75100000D03*
D12*
%TO.P,J4,2,Pin_2*%
%TO.N,unconnected-(J4-Pin_2-Pad2)*%
X146470000Y-77640000D03*
%TO.P,J4,3,Pin_3*%
%TO.N,unconnected-(J4-Pin_3-Pad3)*%
X146470000Y-80180000D03*
%TO.P,J4,4,Pin_4*%
%TO.N,unconnected-(J4-Pin_4-Pad4)*%
X146470000Y-82720000D03*
%TO.P,J4,5,Pin_5*%
%TO.N,+5V*%
X146470000Y-85260000D03*
%TO.P,J4,6,Pin_6*%
%TO.N,GND*%
X146470000Y-87800000D03*
%TO.P,J4,7,Pin_7*%
X146470000Y-90340000D03*
%TO.P,J4,8,Pin_8*%
%TO.N,unconnected-(J4-Pin_8-Pad8)*%
X146470000Y-92880000D03*
%TD*%
D13*
%TO.P,LS1,1,1*%
%TO.N,GND*%
X184385000Y-106750000D03*
D14*
%TO.P,LS1,2,2*%
%TO.N,Net-(J6-PadTN)*%
X189385000Y-106750000D03*
%TD*%
D15*
%TO.P,J6,S*%
%TO.N,GND*%
X186949797Y-72700000D03*
%TO.P,J6,T*%
%TO.N,Net-(Q1-E)*%
X181749797Y-83700000D03*
%TO.P,J6,TN*%
%TO.N,Net-(J6-PadTN)*%
X186949797Y-85900000D03*
%TD*%
D16*
%TO.N,GND*%
X173000000Y-96850000D03*
X189600000Y-93000000D03*
X148450000Y-90250000D03*
X162200000Y-88100000D03*
X188000000Y-92200000D03*
X150250000Y-90250000D03*
X164700000Y-93250000D03*
X169000000Y-94550000D03*
X172500000Y-96350000D03*
X163200000Y-89900000D03*
X164800000Y-95550000D03*
%TO.N,/AUDIO_SIGNAL*%
X178800000Y-91750000D03*
X175050000Y-72500000D03*
%TO.N,+5V*%
X169100000Y-73500000D03*
X150800000Y-72000000D03*
X169100000Y-72800000D03*
X150800000Y-71300000D03*
X178900000Y-94550000D03*
X150800000Y-73400000D03*
X150800000Y-72700000D03*
X150800000Y-70600000D03*
%TO.N,B4*%
X177750000Y-99250000D03*
X177750000Y-102800000D03*
%TO.N,Net-(J6-PadTN)*%
X186950000Y-100750000D03*
X186950000Y-98800000D03*
X186950000Y-101400000D03*
X186950000Y-88450000D03*
X186950000Y-100100000D03*
X186950000Y-87800000D03*
X186950000Y-89100000D03*
X186950000Y-99450000D03*
%TD*%
D17*
%TO.N,/AUDIO_SIGNAL*%
X175050000Y-72500000D02*
X176351472Y-72500000D01*
X178800000Y-74948528D02*
X178800000Y-91750000D01*
X176351472Y-72500000D02*
X178800000Y-74948528D01*
X178800000Y-91750000D02*
X178800000Y-91700000D01*
D18*
%TO.N,+5V*%
X150800000Y-72000000D02*
X150800000Y-71300000D01*
X148800000Y-75700000D02*
X150800000Y-73700000D01*
D17*
X178750000Y-94550000D02*
X178900000Y-94550000D01*
D18*
X150800000Y-73400000D02*
X150800000Y-72700000D01*
D17*
X178000000Y-94350000D02*
X178200000Y-94550000D01*
X169100000Y-72800000D02*
X169100000Y-73500000D01*
D18*
X146470000Y-85260000D02*
X147940000Y-85260000D01*
D17*
X178000000Y-76500000D02*
X178000000Y-94350000D01*
X176200000Y-74700000D02*
X178000000Y-76500000D01*
X178200000Y-94550000D02*
X178250000Y-94550000D01*
X169100000Y-73500000D02*
X170300000Y-74700000D01*
D18*
X150800000Y-72700000D02*
X150800000Y-72000000D01*
X150800000Y-73700000D02*
X150800000Y-73400000D01*
X147940000Y-85260000D02*
X148800000Y-84400000D01*
D17*
X178250000Y-94550000D02*
X178750000Y-94550000D01*
D18*
X148800000Y-84400000D02*
X148800000Y-75700000D01*
X150800000Y-71300000D02*
X150800000Y-70600000D01*
D17*
X170300000Y-74700000D02*
X176200000Y-74700000D01*
X178900000Y-94550000D02*
X179050000Y-94550000D01*
%TO.N,B8*%
X193520000Y-88820000D02*
X194730000Y-88820000D01*
X153450000Y-77600000D02*
X160400000Y-70650000D01*
X175350000Y-70650000D02*
X193520000Y-88820000D01*
X160400000Y-70650000D02*
X175350000Y-70650000D01*
%TO.N,B5*%
X155600000Y-103360660D02*
X155600000Y-104900000D01*
X157300000Y-101660660D02*
X155600000Y-103360660D01*
X155600000Y-104900000D02*
X153450000Y-107050000D01*
X184160660Y-101660660D02*
X157300000Y-101660660D01*
X194730000Y-100500000D02*
X191730000Y-103500000D01*
X191730000Y-103500000D02*
X186000000Y-103500000D01*
X186000000Y-103500000D02*
X184160660Y-101660660D01*
%TO.N,B7*%
X153450000Y-93600000D02*
X153450000Y-93900000D01*
X188450000Y-102300000D02*
X186577208Y-102300000D01*
X186577208Y-102300000D02*
X184727208Y-100450000D01*
X154100000Y-87400000D02*
X153450000Y-87400000D01*
X188950000Y-101800000D02*
X188450000Y-102300000D01*
X167150000Y-100450000D02*
X154100000Y-87400000D01*
X188950000Y-98660000D02*
X188950000Y-101800000D01*
X194730000Y-92880000D02*
X188950000Y-98660000D01*
X184727208Y-100450000D02*
X167150000Y-100450000D01*
%TO.N,B4*%
X168450000Y-87520101D02*
X168450000Y-85750000D01*
X177750000Y-96820101D02*
X168450000Y-87520101D01*
X193670000Y-104100000D02*
X179050000Y-104100000D01*
X166350000Y-84879899D02*
X166350000Y-84100000D01*
X177750000Y-99250000D02*
X177750000Y-96820101D01*
X168450000Y-85750000D02*
X166800000Y-84100000D01*
X194730000Y-103040000D02*
X193670000Y-104100000D01*
X179050000Y-104100000D02*
X177750000Y-102800000D01*
X166800000Y-84100000D02*
X166350000Y-84100000D01*
%TO.N,B6*%
X184489340Y-101060660D02*
X157260660Y-101060660D01*
X186328680Y-102900000D02*
X184489340Y-101060660D01*
X194730000Y-97960000D02*
X189790000Y-102900000D01*
X189790000Y-102900000D02*
X186328680Y-102900000D01*
X157260660Y-101060660D02*
X153450000Y-97250000D01*
D18*
%TO.N,Net-(J6-PadTN)*%
X186949797Y-89100203D02*
X186949797Y-98799797D01*
X186950000Y-87800000D02*
X186949797Y-87800203D01*
X186949797Y-98799797D02*
X186950000Y-98800000D01*
X186950000Y-89100000D02*
X186949797Y-89100203D01*
X186950000Y-98800000D02*
X186950000Y-101400000D01*
X186949797Y-87799797D02*
X186950000Y-87800000D01*
X186949797Y-88450203D02*
X186949797Y-89099797D01*
X186950000Y-88450000D02*
X186949797Y-88450203D01*
X186949797Y-89099797D02*
X186950000Y-89100000D01*
X186949797Y-88449797D02*
X186950000Y-88450000D01*
X186949797Y-87800203D02*
X186949797Y-88449797D01*
X186949797Y-85900000D02*
X186949797Y-87799797D01*
%TD*%
%TA.AperFunction,Conductor*%
%TO.N,GND*%
G36*
X146720000Y-89906988D02*
G01*
X146662993Y-89874075D01*
X146535826Y-89840000D01*
X146404174Y-89840000D01*
X146277007Y-89874075D01*
X146220000Y-89906988D01*
X146220000Y-88233012D01*
X146277007Y-88265925D01*
X146404174Y-88300000D01*
X146535826Y-88300000D01*
X146662993Y-88265925D01*
X146720000Y-88233012D01*
X146720000Y-89906988D01*
G37*
%TD.AperFunction*%
%TA.AperFunction,Conductor*%
G36*
X155908363Y-58620185D02*
G01*
X155929005Y-58636819D01*
X157563181Y-60270995D01*
X157596666Y-60332318D01*
X157599500Y-60358676D01*
X157599500Y-66165891D01*
X157633608Y-66293187D01*
X157666554Y-66350250D01*
X157699500Y-66407314D01*
X157792686Y-66500500D01*
X157906814Y-66566392D01*
X158034108Y-66600500D01*
X158034110Y-66600500D01*
X183165890Y-66600500D01*
X183165892Y-66600500D01*
X183293186Y-66566392D01*
X183407314Y-66500500D01*
X183500500Y-66407314D01*
X183566392Y-66293186D01*
X183600500Y-66165892D01*
X183600500Y-65960000D01*
X193620768Y-65960000D01*
X193639654Y-66163816D01*
X193639654Y-66163818D01*
X193639655Y-66163821D01*
X193676463Y-66293187D01*
X193695673Y-66360704D01*
X193786912Y-66543935D01*
X193910269Y-66707287D01*
X194061537Y-66845185D01*
X194061539Y-66845187D01*
X194235569Y-66952942D01*
X194235575Y-66952945D01*
X194276010Y-66968609D01*
X194426444Y-67026888D01*
X194627653Y-67064500D01*
X194627656Y-67064500D01*
X194832344Y-67064500D01*
X194832347Y-67064500D01*
X195033556Y-67026888D01*
X195224427Y-66952944D01*
X195398462Y-66845186D01*
X195549732Y-66707285D01*
X195673088Y-66543935D01*
X195764328Y-66360701D01*
X195820345Y-66163821D01*
X195839232Y-65960000D01*
X195820345Y-65756179D01*
X195764328Y-65559299D01*
X195673088Y-65376065D01*
X195549732Y-65212715D01*
X195549730Y-65212712D01*
X195398462Y-65074814D01*
X195398460Y-65074812D01*
X195224430Y-64967057D01*
X195224424Y-64967054D01*
X195073993Y-64908777D01*
X195033556Y-64893112D01*
X194832347Y-64855500D01*
X194627653Y-64855500D01*
X194426444Y-64893112D01*
X194426441Y-64893112D01*
X194426441Y-64893113D01*
X194235575Y-64967054D01*
X194235569Y-64967057D01*
X194061539Y-65074812D01*
X194061537Y-65074814D01*
X193910269Y-65212712D01*
X193786912Y-65376064D01*
X193695673Y-65559295D01*
X193639654Y-65756183D01*
X193620768Y-65959999D01*
X193620768Y-65960000D01*
X183600500Y-65960000D01*
X183600500Y-62521288D01*
X192879500Y-62521288D01*
X192911161Y-62761785D01*
X192973947Y-62996104D01*
X193066773Y-63220205D01*
X193066776Y-63220212D01*
X193188064Y-63430289D01*
X193188066Y-63430292D01*
X193188067Y-63430293D01*
X193335733Y-63622736D01*
X193335739Y-63622743D01*
X193507256Y-63794260D01*
X193507262Y-63794265D01*
X193699711Y-63941936D01*
X193909788Y-64063224D01*
X194133900Y-64156054D01*
X194368211Y-64218838D01*
X194548586Y-64242584D01*
X194608711Y-64250500D01*
X194608712Y-64250500D01*
X194851289Y-64250500D01*
X194899388Y-64244167D01*
X195091789Y-64218838D01*
X195326100Y-64156054D01*
X195550212Y-64063224D01*
X195760289Y-63941936D01*
X195952738Y-63794265D01*
X196124265Y-63622738D01*
X196271936Y-63430289D01*
X196393224Y-63220212D01*
X196486054Y-62996100D01*
X196548838Y-62761789D01*
X196580500Y-62521288D01*
X196580500Y-62278712D01*
X196548838Y-62038211D01*
X196486054Y-61803900D01*
X196393224Y-61579788D01*
X196271936Y-61369711D01*
X196124265Y-61177262D01*
X196124260Y-61177256D01*
X195952743Y-61005739D01*
X195952736Y-61005733D01*
X195760293Y-60858067D01*
X195760292Y-60858066D01*
X195760289Y-60858064D01*
X195550212Y-60736776D01*
X195550205Y-60736773D01*
X195326104Y-60643947D01*
X195091785Y-60581161D01*
X194851289Y-60549500D01*
X194851288Y-60549500D01*
X194608712Y-60549500D01*
X194608711Y-60549500D01*
X194368214Y-60581161D01*
X194133895Y-60643947D01*
X193909794Y-60736773D01*
X193909785Y-60736777D01*
X193699706Y-60858067D01*
X193507263Y-61005733D01*
X193507256Y-61005739D01*
X193335739Y-61177256D01*
X193335733Y-61177263D01*
X193188067Y-61369706D01*
X193066777Y-61579785D01*
X193066773Y-61579794D01*
X192973947Y-61803895D01*
X192911161Y-62038214D01*
X192879500Y-62278711D01*
X192879500Y-62521288D01*
X183600500Y-62521288D01*
X183600500Y-60358676D01*
X183620185Y-60291637D01*
X183636819Y-60270995D01*
X185270995Y-58636819D01*
X185332318Y-58603334D01*
X185358676Y-58600500D01*
X197475500Y-58600500D01*
X197542539Y-58620185D01*
X197588294Y-58672989D01*
X197599500Y-58724500D01*
X197599500Y-115075500D01*
X197579815Y-115142539D01*
X197527011Y-115188294D01*
X197475500Y-115199500D01*
X180119420Y-115199500D01*
X180052381Y-115179815D01*
X180006626Y-115127011D01*
X179996682Y-115057853D01*
X180025707Y-114994297D01*
X180082427Y-114957845D01*
X180082262Y-114957357D01*
X180084222Y-114956691D01*
X180084485Y-114956523D01*
X180085838Y-114956143D01*
X180086090Y-114956056D01*
X180086100Y-114956054D01*
X180310212Y-114863224D01*
X180520289Y-114741936D01*
X180712738Y-114594265D01*
X180884265Y-114422738D01*
X181031936Y-114230289D01*
X181153224Y-114020212D01*
X181246054Y-113796100D01*
X181308838Y-113561789D01*
X181340500Y-113321288D01*
X181340500Y-113078712D01*
X181308838Y-112838211D01*
X181246054Y-112603900D01*
X181153224Y-112379788D01*
X181031936Y-112169711D01*
X180884265Y-111977262D01*
X180884260Y-111977256D01*
X180712743Y-111805739D01*
X180712736Y-111805733D01*
X180520293Y-111658067D01*
X180520292Y-111658066D01*
X180520289Y-111658064D01*
X180310212Y-111536776D01*
X180306084Y-111535066D01*
X180306077Y-111535063D01*
X193625500Y-111535063D01*
X193640266Y-111609301D01*
X193696515Y-111693484D01*
X193730234Y-111716014D01*
X193780699Y-111749734D01*
X193780702Y-111749734D01*
X193780703Y-111749735D01*
X193805666Y-111754700D01*
X193854933Y-111764500D01*
X195605066Y-111764499D01*
X195679301Y-111749734D01*
X195763484Y-111693484D01*
X195819734Y-111609301D01*
X195834500Y-111535067D01*
X195834499Y-109784934D01*
X195819734Y-109710699D01*
X195801068Y-109682765D01*
X195763484Y-109626515D01*
X195713019Y-109592796D01*
X195679301Y-109570266D01*
X195679299Y-109570265D01*
X195679296Y-109570264D01*
X195605069Y-109555500D01*
X193854936Y-109555500D01*
X193780698Y-109570266D01*
X193696515Y-109626515D01*
X193640266Y-109710699D01*
X193640264Y-109710703D01*
X193625500Y-109784928D01*
X193625500Y-111535063D01*
X180306077Y-111535063D01*
X180086104Y-111443947D01*
X179851785Y-111381161D01*
X179611289Y-111349500D01*
X179611288Y-111349500D01*
X179368712Y-111349500D01*
X179368711Y-111349500D01*
X179128214Y-111381161D01*
X178893895Y-111443947D01*
X178669794Y-111536773D01*
X178669785Y-111536777D01*
X178459706Y-111658067D01*
X178267263Y-111805733D01*
X178267256Y-111805739D01*
X178095739Y-111977256D01*
X178095733Y-111977263D01*
X177948067Y-112169706D01*
X177826777Y-112379785D01*
X177826773Y-112379794D01*
X177733947Y-112603895D01*
X177671161Y-112838214D01*
X177639500Y-113078711D01*
X177639500Y-113321288D01*
X177671161Y-113561785D01*
X177733947Y-113796104D01*
X177810411Y-113980703D01*
X177826776Y-114020212D01*
X177948064Y-114230289D01*
X177948066Y-114230292D01*
X177948067Y-114230293D01*
X178095733Y-114422736D01*
X178095739Y-114422743D01*
X178267256Y-114594260D01*
X178267262Y-114594265D01*
X178459711Y-114741936D01*
X178669788Y-114863224D01*
X178893900Y-114956054D01*
X178893904Y-114956055D01*
X178897738Y-114957357D01*
X178897328Y-114958564D01*
X178952330Y-114992086D01*
X178982862Y-115054932D01*
X178974570Y-115124308D01*
X178930087Y-115178188D01*
X178863536Y-115199465D01*
X178860580Y-115199500D01*
X143724500Y-115199500D01*
X143657461Y-115179815D01*
X143611706Y-115127011D01*
X143600500Y-115075500D01*
X143600500Y-113550000D01*
X152190708Y-113550000D01*
X152209839Y-113768674D01*
X152266653Y-113980703D01*
X152266654Y-113980706D01*
X152266655Y-113980708D01*
X152359419Y-114179642D01*
X152359423Y-114179650D01*
X152485322Y-114359452D01*
X152485327Y-114359458D01*
X152640541Y-114514672D01*
X152640547Y-114514677D01*
X152820349Y-114640576D01*
X152820351Y-114640577D01*
X152820354Y-114640579D01*
X153019297Y-114733347D01*
X153231326Y-114790161D01*
X153387521Y-114803826D01*
X153449998Y-114809292D01*
X153450000Y-114809292D01*
X153450002Y-114809292D01*
X153504668Y-114804509D01*
X153668674Y-114790161D01*
X153880703Y-114733347D01*
X154079646Y-114640579D01*
X154259457Y-114514674D01*
X154414674Y-114359457D01*
X154540579Y-114179646D01*
X154633347Y-113980703D01*
X154690161Y-113768674D01*
X154709292Y-113550000D01*
X156690708Y-113550000D01*
X156709839Y-113768674D01*
X156766653Y-113980703D01*
X156766654Y-113980706D01*
X156766655Y-113980708D01*
X156859419Y-114179642D01*
X156859423Y-114179650D01*
X156985322Y-114359452D01*
X156985327Y-114359458D01*
X157140541Y-114514672D01*
X157140547Y-114514677D01*
X157320349Y-114640576D01*
X157320351Y-114640577D01*
X157320354Y-114640579D01*
X157519297Y-114733347D01*
X157731326Y-114790161D01*
X157887521Y-114803826D01*
X157949998Y-114809292D01*
X157950000Y-114809292D01*
X157950002Y-114809292D01*
X158004668Y-114804509D01*
X158168674Y-114790161D01*
X158380703Y-114733347D01*
X158579646Y-114640579D01*
X158759457Y-114514674D01*
X158914674Y-114359457D01*
X159040579Y-114179646D01*
X159133347Y-113980703D01*
X159190161Y-113768674D01*
X159209292Y-113550000D01*
X165090708Y-113550000D01*
X165109839Y-113768674D01*
X165166653Y-113980703D01*
X165166654Y-113980706D01*
X165166655Y-113980708D01*
X165259419Y-114179642D01*
X165259423Y-114179650D01*
X165385322Y-114359452D01*
X165385327Y-114359458D01*
X165540541Y-114514672D01*
X165540547Y-114514677D01*
X165720349Y-114640576D01*
X165720351Y-114640577D01*
X165720354Y-114640579D01*
X165919297Y-114733347D01*
X166131326Y-114790161D01*
X166287521Y-114803826D01*
X166349998Y-114809292D01*
X166350000Y-114809292D01*
X166350002Y-114809292D01*
X166404668Y-114804509D01*
X166568674Y-114790161D01*
X166780703Y-114733347D01*
X166979646Y-114640579D01*
X167159457Y-114514674D01*
X167314674Y-114359457D01*
X167440579Y-114179646D01*
X167533347Y-113980703D01*
X167590161Y-113768674D01*
X167609292Y-113550000D01*
X169590708Y-113550000D01*
X169609839Y-113768674D01*
X169666653Y-113980703D01*
X169666654Y-113980706D01*
X169666655Y-113980708D01*
X169759419Y-114179642D01*
X169759423Y-114179650D01*
X169885322Y-114359452D01*
X169885327Y-114359458D01*
X170040541Y-114514672D01*
X170040547Y-114514677D01*
X170220349Y-114640576D01*
X170220351Y-114640577D01*
X170220354Y-114640579D01*
X170419297Y-114733347D01*
X170631326Y-114790161D01*
X170787521Y-114803826D01*
X170849998Y-114809292D01*
X170850000Y-114809292D01*
X170850002Y-114809292D01*
X170904668Y-114804509D01*
X171068674Y-114790161D01*
X171280703Y-114733347D01*
X171479646Y-114640579D01*
X171659457Y-114514674D01*
X171814674Y-114359457D01*
X171940579Y-114179646D01*
X172033347Y-113980703D01*
X172090161Y-113768674D01*
X172109292Y-113550000D01*
X172090161Y-113331326D01*
X172033347Y-113119297D01*
X171940579Y-112920354D01*
X171940577Y-112920351D01*
X171940576Y-112920349D01*
X171814677Y-112740547D01*
X171814672Y-112740541D01*
X171659458Y-112585327D01*
X171659452Y-112585322D01*
X171479650Y-112459423D01*
X171479642Y-112459419D01*
X171280708Y-112366655D01*
X171280706Y-112366654D01*
X171280703Y-112366653D01*
X171129885Y-112326240D01*
X171068675Y-112309839D01*
X171068668Y-112309838D01*
X170850002Y-112290708D01*
X170849998Y-112290708D01*
X170631331Y-112309838D01*
X170631324Y-112309839D01*
X170508902Y-112342642D01*
X170419297Y-112366653D01*
X170419295Y-112366653D01*
X170419291Y-112366655D01*
X170220357Y-112459419D01*
X170220349Y-112459423D01*
X170040547Y-112585322D01*
X170040541Y-112585327D01*
X169885327Y-112740541D01*
X169885322Y-112740547D01*
X169759423Y-112920349D01*
X169759419Y-112920357D01*
X169666655Y-113119291D01*
X169609839Y-113331324D01*
X169609838Y-113331331D01*
X169590708Y-113549997D01*
X169590708Y-113550000D01*
X167609292Y-113550000D01*
X167590161Y-113331326D01*
X167533347Y-113119297D01*
X167440579Y-112920354D01*
X167440577Y-112920351D01*
X167440576Y-112920349D01*
X167314677Y-112740547D01*
X167314672Y-112740541D01*
X167159458Y-112585327D01*
X167159452Y-112585322D01*
X166979650Y-112459423D01*
X166979642Y-112459419D01*
X166780708Y-112366655D01*
X166780706Y-112366654D01*
X166780703Y-112366653D01*
X166629885Y-112326240D01*
X166568675Y-112309839D01*
X166568668Y-112309838D01*
X166350002Y-112290708D01*
X166349998Y-112290708D01*
X166131331Y-112309838D01*
X166131324Y-112309839D01*
X166008902Y-112342642D01*
X165919297Y-112366653D01*
X165919295Y-112366653D01*
X165919291Y-112366655D01*
X165720357Y-112459419D01*
X165720349Y-112459423D01*
X165540547Y-112585322D01*
X165540541Y-112585327D01*
X165385327Y-112740541D01*
X165385322Y-112740547D01*
X165259423Y-112920349D01*
X165259419Y-112920357D01*
X165166655Y-113119291D01*
X165109839Y-113331324D01*
X165109838Y-113331331D01*
X165090708Y-113549997D01*
X165090708Y-113550000D01*
X159209292Y-113550000D01*
X159190161Y-113331326D01*
X159133347Y-113119297D01*
X159040579Y-112920354D01*
X159040577Y-112920351D01*
X159040576Y-112920349D01*
X158914677Y-112740547D01*
X158914672Y-112740541D01*
X158759458Y-112585327D01*
X158759452Y-112585322D01*
X158579650Y-112459423D01*
X158579642Y-112459419D01*
X158380708Y-112366655D01*
X158380706Y-112366654D01*
X158380703Y-112366653D01*
X158229885Y-112326240D01*
X158168675Y-112309839D01*
X158168668Y-112309838D01*
X157950002Y-112290708D01*
X157949998Y-112290708D01*
X157731331Y-112309838D01*
X157731324Y-112309839D01*
X157608902Y-112342642D01*
X157519297Y-112366653D01*
X157519295Y-112366653D01*
X157519291Y-112366655D01*
X157320357Y-112459419D01*
X157320349Y-112459423D01*
X157140547Y-112585322D01*
X157140541Y-112585327D01*
X156985327Y-112740541D01*
X156985322Y-112740547D01*
X156859423Y-112920349D01*
X156859419Y-112920357D01*
X156766655Y-113119291D01*
X156709839Y-113331324D01*
X156709838Y-113331331D01*
X156690708Y-113549997D01*
X156690708Y-113550000D01*
X154709292Y-113550000D01*
X154690161Y-113331326D01*
X154633347Y-113119297D01*
X154540579Y-112920354D01*
X154540577Y-112920351D01*
X154540576Y-112920349D01*
X154414677Y-112740547D01*
X154414672Y-112740541D01*
X154259458Y-112585327D01*
X154259452Y-112585322D01*
X154079650Y-112459423D01*
X154079642Y-112459419D01*
X153880708Y-112366655D01*
X153880706Y-112366654D01*
X153880703Y-112366653D01*
X153729885Y-112326240D01*
X153668675Y-112309839D01*
X153668668Y-112309838D01*
X153450002Y-112290708D01*
X153449998Y-112290708D01*
X153231331Y-112309838D01*
X153231324Y-112309839D01*
X153108902Y-112342642D01*
X153019297Y-112366653D01*
X153019295Y-112366653D01*
X153019291Y-112366655D01*
X152820357Y-112459419D01*
X152820349Y-112459423D01*
X152640547Y-112585322D01*
X152640541Y-112585327D01*
X152485327Y-112740541D01*
X152485322Y-112740547D01*
X152359423Y-112920349D01*
X152359419Y-112920357D01*
X152266655Y-113119291D01*
X152209839Y-113331324D01*
X152209838Y-113331331D01*
X152190708Y-113549997D01*
X152190708Y-113550000D01*
X143600500Y-113550000D01*
X143600500Y-111535063D01*
X145365500Y-111535063D01*
X145380266Y-111609301D01*
X145436515Y-111693484D01*
X145470234Y-111716014D01*
X145520699Y-111749734D01*
X145520702Y-111749734D01*
X145520703Y-111749735D01*
X145545666Y-111754700D01*
X145594933Y-111764500D01*
X147345066Y-111764499D01*
X147419301Y-111749734D01*
X147503484Y-111693484D01*
X147559734Y-111609301D01*
X147574500Y-111535067D01*
X147574499Y-109784934D01*
X147559734Y-109710699D01*
X147541068Y-109682765D01*
X147503484Y-109626515D01*
X147453019Y-109592796D01*
X147419301Y-109570266D01*
X147419299Y-109570265D01*
X147419296Y-109570264D01*
X147345069Y-109555500D01*
X145594936Y-109555500D01*
X145520698Y-109570266D01*
X145436515Y-109626515D01*
X145380266Y-109710699D01*
X145380264Y-109710703D01*
X145365500Y-109784928D01*
X145365500Y-111535063D01*
X143600500Y-111535063D01*
X143600500Y-108120000D01*
X145360768Y-108120000D01*
X145379654Y-108323816D01*
X145435673Y-108520704D01*
X145526912Y-108703935D01*
X145650269Y-108867287D01*
X145801537Y-109005185D01*
X145801539Y-109005187D01*
X145975569Y-109112942D01*
X145975575Y-109112945D01*
X146016010Y-109128609D01*
X146166444Y-109186888D01*
X146367653Y-109224500D01*
X146367656Y-109224500D01*
X146572344Y-109224500D01*
X146572347Y-109224500D01*
X146773556Y-109186888D01*
X146964427Y-109112944D01*
X147138462Y-109005186D01*
X147289732Y-108867285D01*
X147413088Y-108703935D01*
X147504328Y-108520701D01*
X147560345Y-108323821D01*
X147579232Y-108120000D01*
X147560345Y-107916179D01*
X147504328Y-107719299D01*
X147413088Y-107536065D01*
X147317888Y-107410000D01*
X147289730Y-107372712D01*
X147138462Y-107234814D01*
X147138460Y-107234812D01*
X146964430Y-107127057D01*
X146964424Y-107127054D01*
X146798117Y-107062627D01*
X146773556Y-107053112D01*
X146756919Y-107050002D01*
X152190708Y-107050002D01*
X152206876Y-107234814D01*
X152209839Y-107268674D01*
X152266653Y-107480703D01*
X152266654Y-107480706D01*
X152266655Y-107480708D01*
X152359419Y-107679642D01*
X152359423Y-107679650D01*
X152485322Y-107859452D01*
X152485327Y-107859458D01*
X152640541Y-108014672D01*
X152640547Y-108014677D01*
X152820349Y-108140576D01*
X152820351Y-108140577D01*
X152820354Y-108140579D01*
X153019297Y-108233347D01*
X153231326Y-108290161D01*
X153387521Y-108303826D01*
X153449998Y-108309292D01*
X153450000Y-108309292D01*
X153450002Y-108309292D01*
X153504668Y-108304509D01*
X153668674Y-108290161D01*
X153880703Y-108233347D01*
X154079646Y-108140579D01*
X154259457Y-108014674D01*
X154414674Y-107859457D01*
X154540579Y-107679646D01*
X154633347Y-107480703D01*
X154690161Y-107268674D01*
X154709292Y-107050002D01*
X156690708Y-107050002D01*
X156706876Y-107234814D01*
X156709839Y-107268674D01*
X156766653Y-107480703D01*
X156766654Y-107480706D01*
X156766655Y-107480708D01*
X156859419Y-107679642D01*
X156859423Y-107679650D01*
X156985322Y-107859452D01*
X156985327Y-107859458D01*
X157140541Y-108014672D01*
X157140547Y-108014677D01*
X157320349Y-108140576D01*
X157320351Y-108140577D01*
X157320354Y-108140579D01*
X157519297Y-108233347D01*
X157731326Y-108290161D01*
X157887521Y-108303826D01*
X157949998Y-108309292D01*
X157950000Y-108309292D01*
X157950002Y-108309292D01*
X158004668Y-108304509D01*
X158168674Y-108290161D01*
X158380703Y-108233347D01*
X158579646Y-108140579D01*
X158759457Y-108014674D01*
X158914674Y-107859457D01*
X159040579Y-107679646D01*
X159133347Y-107480703D01*
X159190161Y-107268674D01*
X159209292Y-107050002D01*
X165090708Y-107050002D01*
X165106876Y-107234814D01*
X165109839Y-107268674D01*
X165166653Y-107480703D01*
X165166654Y-107480706D01*
X165166655Y-107480708D01*
X165259419Y-107679642D01*
X165259423Y-107679650D01*
X165385322Y-107859452D01*
X165385327Y-107859458D01*
X165540541Y-108014672D01*
X165540547Y-108014677D01*
X165720349Y-108140576D01*
X165720351Y-108140577D01*
X165720354Y-108140579D01*
X165919297Y-108233347D01*
X166131326Y-108290161D01*
X166287521Y-108303826D01*
X166349998Y-108309292D01*
X166350000Y-108309292D01*
X166350002Y-108309292D01*
X166404668Y-108304509D01*
X166568674Y-108290161D01*
X166780703Y-108233347D01*
X166979646Y-108140579D01*
X167159457Y-108014674D01*
X167314674Y-107859457D01*
X167440579Y-107679646D01*
X167533347Y-107480703D01*
X167590161Y-107268674D01*
X167609292Y-107050002D01*
X169590708Y-107050002D01*
X169606876Y-107234814D01*
X169609839Y-107268674D01*
X169666653Y-107480703D01*
X169666654Y-107480706D01*
X169666655Y-107480708D01*
X169759419Y-107679642D01*
X169759423Y-107679650D01*
X169885322Y-107859452D01*
X169885327Y-107859458D01*
X170040541Y-108014672D01*
X170040547Y-108014677D01*
X170220349Y-108140576D01*
X170220351Y-108140577D01*
X170220354Y-108140579D01*
X170419297Y-108233347D01*
X170631326Y-108290161D01*
X170787521Y-108303826D01*
X170849998Y-108309292D01*
X170850000Y-108309292D01*
X170850002Y-108309292D01*
X170904668Y-108304509D01*
X171068674Y-108290161D01*
X171280703Y-108233347D01*
X171479646Y-108140579D01*
X171659457Y-108014674D01*
X171814674Y-107859457D01*
X171940579Y-107679646D01*
X172033347Y-107480703D01*
X172090161Y-107268674D01*
X172109292Y-107050000D01*
X172090161Y-106831326D01*
X172033347Y-106619297D01*
X171940579Y-106420354D01*
X171940577Y-106420351D01*
X171940576Y-106420349D01*
X171814677Y-106240547D01*
X171814672Y-106240541D01*
X171659458Y-106085327D01*
X171659452Y-106085322D01*
X171479650Y-105959423D01*
X171479642Y-105959419D01*
X171280708Y-105866655D01*
X171280706Y-105866654D01*
X171280703Y-105866653D01*
X171129885Y-105826240D01*
X171068675Y-105809839D01*
X171068668Y-105809838D01*
X170850002Y-105790708D01*
X170849998Y-105790708D01*
X170631331Y-105809838D01*
X170631324Y-105809839D01*
X170518012Y-105840202D01*
X170419297Y-105866653D01*
X170419295Y-105866653D01*
X170419291Y-105866655D01*
X170220357Y-105959419D01*
X170220349Y-105959423D01*
X170040547Y-106085322D01*
X170040541Y-106085327D01*
X169885327Y-106240541D01*
X169885322Y-106240547D01*
X169759423Y-106420349D01*
X169759419Y-106420357D01*
X169666655Y-106619291D01*
X169666653Y-106619295D01*
X169666653Y-106619297D01*
X169659260Y-106646888D01*
X169609839Y-106831324D01*
X169609838Y-106831331D01*
X169590708Y-107049997D01*
X169590708Y-107050002D01*
X167609292Y-107050002D01*
X167609292Y-107050000D01*
X167590161Y-106831326D01*
X167533347Y-106619297D01*
X167440579Y-106420354D01*
X167440577Y-106420351D01*
X167440576Y-106420349D01*
X167314677Y-106240547D01*
X167314672Y-106240541D01*
X167159458Y-106085327D01*
X167159452Y-106085322D01*
X166979650Y-105959423D01*
X166979642Y-105959419D01*
X166780708Y-105866655D01*
X166780706Y-105866654D01*
X166780703Y-105866653D01*
X166629885Y-105826240D01*
X166568675Y-105809839D01*
X166568668Y-105809838D01*
X166350002Y-105790708D01*
X166349998Y-105790708D01*
X166131331Y-105809838D01*
X166131324Y-105809839D01*
X166018012Y-105840202D01*
X165919297Y-105866653D01*
X165919295Y-105866653D01*
X165919291Y-105866655D01*
X165720357Y-105959419D01*
X165720349Y-105959423D01*
X165540547Y-106085322D01*
X165540541Y-106085327D01*
X165385327Y-106240541D01*
X165385322Y-106240547D01*
X165259423Y-106420349D01*
X165259419Y-106420357D01*
X165166655Y-106619291D01*
X165166653Y-106619295D01*
X165166653Y-106619297D01*
X165159260Y-106646888D01*
X165109839Y-106831324D01*
X165109838Y-106831331D01*
X165090708Y-107049997D01*
X165090708Y-107050002D01*
X159209292Y-107050002D01*
X159209292Y-107050000D01*
X159190161Y-106831326D01*
X159133347Y-106619297D01*
X159040579Y-106420354D01*
X159040577Y-106420351D01*
X159040576Y-106420349D01*
X158914677Y-106240547D01*
X158914672Y-106240541D01*
X158759458Y-106085327D01*
X158759452Y-106085322D01*
X158579650Y-105959423D01*
X158579642Y-105959419D01*
X158380708Y-105866655D01*
X158380706Y-105866654D01*
X158380703Y-105866653D01*
X158229885Y-105826240D01*
X158168675Y-105809839D01*
X158168668Y-105809838D01*
X157950002Y-105790708D01*
X157949998Y-105790708D01*
X157731331Y-105809838D01*
X157731324Y-105809839D01*
X157618012Y-105840202D01*
X157519297Y-105866653D01*
X157519295Y-105866653D01*
X157519291Y-105866655D01*
X157320357Y-105959419D01*
X157320349Y-105959423D01*
X157140547Y-106085322D01*
X157140541Y-106085327D01*
X156985327Y-106240541D01*
X156985322Y-106240547D01*
X156859423Y-106420349D01*
X156859419Y-106420357D01*
X156766655Y-106619291D01*
X156766653Y-106619295D01*
X156766653Y-106619297D01*
X156759260Y-106646888D01*
X156709839Y-106831324D01*
X156709838Y-106831331D01*
X156690708Y-107049997D01*
X156690708Y-107050002D01*
X154709292Y-107050002D01*
X154709292Y-107050000D01*
X154690161Y-106831326D01*
X154633347Y-106619297D01*
X154633344Y-106619291D01*
X154633343Y-106619286D01*
X154631494Y-106614205D01*
X154633649Y-106613420D01*
X154624592Y-106554053D01*
X154653069Y-106490250D01*
X154659784Y-106482974D01*
X155868860Y-105273899D01*
X155868865Y-105273895D01*
X155879068Y-105263691D01*
X155879070Y-105263691D01*
X155963691Y-105179070D01*
X156023527Y-105075431D01*
X156046375Y-104990161D01*
X156054501Y-104959836D01*
X156054501Y-104840164D01*
X156054501Y-104832569D01*
X156054500Y-104832551D01*
X156054500Y-103600282D01*
X156074185Y-103533243D01*
X156090819Y-103512601D01*
X156407947Y-103195473D01*
X156736252Y-102867167D01*
X156797573Y-102833684D01*
X156867264Y-102838668D01*
X156923198Y-102880539D01*
X156947615Y-102946004D01*
X156932763Y-103014277D01*
X156925506Y-103025973D01*
X156859424Y-103120349D01*
X156859419Y-103120357D01*
X156766655Y-103319291D01*
X156766653Y-103319295D01*
X156766653Y-103319297D01*
X156754808Y-103363502D01*
X156709839Y-103531324D01*
X156709838Y-103531331D01*
X156702014Y-103620767D01*
X156690708Y-103750000D01*
X156709839Y-103968674D01*
X156766653Y-104180703D01*
X156766654Y-104180706D01*
X156766655Y-104180708D01*
X156859419Y-104379642D01*
X156859423Y-104379650D01*
X156985322Y-104559452D01*
X156985327Y-104559458D01*
X157140541Y-104714672D01*
X157140547Y-104714677D01*
X157320349Y-104840576D01*
X157320351Y-104840577D01*
X157320354Y-104840579D01*
X157519297Y-104933347D01*
X157731326Y-104990161D01*
X157887521Y-105003826D01*
X157949998Y-105009292D01*
X157950000Y-105009292D01*
X157950002Y-105009292D01*
X158004668Y-105004509D01*
X158168674Y-104990161D01*
X158380703Y-104933347D01*
X158579646Y-104840579D01*
X158759457Y-104714674D01*
X158914674Y-104559457D01*
X159040579Y-104379646D01*
X159133347Y-104180703D01*
X159190161Y-103968674D01*
X159209292Y-103750000D01*
X165090708Y-103750000D01*
X165109839Y-103968674D01*
X165166653Y-104180703D01*
X165166654Y-104180706D01*
X165166655Y-104180708D01*
X165259419Y-104379642D01*
X165259423Y-104379650D01*
X165385322Y-104559452D01*
X165385327Y-104559458D01*
X165540541Y-104714672D01*
X165540547Y-104714677D01*
X165720349Y-104840576D01*
X165720351Y-104840577D01*
X165720354Y-104840579D01*
X165919297Y-104933347D01*
X166131326Y-104990161D01*
X166287521Y-105003826D01*
X166349998Y-105009292D01*
X166350000Y-105009292D01*
X166350002Y-105009292D01*
X166404668Y-105004509D01*
X166568674Y-104990161D01*
X166780703Y-104933347D01*
X166979646Y-104840579D01*
X167159457Y-104714674D01*
X167314674Y-104559457D01*
X167440579Y-104379646D01*
X167533347Y-104180703D01*
X167590161Y-103968674D01*
X167609292Y-103750000D01*
X169590708Y-103750000D01*
X169609839Y-103968674D01*
X169666653Y-104180703D01*
X169666654Y-104180706D01*
X169666655Y-104180708D01*
X169759419Y-104379642D01*
X169759423Y-104379650D01*
X169885322Y-104559452D01*
X169885327Y-104559458D01*
X170040541Y-104714672D01*
X170040547Y-104714677D01*
X170220349Y-104840576D01*
X170220351Y-104840577D01*
X170220354Y-104840579D01*
X170419297Y-104933347D01*
X170631326Y-104990161D01*
X170787521Y-105003826D01*
X170849998Y-105009292D01*
X170850000Y-105009292D01*
X170850002Y-105009292D01*
X170904668Y-105004509D01*
X171068674Y-104990161D01*
X171280703Y-104933347D01*
X171479646Y-104840579D01*
X171659457Y-104714674D01*
X171814674Y-104559457D01*
X171940579Y-104379646D01*
X172033347Y-104180703D01*
X172090161Y-103968674D01*
X172109292Y-103750000D01*
X172090161Y-103531326D01*
X172033347Y-103319297D01*
X171940579Y-103120354D01*
X171940577Y-103120351D01*
X171940576Y-103120349D01*
X171814677Y-102940547D01*
X171814672Y-102940541D01*
X171659458Y-102785327D01*
X171659452Y-102785322D01*
X171479650Y-102659423D01*
X171479642Y-102659419D01*
X171280708Y-102566655D01*
X171280706Y-102566654D01*
X171280703Y-102566653D01*
X171107931Y-102520358D01*
X171068675Y-102509839D01*
X171068668Y-102509838D01*
X170850002Y-102490708D01*
X170849998Y-102490708D01*
X170631331Y-102509838D01*
X170631324Y-102509839D01*
X170508902Y-102542642D01*
X170419297Y-102566653D01*
X170419295Y-102566653D01*
X170419291Y-102566655D01*
X170220357Y-102659419D01*
X170220349Y-102659423D01*
X170040547Y-102785322D01*
X170040541Y-102785327D01*
X169885327Y-102940541D01*
X169885322Y-102940547D01*
X169759423Y-103120349D01*
X169759419Y-103120357D01*
X169666655Y-103319291D01*
X169666653Y-103319295D01*
X169666653Y-103319297D01*
X169654808Y-103363502D01*
X169609839Y-103531324D01*
X169609838Y-103531331D01*
X169602014Y-103620767D01*
X169590708Y-103750000D01*
X167609292Y-103750000D01*
X167590161Y-103531326D01*
X167533347Y-103319297D01*
X167440579Y-103120354D01*
X167440577Y-103120351D01*
X167440576Y-103120349D01*
X167314677Y-102940547D01*
X167314672Y-102940541D01*
X167159458Y-102785327D01*
X167159452Y-102785322D01*
X166979650Y-102659423D01*
X166979642Y-102659419D01*
X166780708Y-102566655D01*
X166780706Y-102566654D01*
X166780703Y-102566653D01*
X166607931Y-102520358D01*
X166568675Y-102509839D01*
X166568668Y-102509838D01*
X166350002Y-102490708D01*
X166349998Y-102490708D01*
X166131331Y-102509838D01*
X166131324Y-102509839D01*
X166008902Y-102542642D01*
X165919297Y-102566653D01*
X165919295Y-102566653D01*
X165919291Y-102566655D01*
X165720357Y-102659419D01*
X165720349Y-102659423D01*
X165540547Y-102785322D01*
X165540541Y-102785327D01*
X165385327Y-102940541D01*
X165385322Y-102940547D01*
X165259423Y-103120349D01*
X165259419Y-103120357D01*
X165166655Y-103319291D01*
X165166653Y-103319295D01*
X165166653Y-103319297D01*
X165154808Y-103363502D01*
X165109839Y-103531324D01*
X165109838Y-103531331D01*
X165102014Y-103620767D01*
X165090708Y-103750000D01*
X159209292Y-103750000D01*
X159190161Y-103531326D01*
X159133347Y-103319297D01*
X159040579Y-103120354D01*
X159040577Y-103120351D01*
X159040576Y-103120349D01*
X158914677Y-102940547D01*
X158914672Y-102940541D01*
X158759458Y-102785327D01*
X158759452Y-102785322D01*
X158579650Y-102659423D01*
X158579642Y-102659419D01*
X158380708Y-102566655D01*
X158380706Y-102566654D01*
X158380703Y-102566653D01*
X158207931Y-102520358D01*
X158168675Y-102509839D01*
X158168668Y-102509838D01*
X157950002Y-102490708D01*
X157949998Y-102490708D01*
X157731331Y-102509838D01*
X157731324Y-102509839D01*
X157608902Y-102542642D01*
X157519297Y-102566653D01*
X157519295Y-102566653D01*
X157519291Y-102566655D01*
X157320357Y-102659419D01*
X157320349Y-102659424D01*
X157225973Y-102725506D01*
X157159767Y-102747833D01*
X157091999Y-102730822D01*
X157044187Y-102679874D01*
X157031509Y-102611164D01*
X157057991Y-102546508D01*
X157067160Y-102536259D01*
X157451941Y-102151479D01*
X157513264Y-102117994D01*
X157539622Y-102115160D01*
X177366343Y-102115160D01*
X177433382Y-102134845D01*
X177479137Y-102187649D01*
X177489081Y-102256807D01*
X177460056Y-102320363D01*
X177441834Y-102337532D01*
X177354526Y-102404526D01*
X177273718Y-102509838D01*
X177265643Y-102520361D01*
X177209772Y-102655245D01*
X177209771Y-102655247D01*
X177190715Y-102799998D01*
X177190715Y-102800001D01*
X177209771Y-102944752D01*
X177209773Y-102944757D01*
X177265642Y-103079638D01*
X177265645Y-103079644D01*
X177354525Y-103195473D01*
X177354526Y-103195474D01*
X177470355Y-103284354D01*
X177470361Y-103284357D01*
X177510117Y-103300824D01*
X177605246Y-103340228D01*
X177612132Y-103341134D01*
X177676027Y-103369395D01*
X177683632Y-103376392D01*
X178681968Y-104374728D01*
X178681978Y-104374739D01*
X178686308Y-104379069D01*
X178686309Y-104379070D01*
X178770930Y-104463691D01*
X178830767Y-104498237D01*
X178874570Y-104523528D01*
X178990164Y-104554501D01*
X178990166Y-104554501D01*
X179117432Y-104554501D01*
X179117448Y-104554500D01*
X182774981Y-104554500D01*
X182842020Y-104574185D01*
X182887775Y-104626989D01*
X182898270Y-104691758D01*
X182895000Y-104722160D01*
X182895000Y-106500000D01*
X183774175Y-106500000D01*
X183750364Y-106557485D01*
X183725000Y-106684996D01*
X183725000Y-106815004D01*
X183750364Y-106942515D01*
X183774175Y-107000000D01*
X182895000Y-107000000D01*
X182895000Y-108777844D01*
X182901401Y-108837372D01*
X182901403Y-108837379D01*
X182951645Y-108972086D01*
X182951649Y-108972093D01*
X183037809Y-109087187D01*
X183037812Y-109087190D01*
X183152906Y-109173350D01*
X183152913Y-109173354D01*
X183287620Y-109223596D01*
X183287627Y-109223598D01*
X183347155Y-109229999D01*
X183347172Y-109230000D01*
X184135000Y-109230000D01*
X184135000Y-107360824D01*
X184192485Y-107384636D01*
X184319996Y-107410000D01*
X184450004Y-107410000D01*
X184577515Y-107384636D01*
X184635000Y-107360824D01*
X184635000Y-109230000D01*
X185422828Y-109230000D01*
X185422844Y-109229999D01*
X185482372Y-109223598D01*
X185482379Y-109223596D01*
X185617086Y-109173354D01*
X185617093Y-109173350D01*
X185732187Y-109087190D01*
X185732190Y-109087187D01*
X185818350Y-108972093D01*
X185818354Y-108972086D01*
X185868596Y-108837379D01*
X185868598Y-108837372D01*
X185874999Y-108777844D01*
X185875000Y-108777827D01*
X185875000Y-107000000D01*
X184995825Y-107000000D01*
X185019636Y-106942515D01*
X185045000Y-106815004D01*
X185045000Y-106684996D01*
X185019636Y-106557485D01*
X184995825Y-106500000D01*
X185875000Y-106500000D01*
X185875000Y-104722172D01*
X185874999Y-104722160D01*
X185871730Y-104691758D01*
X185884134Y-104622998D01*
X185931743Y-104571860D01*
X185995019Y-104554500D01*
X188545327Y-104554500D01*
X188612366Y-104574185D01*
X188658121Y-104626989D01*
X188668065Y-104696147D01*
X188639040Y-104759703D01*
X188618216Y-104778814D01*
X188582811Y-104804538D01*
X188574260Y-104810751D01*
X188435751Y-104949260D01*
X188435751Y-104949261D01*
X188435749Y-104949263D01*
X188406035Y-104990161D01*
X188320608Y-105107739D01*
X188231678Y-105282273D01*
X188171143Y-105468578D01*
X188140500Y-105662056D01*
X188140500Y-107837943D01*
X188171143Y-108031421D01*
X188231678Y-108217726D01*
X188320608Y-108392260D01*
X188435749Y-108550737D01*
X188574263Y-108689251D01*
X188732740Y-108804392D01*
X188797481Y-108837379D01*
X188907273Y-108893321D01*
X188907275Y-108893321D01*
X188907278Y-108893323D01*
X189007139Y-108925770D01*
X189093578Y-108953856D01*
X189190317Y-108969178D01*
X189287056Y-108984500D01*
X189287057Y-108984500D01*
X189482943Y-108984500D01*
X189482944Y-108984500D01*
X189676421Y-108953856D01*
X189862722Y-108893323D01*
X190037260Y-108804392D01*
X190195737Y-108689251D01*
X190334251Y-108550737D01*
X190449392Y-108392260D01*
X190538323Y-108217722D01*
X190570075Y-108120000D01*
X193620768Y-108120000D01*
X193639654Y-108323816D01*
X193695673Y-108520704D01*
X193786912Y-108703935D01*
X193910269Y-108867287D01*
X194061537Y-109005185D01*
X194061539Y-109005187D01*
X194235569Y-109112942D01*
X194235575Y-109112945D01*
X194276010Y-109128609D01*
X194426444Y-109186888D01*
X194627653Y-109224500D01*
X194627656Y-109224500D01*
X194832344Y-109224500D01*
X194832347Y-109224500D01*
X195033556Y-109186888D01*
X195224427Y-109112944D01*
X195398462Y-109005186D01*
X195549732Y-108867285D01*
X195673088Y-108703935D01*
X195764328Y-108520701D01*
X195820345Y-108323821D01*
X195839232Y-108120000D01*
X195820345Y-107916179D01*
X195764328Y-107719299D01*
X195673088Y-107536065D01*
X195577888Y-107410000D01*
X195549730Y-107372712D01*
X195398462Y-107234814D01*
X195398460Y-107234812D01*
X195224430Y-107127057D01*
X195224424Y-107127054D01*
X195058117Y-107062627D01*
X195033556Y-107053112D01*
X194832347Y-107015500D01*
X194627653Y-107015500D01*
X194426444Y-107053112D01*
X194426441Y-107053112D01*
X194426441Y-107053113D01*
X194235575Y-107127054D01*
X194235569Y-107127057D01*
X194061539Y-107234812D01*
X194061537Y-107234814D01*
X193910269Y-107372712D01*
X193786912Y-107536064D01*
X193695673Y-107719295D01*
X193695672Y-107719299D01*
X193655794Y-107859458D01*
X193639654Y-107916183D01*
X193620768Y-108119999D01*
X193620768Y-108120000D01*
X190570075Y-108120000D01*
X190598856Y-108031421D01*
X190629500Y-107837944D01*
X190629500Y-105662056D01*
X190616504Y-105580000D01*
X193620768Y-105580000D01*
X193639654Y-105783816D01*
X193639654Y-105783818D01*
X193639655Y-105783821D01*
X193689618Y-105959423D01*
X193695673Y-105980704D01*
X193786912Y-106163935D01*
X193910269Y-106327287D01*
X194061537Y-106465185D01*
X194061539Y-106465187D01*
X194235569Y-106572942D01*
X194235575Y-106572945D01*
X194276010Y-106588609D01*
X194426444Y-106646888D01*
X194627653Y-106684500D01*
X194627656Y-106684500D01*
X194832344Y-106684500D01*
X194832347Y-106684500D01*
X195033556Y-106646888D01*
X195224427Y-106572944D01*
X195398462Y-106465186D01*
X195549732Y-106327285D01*
X195673088Y-106163935D01*
X195764328Y-105980701D01*
X195820345Y-105783821D01*
X195839232Y-105580000D01*
X195820345Y-105376179D01*
X195764328Y-105179299D01*
X195673088Y-104996065D01*
X195613904Y-104917693D01*
X195549730Y-104832712D01*
X195398462Y-104694814D01*
X195398460Y-104694812D01*
X195224430Y-104587057D01*
X195224424Y-104587054D01*
X195060440Y-104523527D01*
X195033556Y-104513112D01*
X194832347Y-104475500D01*
X194627653Y-104475500D01*
X194426444Y-104513112D01*
X194426441Y-104513112D01*
X194426441Y-104513113D01*
X194235575Y-104587054D01*
X194235569Y-104587057D01*
X194061539Y-104694812D01*
X194061537Y-104694814D01*
X193910269Y-104832712D01*
X193786912Y-104996064D01*
X193695673Y-105179295D01*
X193639654Y-105376183D01*
X193620768Y-105579999D01*
X193620768Y-105580000D01*
X190616504Y-105580000D01*
X190598856Y-105468578D01*
X190538321Y-105282273D01*
X190449391Y-105107739D01*
X190425919Y-105075433D01*
X190334251Y-104949263D01*
X190195737Y-104810749D01*
X190151785Y-104778816D01*
X190109122Y-104723488D01*
X190103143Y-104653875D01*
X190135749Y-104592080D01*
X190196588Y-104557722D01*
X190224673Y-104554500D01*
X193602552Y-104554500D01*
X193602568Y-104554501D01*
X193610164Y-104554501D01*
X193729835Y-104554501D01*
X193729836Y-104554501D01*
X193820998Y-104530073D01*
X193821001Y-104530073D01*
X193835105Y-104526293D01*
X193845431Y-104523527D01*
X193949070Y-104463691D01*
X194033691Y-104379070D01*
X194033691Y-104379068D01*
X194043895Y-104368865D01*
X194043899Y-104368860D01*
X194282407Y-104130351D01*
X194343728Y-104096868D01*
X194413420Y-104101852D01*
X194414776Y-104102368D01*
X194426444Y-104106888D01*
X194627653Y-104144500D01*
X194627656Y-104144500D01*
X194832344Y-104144500D01*
X194832347Y-104144500D01*
X195033556Y-104106888D01*
X195224427Y-104032944D01*
X195398462Y-103925186D01*
X195549732Y-103787285D01*
X195673088Y-103623935D01*
X195764328Y-103440701D01*
X195820345Y-103243821D01*
X195839232Y-103040000D01*
X195820345Y-102836179D01*
X195764328Y-102639299D01*
X195673088Y-102456065D01*
X195549732Y-102292715D01*
X195549730Y-102292712D01*
X195398462Y-102154814D01*
X195398460Y-102154812D01*
X195224430Y-102047057D01*
X195224424Y-102047054D01*
X195039542Y-101975431D01*
X195033556Y-101973112D01*
X194832347Y-101935500D01*
X194627653Y-101935500D01*
X194426444Y-101973112D01*
X194426441Y-101973112D01*
X194426441Y-101973113D01*
X194235575Y-102047054D01*
X194235569Y-102047057D01*
X194068033Y-102150791D01*
X194000672Y-102169346D01*
X193933973Y-102148538D01*
X193889112Y-102094973D01*
X193880332Y-102025657D01*
X193910421Y-101962598D01*
X193915053Y-101957705D01*
X194282407Y-101590351D01*
X194343728Y-101556868D01*
X194413420Y-101561852D01*
X194414776Y-101562368D01*
X194426444Y-101566888D01*
X194627653Y-101604500D01*
X194627656Y-101604500D01*
X194832344Y-101604500D01*
X194832347Y-101604500D01*
X195033556Y-101566888D01*
X195224427Y-101492944D01*
X195398462Y-101385186D01*
X195549732Y-101247285D01*
X195673088Y-101083935D01*
X195764328Y-100900701D01*
X195820345Y-100703821D01*
X195839232Y-100500000D01*
X195820345Y-100296179D01*
X195764328Y-100099299D01*
X195673088Y-99916065D01*
X195578113Y-99790297D01*
X195549730Y-99752712D01*
X195398462Y-99614814D01*
X195398460Y-99614812D01*
X195224430Y-99507057D01*
X195224424Y-99507054D01*
X195073993Y-99448777D01*
X195033556Y-99433112D01*
X194832347Y-99395500D01*
X194627653Y-99395500D01*
X194426444Y-99433112D01*
X194426441Y-99433112D01*
X194426441Y-99433113D01*
X194235575Y-99507054D01*
X194235569Y-99507057D01*
X194068033Y-99610791D01*
X194000672Y-99629346D01*
X193933973Y-99608538D01*
X193889112Y-99554973D01*
X193880332Y-99485657D01*
X193910421Y-99422598D01*
X193915055Y-99417703D01*
X194282407Y-99050351D01*
X194343728Y-99016868D01*
X194413420Y-99021852D01*
X194414776Y-99022368D01*
X194426444Y-99026888D01*
X194627653Y-99064500D01*
X194627656Y-99064500D01*
X194832344Y-99064500D01*
X194832347Y-99064500D01*
X195033556Y-99026888D01*
X195224427Y-98952944D01*
X195398462Y-98845186D01*
X195535373Y-98720375D01*
X195549730Y-98707287D01*
X195549732Y-98707285D01*
X195673088Y-98543935D01*
X195764328Y-98360701D01*
X195820345Y-98163821D01*
X195839232Y-97960000D01*
X195820345Y-97756179D01*
X195764328Y-97559299D01*
X195673088Y-97376065D01*
X195549732Y-97212715D01*
X195549730Y-97212712D01*
X195398462Y-97074814D01*
X195398460Y-97074812D01*
X195224430Y-96967057D01*
X195224424Y-96967054D01*
X195073993Y-96908777D01*
X195033556Y-96893112D01*
X194832347Y-96855500D01*
X194627653Y-96855500D01*
X194426444Y-96893112D01*
X194426441Y-96893112D01*
X194426441Y-96893113D01*
X194235575Y-96967054D01*
X194235569Y-96967057D01*
X194061539Y-97074812D01*
X194061537Y-97074814D01*
X193910269Y-97212712D01*
X193786912Y-97376064D01*
X193695673Y-97559295D01*
X193639654Y-97756183D01*
X193620768Y-97959999D01*
X193620768Y-97960000D01*
X193639654Y-98163820D01*
X193639655Y-98163822D01*
X193673707Y-98283501D01*
X193673121Y-98353368D01*
X193642122Y-98405116D01*
X189638059Y-102409181D01*
X189576736Y-102442666D01*
X189550378Y-102445500D01*
X189246621Y-102445500D01*
X189179582Y-102425815D01*
X189133827Y-102373011D01*
X189123883Y-102303853D01*
X189152908Y-102240297D01*
X189158922Y-102233837D01*
X189218863Y-102173895D01*
X189218868Y-102173892D01*
X189229068Y-102163691D01*
X189229070Y-102163691D01*
X189313691Y-102079070D01*
X189373527Y-101975431D01*
X189378282Y-101957683D01*
X189380073Y-101951001D01*
X189380073Y-101950998D01*
X189404501Y-101859836D01*
X189404501Y-101740164D01*
X189404501Y-101732569D01*
X189404500Y-101732551D01*
X189404500Y-98899621D01*
X189424185Y-98832582D01*
X189440814Y-98811945D01*
X193665589Y-94587169D01*
X193726910Y-94553686D01*
X193796602Y-94558670D01*
X193852535Y-94600542D01*
X193876952Y-94666006D01*
X193862100Y-94734279D01*
X193852223Y-94749578D01*
X193786911Y-94836065D01*
X193695673Y-95019295D01*
X193639654Y-95216183D01*
X193620768Y-95419999D01*
X193620768Y-95420000D01*
X193639654Y-95623816D01*
X193695673Y-95820704D01*
X193786912Y-96003935D01*
X193910269Y-96167287D01*
X194061537Y-96305185D01*
X194061539Y-96305187D01*
X194235569Y-96412942D01*
X194235575Y-96412945D01*
X194276010Y-96428609D01*
X194426444Y-96486888D01*
X194627653Y-96524500D01*
X194627656Y-96524500D01*
X194832344Y-96524500D01*
X194832347Y-96524500D01*
X195033556Y-96486888D01*
X195224427Y-96412944D01*
X195398462Y-96305186D01*
X195549732Y-96167285D01*
X195673088Y-96003935D01*
X195764328Y-95820701D01*
X195820345Y-95623821D01*
X195839232Y-95420000D01*
X195820345Y-95216179D01*
X195764328Y-95019299D01*
X195673088Y-94836065D01*
X195589541Y-94725431D01*
X195549730Y-94672712D01*
X195398462Y-94534814D01*
X195398460Y-94534812D01*
X195224430Y-94427057D01*
X195224424Y-94427054D01*
X195073993Y-94368777D01*
X195033556Y-94353112D01*
X194832347Y-94315500D01*
X194627653Y-94315500D01*
X194426444Y-94353112D01*
X194426441Y-94353112D01*
X194426441Y-94353113D01*
X194235575Y-94427054D01*
X194235569Y-94427057D01*
X194068033Y-94530791D01*
X194000672Y-94549346D01*
X193933973Y-94528538D01*
X193889112Y-94474973D01*
X193880332Y-94405657D01*
X193910421Y-94342598D01*
X193915055Y-94337703D01*
X194282407Y-93970351D01*
X194343728Y-93936868D01*
X194413420Y-93941852D01*
X194414776Y-93942368D01*
X194426444Y-93946888D01*
X194627653Y-93984500D01*
X194627656Y-93984500D01*
X194832344Y-93984500D01*
X194832347Y-93984500D01*
X195033556Y-93946888D01*
X195224427Y-93872944D01*
X195398462Y-93765186D01*
X195549732Y-93627285D01*
X195673088Y-93463935D01*
X195764328Y-93280701D01*
X195820345Y-93083821D01*
X195839232Y-92880000D01*
X195820345Y-92676179D01*
X195764328Y-92479299D01*
X195673088Y-92296065D01*
X195559367Y-92145474D01*
X195549730Y-92132712D01*
X195398462Y-91994814D01*
X195398460Y-91994812D01*
X195224430Y-91887057D01*
X195224424Y-91887054D01*
X195073993Y-91828777D01*
X195033556Y-91813112D01*
X194832347Y-91775500D01*
X194627653Y-91775500D01*
X194426444Y-91813112D01*
X194426441Y-91813112D01*
X194426441Y-91813113D01*
X194235575Y-91887054D01*
X194235569Y-91887057D01*
X194061539Y-91994812D01*
X194061537Y-91994814D01*
X193910269Y-92132712D01*
X193786912Y-92296064D01*
X193695673Y-92479295D01*
X193695672Y-92479299D01*
X193644305Y-92659838D01*
X193639654Y-92676183D01*
X193620768Y-92879999D01*
X193620768Y-92880000D01*
X193639654Y-93083820D01*
X193639655Y-93083822D01*
X193673707Y-93203501D01*
X193673121Y-93273368D01*
X193642122Y-93325116D01*
X188670932Y-98296307D01*
X188586311Y-98380927D01*
X188586307Y-98380933D01*
X188526472Y-98484568D01*
X188526473Y-98484568D01*
X188526473Y-98484570D01*
X188495499Y-98600165D01*
X188495499Y-98729825D01*
X188495500Y-98729838D01*
X188495500Y-101560378D01*
X188475815Y-101627417D01*
X188459181Y-101648059D01*
X188298059Y-101809181D01*
X188236736Y-101842666D01*
X188210378Y-101845500D01*
X187767712Y-101845500D01*
X187700673Y-101825815D01*
X187654918Y-101773011D01*
X187644974Y-101703853D01*
X187653151Y-101674047D01*
X187675505Y-101620080D01*
X187704500Y-101474312D01*
X187704500Y-98880446D01*
X187704501Y-98880425D01*
X187704501Y-98721682D01*
X187704297Y-98717526D01*
X187704297Y-89182477D01*
X187704501Y-89178328D01*
X187704501Y-89021682D01*
X187704297Y-89017526D01*
X187704297Y-88532477D01*
X187704501Y-88528328D01*
X187704501Y-88371682D01*
X187704297Y-88367526D01*
X187704297Y-87882477D01*
X187704501Y-87878328D01*
X187704501Y-87721682D01*
X187704297Y-87717526D01*
X187704297Y-87534166D01*
X187723982Y-87467127D01*
X187774495Y-87422446D01*
X187816972Y-87401991D01*
X188031147Y-87255969D01*
X188221166Y-87079658D01*
X188382784Y-86876994D01*
X188512392Y-86652506D01*
X188607095Y-86411209D01*
X188664776Y-86158491D01*
X188675436Y-86016246D01*
X188684147Y-85900004D01*
X188684147Y-85899995D01*
X188664776Y-85641510D01*
X188649497Y-85574569D01*
X188607095Y-85388791D01*
X188512392Y-85147494D01*
X188382784Y-84923006D01*
X188221166Y-84720342D01*
X188221165Y-84720341D01*
X188221162Y-84720337D01*
X188031147Y-84544031D01*
X187974632Y-84505500D01*
X187816972Y-84398009D01*
X187816968Y-84398007D01*
X187816965Y-84398005D01*
X187816963Y-84398004D01*
X187583428Y-84285540D01*
X187583430Y-84285540D01*
X187335727Y-84209134D01*
X187335721Y-84209132D01*
X187079412Y-84170500D01*
X187079405Y-84170500D01*
X186820189Y-84170500D01*
X186820181Y-84170500D01*
X186563872Y-84209132D01*
X186563866Y-84209134D01*
X186316164Y-84285540D01*
X186082630Y-84398004D01*
X186082628Y-84398005D01*
X185868446Y-84544031D01*
X185678431Y-84720337D01*
X185516810Y-84923006D01*
X185387203Y-85147491D01*
X185387201Y-85147495D01*
X185292499Y-85388790D01*
X185292497Y-85388797D01*
X185234817Y-85641510D01*
X185215447Y-85899995D01*
X185215447Y-85900004D01*
X185234817Y-86158489D01*
X185292497Y-86411202D01*
X185292499Y-86411209D01*
X185376955Y-86626399D01*
X185387202Y-86652506D01*
X185516810Y-86876994D01*
X185590414Y-86969291D01*
X185678431Y-87079662D01*
X185857807Y-87246097D01*
X185868447Y-87255969D01*
X186082622Y-87401991D01*
X186125098Y-87422446D01*
X186176957Y-87469267D01*
X186195297Y-87534166D01*
X186195297Y-87720349D01*
X186195296Y-87720375D01*
X186195296Y-87880628D01*
X186195297Y-87880649D01*
X186195297Y-88370349D01*
X186195296Y-88370375D01*
X186195296Y-88530628D01*
X186195297Y-88530649D01*
X186195297Y-89020349D01*
X186195296Y-89020375D01*
X186195296Y-89180628D01*
X186195297Y-89180649D01*
X186195297Y-98720349D01*
X186195296Y-98720375D01*
X186195296Y-98878125D01*
X186195500Y-98882274D01*
X186195500Y-100976170D01*
X186175815Y-101043209D01*
X186123011Y-101088964D01*
X186053853Y-101098908D01*
X185990297Y-101069883D01*
X185983819Y-101063851D01*
X185097969Y-100178001D01*
X185097967Y-100177998D01*
X185006280Y-100086311D01*
X185006278Y-100086309D01*
X184902641Y-100026474D01*
X184902640Y-100026473D01*
X184888757Y-100022753D01*
X184874876Y-100019034D01*
X184874874Y-100019033D01*
X184834112Y-100008111D01*
X184787044Y-99995499D01*
X184667372Y-99995499D01*
X184659776Y-99995499D01*
X184659760Y-99995500D01*
X178022574Y-99995500D01*
X177955535Y-99975815D01*
X177909780Y-99923011D01*
X177899836Y-99853853D01*
X177928861Y-99790297D01*
X177975121Y-99756939D01*
X178001515Y-99746006D01*
X178029643Y-99734355D01*
X178145474Y-99645474D01*
X178234355Y-99529643D01*
X178290228Y-99394754D01*
X178309285Y-99250000D01*
X178290228Y-99105246D01*
X178234355Y-98970358D01*
X178230122Y-98964841D01*
X178204930Y-98899671D01*
X178204500Y-98889357D01*
X178204500Y-96889939D01*
X178204501Y-96889926D01*
X178204501Y-96760266D01*
X178173527Y-96644671D01*
X178173527Y-96644669D01*
X178147144Y-96598973D01*
X178113691Y-96541031D01*
X178029070Y-96456410D01*
X178029069Y-96456409D01*
X178024739Y-96452079D01*
X178024728Y-96452069D01*
X170386865Y-88814206D01*
X170353380Y-88752883D01*
X170358364Y-88683191D01*
X170400236Y-88627258D01*
X170465700Y-88602841D01*
X170506634Y-88606749D01*
X170631326Y-88640161D01*
X170787521Y-88653826D01*
X170849998Y-88659292D01*
X170850000Y-88659292D01*
X170850002Y-88659292D01*
X170904668Y-88654509D01*
X171068674Y-88640161D01*
X171280703Y-88583347D01*
X171479646Y-88490579D01*
X171659457Y-88364674D01*
X171814674Y-88209457D01*
X171940579Y-88029646D01*
X172033347Y-87830703D01*
X172090161Y-87618674D01*
X172109292Y-87400000D01*
X172109283Y-87399901D01*
X172102117Y-87317997D01*
X172090161Y-87181326D01*
X172033347Y-86969297D01*
X171940579Y-86770354D01*
X171940577Y-86770351D01*
X171940576Y-86770349D01*
X171814677Y-86590547D01*
X171814672Y-86590541D01*
X171659458Y-86435327D01*
X171659452Y-86435322D01*
X171479650Y-86309423D01*
X171479642Y-86309419D01*
X171280708Y-86216655D01*
X171280706Y-86216654D01*
X171280703Y-86216653D01*
X171129885Y-86176240D01*
X171068675Y-86159839D01*
X171068668Y-86159838D01*
X170850002Y-86140708D01*
X170849998Y-86140708D01*
X170631331Y-86159838D01*
X170631324Y-86159839D01*
X170508902Y-86192642D01*
X170419297Y-86216653D01*
X170419295Y-86216653D01*
X170419291Y-86216655D01*
X170220357Y-86309419D01*
X170220349Y-86309423D01*
X170040547Y-86435322D01*
X170040541Y-86435327D01*
X169885327Y-86590541D01*
X169885322Y-86590547D01*
X169759423Y-86770349D01*
X169759419Y-86770357D01*
X169666655Y-86969291D01*
X169609839Y-87181324D01*
X169609838Y-87181331D01*
X169590708Y-87399997D01*
X169590708Y-87400002D01*
X169609838Y-87618668D01*
X169609839Y-87618675D01*
X169630433Y-87695530D01*
X169638459Y-87725485D01*
X169643249Y-87743359D01*
X169641586Y-87813209D01*
X169602424Y-87871072D01*
X169538196Y-87898576D01*
X169469293Y-87886990D01*
X169435793Y-87863134D01*
X168940819Y-87368160D01*
X168907334Y-87306837D01*
X168904500Y-87280479D01*
X168904500Y-85690166D01*
X168904500Y-85690164D01*
X168873527Y-85574569D01*
X168813691Y-85470930D01*
X168729070Y-85386309D01*
X168729069Y-85386308D01*
X168724739Y-85381978D01*
X168724728Y-85381968D01*
X167636780Y-84294020D01*
X167603295Y-84232697D01*
X167600933Y-84195535D01*
X167609292Y-84100002D01*
X169590708Y-84100002D01*
X169609838Y-84318668D01*
X169609839Y-84318675D01*
X169611717Y-84325682D01*
X169666653Y-84530703D01*
X169666654Y-84530706D01*
X169666655Y-84530708D01*
X169759419Y-84729642D01*
X169759423Y-84729650D01*
X169885322Y-84909452D01*
X169885327Y-84909458D01*
X170040541Y-85064672D01*
X170040547Y-85064677D01*
X170220349Y-85190576D01*
X170220351Y-85190577D01*
X170220354Y-85190579D01*
X170419297Y-85283347D01*
X170631326Y-85340161D01*
X170787521Y-85353826D01*
X170849998Y-85359292D01*
X170850000Y-85359292D01*
X170850002Y-85359292D01*
X170904668Y-85354509D01*
X171068674Y-85340161D01*
X171280703Y-85283347D01*
X171479646Y-85190579D01*
X171659457Y-85064674D01*
X171814674Y-84909457D01*
X171940579Y-84729646D01*
X172033347Y-84530703D01*
X172090161Y-84318674D01*
X172109292Y-84100000D01*
X172090161Y-83881326D01*
X172033347Y-83669297D01*
X171940579Y-83470354D01*
X171940577Y-83470351D01*
X171940576Y-83470349D01*
X171814677Y-83290547D01*
X171814672Y-83290541D01*
X171659458Y-83135327D01*
X171659452Y-83135322D01*
X171479650Y-83009423D01*
X171479642Y-83009419D01*
X171280708Y-82916655D01*
X171280706Y-82916654D01*
X171280703Y-82916653D01*
X171129885Y-82876240D01*
X171068675Y-82859839D01*
X171068668Y-82859838D01*
X170850002Y-82840708D01*
X170849998Y-82840708D01*
X170631331Y-82859838D01*
X170631324Y-82859839D01*
X170508902Y-82892642D01*
X170419297Y-82916653D01*
X170419295Y-82916653D01*
X170419291Y-82916655D01*
X170220357Y-83009419D01*
X170220349Y-83009423D01*
X170040547Y-83135322D01*
X170040541Y-83135327D01*
X169885327Y-83290541D01*
X169885322Y-83290547D01*
X169759423Y-83470349D01*
X169759419Y-83470357D01*
X169666655Y-83669291D01*
X169666653Y-83669295D01*
X169666653Y-83669297D01*
X169647708Y-83739999D01*
X169609839Y-83881324D01*
X169609838Y-83881331D01*
X169590708Y-84099997D01*
X169590708Y-84100002D01*
X167609292Y-84100002D01*
X167609292Y-84100000D01*
X167590161Y-83881326D01*
X167533347Y-83669297D01*
X167440579Y-83470354D01*
X167440577Y-83470351D01*
X167440576Y-83470349D01*
X167314677Y-83290547D01*
X167314672Y-83290541D01*
X167159458Y-83135327D01*
X167159452Y-83135322D01*
X166979650Y-83009423D01*
X166979642Y-83009419D01*
X166780708Y-82916655D01*
X166780706Y-82916654D01*
X166780703Y-82916653D01*
X166629885Y-82876240D01*
X166568675Y-82859839D01*
X166568668Y-82859838D01*
X166350002Y-82840708D01*
X166349998Y-82840708D01*
X166131331Y-82859838D01*
X166131324Y-82859839D01*
X166008902Y-82892642D01*
X165919297Y-82916653D01*
X165919295Y-82916653D01*
X165919291Y-82916655D01*
X165720357Y-83009419D01*
X165720349Y-83009423D01*
X165540547Y-83135322D01*
X165540541Y-83135327D01*
X165385327Y-83290541D01*
X165385322Y-83290547D01*
X165259423Y-83470349D01*
X165259419Y-83470357D01*
X165166655Y-83669291D01*
X165166653Y-83669295D01*
X165166653Y-83669297D01*
X165147708Y-83739999D01*
X165109839Y-83881324D01*
X165109838Y-83881331D01*
X165090708Y-84099997D01*
X165090708Y-84100002D01*
X165109838Y-84318668D01*
X165109839Y-84318675D01*
X165111717Y-84325682D01*
X165166653Y-84530703D01*
X165166654Y-84530706D01*
X165166655Y-84530708D01*
X165259419Y-84729642D01*
X165259423Y-84729650D01*
X165385322Y-84909452D01*
X165385327Y-84909458D01*
X165540541Y-85064672D01*
X165540547Y-85064677D01*
X165720349Y-85190576D01*
X165720351Y-85190577D01*
X165720354Y-85190579D01*
X165919297Y-85283347D01*
X166131326Y-85340161D01*
X166287521Y-85353826D01*
X166349998Y-85359292D01*
X166350000Y-85359292D01*
X166350002Y-85359292D01*
X166404668Y-85354509D01*
X166568674Y-85340161D01*
X166780703Y-85283347D01*
X166979646Y-85190579D01*
X167052145Y-85139813D01*
X167118348Y-85117487D01*
X167186115Y-85134496D01*
X167210948Y-85153708D01*
X167959181Y-85901941D01*
X167992666Y-85963264D01*
X167995500Y-85989622D01*
X167995500Y-87452652D01*
X167995499Y-87452670D01*
X167995499Y-87579936D01*
X168019926Y-87671101D01*
X168026472Y-87695530D01*
X168026474Y-87695535D01*
X168086306Y-87799167D01*
X168086311Y-87799173D01*
X168177995Y-87890857D01*
X168178001Y-87890862D01*
X177259181Y-96972042D01*
X177292666Y-97033365D01*
X177295500Y-97059723D01*
X177295500Y-98889357D01*
X177275815Y-98956396D01*
X177269878Y-98964841D01*
X177265644Y-98970358D01*
X177209772Y-99105245D01*
X177209771Y-99105247D01*
X177190715Y-99249998D01*
X177190715Y-99250001D01*
X177209771Y-99394752D01*
X177209773Y-99394757D01*
X177265642Y-99529638D01*
X177265645Y-99529644D01*
X177354525Y-99645473D01*
X177354526Y-99645474D01*
X177470355Y-99734354D01*
X177470359Y-99734356D01*
X177524879Y-99756939D01*
X177579282Y-99800780D01*
X177601347Y-99867074D01*
X177584068Y-99934773D01*
X177532931Y-99982384D01*
X177477426Y-99995500D01*
X167389622Y-99995500D01*
X167322583Y-99975815D01*
X167301941Y-99959181D01*
X166045212Y-98702452D01*
X166011727Y-98641129D01*
X166016711Y-98571437D01*
X166058583Y-98515504D01*
X166124047Y-98491087D01*
X166143693Y-98491242D01*
X166300660Y-98504975D01*
X166349998Y-98509292D01*
X166350000Y-98509292D01*
X166350002Y-98509292D01*
X166404668Y-98504509D01*
X166568674Y-98490161D01*
X166780703Y-98433347D01*
X166979646Y-98340579D01*
X167159457Y-98214674D01*
X167314674Y-98059457D01*
X167440579Y-97879646D01*
X167533347Y-97680703D01*
X167590161Y-97468674D01*
X167609292Y-97250000D01*
X169590708Y-97250000D01*
X169609839Y-97468674D01*
X169666653Y-97680703D01*
X169666654Y-97680706D01*
X169666655Y-97680708D01*
X169759419Y-97879642D01*
X169759423Y-97879650D01*
X169885322Y-98059452D01*
X169885327Y-98059458D01*
X170040541Y-98214672D01*
X170040547Y-98214677D01*
X170220349Y-98340576D01*
X170220351Y-98340577D01*
X170220354Y-98340579D01*
X170419297Y-98433347D01*
X170631326Y-98490161D01*
X170787521Y-98503826D01*
X170849998Y-98509292D01*
X170850000Y-98509292D01*
X170850002Y-98509292D01*
X170904668Y-98504509D01*
X171068674Y-98490161D01*
X171280703Y-98433347D01*
X171479646Y-98340579D01*
X171659457Y-98214674D01*
X171814674Y-98059457D01*
X171940579Y-97879646D01*
X172033347Y-97680703D01*
X172090161Y-97468674D01*
X172109292Y-97250000D01*
X172090161Y-97031326D01*
X172033347Y-96819297D01*
X171940579Y-96620354D01*
X171940577Y-96620351D01*
X171940576Y-96620349D01*
X171814677Y-96440547D01*
X171814672Y-96440541D01*
X171659458Y-96285327D01*
X171659452Y-96285322D01*
X171479650Y-96159423D01*
X171479642Y-96159419D01*
X171280708Y-96066655D01*
X171280706Y-96066654D01*
X171280703Y-96066653D01*
X171129885Y-96026240D01*
X171068675Y-96009839D01*
X171068668Y-96009838D01*
X170850002Y-95990708D01*
X170849998Y-95990708D01*
X170631331Y-96009838D01*
X170631324Y-96009839D01*
X170508902Y-96042642D01*
X170419297Y-96066653D01*
X170419295Y-96066653D01*
X170419291Y-96066655D01*
X170220357Y-96159419D01*
X170220349Y-96159423D01*
X170040547Y-96285322D01*
X170040541Y-96285327D01*
X169885327Y-96440541D01*
X169885322Y-96440547D01*
X169759423Y-96620349D01*
X169759419Y-96620357D01*
X169666655Y-96819291D01*
X169666653Y-96819295D01*
X169666653Y-96819297D01*
X169647728Y-96889926D01*
X169609839Y-97031324D01*
X169609838Y-97031331D01*
X169606034Y-97074814D01*
X169590708Y-97250000D01*
X167609292Y-97250000D01*
X167590161Y-97031326D01*
X167533347Y-96819297D01*
X167440579Y-96620354D01*
X167440577Y-96620351D01*
X167440576Y-96620349D01*
X167314677Y-96440547D01*
X167314672Y-96440541D01*
X167159458Y-96285327D01*
X167159452Y-96285322D01*
X166979650Y-96159423D01*
X166979642Y-96159419D01*
X166780708Y-96066655D01*
X166780706Y-96066654D01*
X166780703Y-96066653D01*
X166629885Y-96026240D01*
X166568675Y-96009839D01*
X166568668Y-96009838D01*
X166350002Y-95990708D01*
X166349998Y-95990708D01*
X166131331Y-96009838D01*
X166131324Y-96009839D01*
X166008902Y-96042642D01*
X165919297Y-96066653D01*
X165919295Y-96066653D01*
X165919291Y-96066655D01*
X165720357Y-96159419D01*
X165720349Y-96159423D01*
X165540547Y-96285322D01*
X165540541Y-96285327D01*
X165385327Y-96440541D01*
X165385322Y-96440547D01*
X165259423Y-96620349D01*
X165259419Y-96620357D01*
X165166655Y-96819291D01*
X165166653Y-96819295D01*
X165166653Y-96819297D01*
X165147728Y-96889926D01*
X165109839Y-97031324D01*
X165109838Y-97031331D01*
X165090708Y-97249997D01*
X165090708Y-97250002D01*
X165108756Y-97456299D01*
X165094989Y-97524799D01*
X165046374Y-97574982D01*
X164978345Y-97590915D01*
X164912502Y-97567539D01*
X164897547Y-97554787D01*
X161242762Y-93900002D01*
X165090708Y-93900002D01*
X165107811Y-94095500D01*
X165109839Y-94118674D01*
X165166653Y-94330703D01*
X165166654Y-94330706D01*
X165166655Y-94330708D01*
X165259419Y-94529642D01*
X165259423Y-94529650D01*
X165385322Y-94709452D01*
X165385327Y-94709458D01*
X165540541Y-94864672D01*
X165540547Y-94864677D01*
X165720349Y-94990576D01*
X165720351Y-94990577D01*
X165720354Y-94990579D01*
X165919297Y-95083347D01*
X166131326Y-95140161D01*
X166287521Y-95153826D01*
X166349998Y-95159292D01*
X166350000Y-95159292D01*
X166350002Y-95159292D01*
X166404668Y-95154509D01*
X166568674Y-95140161D01*
X166780703Y-95083347D01*
X166979646Y-94990579D01*
X167159457Y-94864674D01*
X167314674Y-94709457D01*
X167440579Y-94529646D01*
X167533347Y-94330703D01*
X167590161Y-94118674D01*
X167606067Y-93936868D01*
X167609292Y-93900002D01*
X169590708Y-93900002D01*
X169607811Y-94095500D01*
X169609839Y-94118674D01*
X169666653Y-94330703D01*
X169666654Y-94330706D01*
X169666655Y-94330708D01*
X169759419Y-94529642D01*
X169759423Y-94529650D01*
X169885322Y-94709452D01*
X169885327Y-94709458D01*
X170040541Y-94864672D01*
X170040547Y-94864677D01*
X170220349Y-94990576D01*
X170220351Y-94990577D01*
X170220354Y-94990579D01*
X170419297Y-95083347D01*
X170631326Y-95140161D01*
X170787521Y-95153826D01*
X170849998Y-95159292D01*
X170850000Y-95159292D01*
X170850002Y-95159292D01*
X170904668Y-95154509D01*
X171068674Y-95140161D01*
X171280703Y-95083347D01*
X171479646Y-94990579D01*
X171659457Y-94864674D01*
X171814674Y-94709457D01*
X171940579Y-94529646D01*
X172033347Y-94330703D01*
X172090161Y-94118674D01*
X172106067Y-93936868D01*
X172109292Y-93900002D01*
X172109292Y-93899997D01*
X172097498Y-93765187D01*
X172090161Y-93681326D01*
X172033347Y-93469297D01*
X171940579Y-93270354D01*
X171940577Y-93270351D01*
X171940576Y-93270349D01*
X171814677Y-93090547D01*
X171814672Y-93090541D01*
X171659458Y-92935327D01*
X171659452Y-92935322D01*
X171479650Y-92809423D01*
X171479642Y-92809419D01*
X171280708Y-92716655D01*
X171280706Y-92716654D01*
X171280703Y-92716653D01*
X171129655Y-92676179D01*
X171068675Y-92659839D01*
X171068668Y-92659838D01*
X170850002Y-92640708D01*
X170849998Y-92640708D01*
X170631331Y-92659838D01*
X170631324Y-92659839D01*
X170508902Y-92692642D01*
X170419297Y-92716653D01*
X170419295Y-92716653D01*
X170419291Y-92716655D01*
X170220357Y-92809419D01*
X170220349Y-92809423D01*
X170040547Y-92935322D01*
X170040541Y-92935327D01*
X169885327Y-93090541D01*
X169885322Y-93090547D01*
X169759423Y-93270349D01*
X169759419Y-93270357D01*
X169666655Y-93469291D01*
X169609839Y-93681324D01*
X169609838Y-93681331D01*
X169590708Y-93899997D01*
X169590708Y-93900002D01*
X167609292Y-93900002D01*
X167609292Y-93899997D01*
X167597498Y-93765187D01*
X167590161Y-93681326D01*
X167533347Y-93469297D01*
X167440579Y-93270354D01*
X167440577Y-93270351D01*
X167440576Y-93270349D01*
X167314677Y-93090547D01*
X167314672Y-93090541D01*
X167159458Y-92935327D01*
X167159452Y-92935322D01*
X166979650Y-92809423D01*
X166979642Y-92809419D01*
X166780708Y-92716655D01*
X166780706Y-92716654D01*
X166780703Y-92716653D01*
X166629655Y-92676179D01*
X166568675Y-92659839D01*
X166568668Y-92659838D01*
X166350002Y-92640708D01*
X166349998Y-92640708D01*
X166131331Y-92659838D01*
X166131324Y-92659839D01*
X166008902Y-92692642D01*
X165919297Y-92716653D01*
X165919295Y-92716653D01*
X165919291Y-92716655D01*
X165720357Y-92809419D01*
X165720349Y-92809423D01*
X165540547Y-92935322D01*
X165540541Y-92935327D01*
X165385327Y-93090541D01*
X165385322Y-93090547D01*
X165259423Y-93270349D01*
X165259419Y-93270357D01*
X165166655Y-93469291D01*
X165109839Y-93681324D01*
X165109838Y-93681331D01*
X165090708Y-93899997D01*
X165090708Y-93900002D01*
X161242762Y-93900002D01*
X154742762Y-87400002D01*
X156690708Y-87400002D01*
X156703830Y-87549999D01*
X156709839Y-87618674D01*
X156766653Y-87830703D01*
X156766654Y-87830706D01*
X156766655Y-87830708D01*
X156859419Y-88029642D01*
X156859423Y-88029650D01*
X156985322Y-88209452D01*
X156985327Y-88209458D01*
X157140541Y-88364672D01*
X157140547Y-88364677D01*
X157320349Y-88490576D01*
X157320351Y-88490577D01*
X157320354Y-88490579D01*
X157519297Y-88583347D01*
X157731326Y-88640161D01*
X157887521Y-88653826D01*
X157949998Y-88659292D01*
X157950000Y-88659292D01*
X157950002Y-88659292D01*
X158004668Y-88654509D01*
X158168674Y-88640161D01*
X158380703Y-88583347D01*
X158579646Y-88490579D01*
X158759457Y-88364674D01*
X158914674Y-88209457D01*
X159040579Y-88029646D01*
X159133347Y-87830703D01*
X159190161Y-87618674D01*
X159209292Y-87400002D01*
X165090708Y-87400002D01*
X165103830Y-87549999D01*
X165109839Y-87618674D01*
X165166653Y-87830703D01*
X165166654Y-87830706D01*
X165166655Y-87830708D01*
X165259419Y-88029642D01*
X165259423Y-88029650D01*
X165385322Y-88209452D01*
X165385327Y-88209458D01*
X165540541Y-88364672D01*
X165540547Y-88364677D01*
X165720349Y-88490576D01*
X165720351Y-88490577D01*
X165720354Y-88490579D01*
X165919297Y-88583347D01*
X166131326Y-88640161D01*
X166287521Y-88653826D01*
X166349998Y-88659292D01*
X166350000Y-88659292D01*
X166350002Y-88659292D01*
X166404668Y-88654509D01*
X166568674Y-88640161D01*
X166780703Y-88583347D01*
X166979646Y-88490579D01*
X167159457Y-88364674D01*
X167314674Y-88209457D01*
X167440579Y-88029646D01*
X167533347Y-87830703D01*
X167590161Y-87618674D01*
X167609292Y-87400000D01*
X167609283Y-87399901D01*
X167602117Y-87317997D01*
X167590161Y-87181326D01*
X167533347Y-86969297D01*
X167440579Y-86770354D01*
X167440577Y-86770351D01*
X167440576Y-86770349D01*
X167314677Y-86590547D01*
X167314672Y-86590541D01*
X167159458Y-86435327D01*
X167159452Y-86435322D01*
X166979650Y-86309423D01*
X166979642Y-86309419D01*
X166780708Y-86216655D01*
X166780706Y-86216654D01*
X166780703Y-86216653D01*
X166629885Y-86176240D01*
X166568675Y-86159839D01*
X166568668Y-86159838D01*
X166350002Y-86140708D01*
X166349998Y-86140708D01*
X166131331Y-86159838D01*
X166131324Y-86159839D01*
X166008902Y-86192642D01*
X165919297Y-86216653D01*
X165919295Y-86216653D01*
X165919291Y-86216655D01*
X165720357Y-86309419D01*
X165720349Y-86309423D01*
X165540547Y-86435322D01*
X165540541Y-86435327D01*
X165385327Y-86590541D01*
X165385322Y-86590547D01*
X165259423Y-86770349D01*
X165259419Y-86770357D01*
X165166655Y-86969291D01*
X165109839Y-87181324D01*
X165109838Y-87181331D01*
X165090708Y-87399997D01*
X165090708Y-87400002D01*
X159209292Y-87400002D01*
X159209292Y-87400000D01*
X159209283Y-87399901D01*
X159202117Y-87317997D01*
X159190161Y-87181326D01*
X159133347Y-86969297D01*
X159040579Y-86770354D01*
X159040577Y-86770351D01*
X159040576Y-86770349D01*
X158914677Y-86590547D01*
X158914672Y-86590541D01*
X158759458Y-86435327D01*
X158759452Y-86435322D01*
X158579650Y-86309423D01*
X158579642Y-86309419D01*
X158380708Y-86216655D01*
X158380706Y-86216654D01*
X158380703Y-86216653D01*
X158229885Y-86176240D01*
X158168675Y-86159839D01*
X158168668Y-86159838D01*
X157950002Y-86140708D01*
X157949998Y-86140708D01*
X157731331Y-86159838D01*
X157731324Y-86159839D01*
X157608902Y-86192642D01*
X157519297Y-86216653D01*
X157519295Y-86216653D01*
X157519291Y-86216655D01*
X157320357Y-86309419D01*
X157320349Y-86309423D01*
X157140547Y-86435322D01*
X157140541Y-86435327D01*
X156985327Y-86590541D01*
X156985322Y-86590547D01*
X156859423Y-86770349D01*
X156859419Y-86770357D01*
X156766655Y-86969291D01*
X156709839Y-87181324D01*
X156709838Y-87181331D01*
X156690708Y-87399997D01*
X156690708Y-87400002D01*
X154742762Y-87400002D01*
X154737996Y-87395236D01*
X154704511Y-87333913D01*
X154702150Y-87318371D01*
X154690161Y-87181326D01*
X154633347Y-86969297D01*
X154540579Y-86770354D01*
X154540577Y-86770351D01*
X154540576Y-86770349D01*
X154414677Y-86590547D01*
X154414672Y-86590541D01*
X154259458Y-86435327D01*
X154259452Y-86435322D01*
X154079650Y-86309423D01*
X154079642Y-86309419D01*
X153880708Y-86216655D01*
X153880706Y-86216654D01*
X153880703Y-86216653D01*
X153729885Y-86176240D01*
X153668675Y-86159839D01*
X153668668Y-86159838D01*
X153450002Y-86140708D01*
X153449998Y-86140708D01*
X153231331Y-86159838D01*
X153231324Y-86159839D01*
X153108902Y-86192642D01*
X153019297Y-86216653D01*
X153019295Y-86216653D01*
X153019291Y-86216655D01*
X152820357Y-86309419D01*
X152820349Y-86309423D01*
X152640547Y-86435322D01*
X152640541Y-86435327D01*
X152485327Y-86590541D01*
X152485322Y-86590547D01*
X152359423Y-86770349D01*
X152359419Y-86770357D01*
X152266655Y-86969291D01*
X152209839Y-87181324D01*
X152209838Y-87181331D01*
X152190708Y-87399997D01*
X152190708Y-87400002D01*
X152203830Y-87549999D01*
X152209839Y-87618674D01*
X152266653Y-87830703D01*
X152266654Y-87830706D01*
X152266655Y-87830708D01*
X152359419Y-88029642D01*
X152359423Y-88029650D01*
X152485322Y-88209452D01*
X152485327Y-88209458D01*
X152640541Y-88364672D01*
X152640547Y-88364677D01*
X152820349Y-88490576D01*
X152820351Y-88490577D01*
X152820354Y-88490579D01*
X153019297Y-88583347D01*
X153231326Y-88640161D01*
X153387521Y-88653826D01*
X153449998Y-88659292D01*
X153450000Y-88659292D01*
X153450002Y-88659292D01*
X153504668Y-88654509D01*
X153668674Y-88640161D01*
X153880703Y-88583347D01*
X154079646Y-88490579D01*
X154259457Y-88364674D01*
X154259473Y-88364657D01*
X154260736Y-88363599D01*
X154261415Y-88363301D01*
X154263891Y-88361568D01*
X154264239Y-88362065D01*
X154324740Y-88335577D01*
X154393734Y-88346607D01*
X154428136Y-88370896D01*
X158620173Y-92562933D01*
X158653658Y-92624256D01*
X158648674Y-92693948D01*
X158606802Y-92749881D01*
X158541338Y-92774298D01*
X158480088Y-92762996D01*
X158380708Y-92716655D01*
X158380706Y-92716654D01*
X158380703Y-92716653D01*
X158229655Y-92676179D01*
X158168675Y-92659839D01*
X158168668Y-92659838D01*
X157950002Y-92640708D01*
X157949998Y-92640708D01*
X157731331Y-92659838D01*
X157731324Y-92659839D01*
X157608902Y-92692642D01*
X157519297Y-92716653D01*
X157519295Y-92716653D01*
X157519291Y-92716655D01*
X157320357Y-92809419D01*
X157320349Y-92809423D01*
X157140547Y-92935322D01*
X157140541Y-92935327D01*
X156985327Y-93090541D01*
X156985322Y-93090547D01*
X156859423Y-93270349D01*
X156859419Y-93270357D01*
X156766655Y-93469291D01*
X156709839Y-93681324D01*
X156709838Y-93681331D01*
X156690708Y-93899997D01*
X156690708Y-93900002D01*
X156707811Y-94095500D01*
X156709839Y-94118674D01*
X156766653Y-94330703D01*
X156766654Y-94330706D01*
X156766655Y-94330708D01*
X156859419Y-94529642D01*
X156859423Y-94529650D01*
X156985322Y-94709452D01*
X156985327Y-94709458D01*
X157140541Y-94864672D01*
X157140547Y-94864677D01*
X157320349Y-94990576D01*
X157320351Y-94990577D01*
X157320354Y-94990579D01*
X157519297Y-95083347D01*
X157731326Y-95140161D01*
X157887521Y-95153826D01*
X157949998Y-95159292D01*
X157950000Y-95159292D01*
X157950002Y-95159292D01*
X158004668Y-95154509D01*
X158168674Y-95140161D01*
X158380703Y-95083347D01*
X158579646Y-94990579D01*
X158759457Y-94864674D01*
X158914674Y-94709457D01*
X159040579Y-94529646D01*
X159133347Y-94330703D01*
X159190161Y-94118674D01*
X159206067Y-93936868D01*
X159209292Y-93900002D01*
X159209292Y-93899997D01*
X159197498Y-93765187D01*
X159190161Y-93681326D01*
X159133347Y-93469297D01*
X159087002Y-93369910D01*
X159076511Y-93300834D01*
X159105031Y-93237050D01*
X159163508Y-93198811D01*
X159233375Y-93198257D01*
X159287066Y-93229826D01*
X166451719Y-100394479D01*
X166485204Y-100455802D01*
X166480220Y-100525494D01*
X166438348Y-100581427D01*
X166372884Y-100605844D01*
X166364038Y-100606160D01*
X157500282Y-100606160D01*
X157433243Y-100586475D01*
X157412601Y-100569841D01*
X154659797Y-97817037D01*
X154626312Y-97755714D01*
X154631296Y-97686022D01*
X154632170Y-97683935D01*
X154633345Y-97680707D01*
X154633344Y-97680707D01*
X154633347Y-97680703D01*
X154690161Y-97468674D01*
X154709292Y-97250000D01*
X156690708Y-97250000D01*
X156709839Y-97468674D01*
X156766653Y-97680703D01*
X156766654Y-97680706D01*
X156766655Y-97680708D01*
X156859419Y-97879642D01*
X156859423Y-97879650D01*
X156985322Y-98059452D01*
X156985327Y-98059458D01*
X157140541Y-98214672D01*
X157140547Y-98214677D01*
X157320349Y-98340576D01*
X157320351Y-98340577D01*
X157320354Y-98340579D01*
X157519297Y-98433347D01*
X157731326Y-98490161D01*
X157887521Y-98503826D01*
X157949998Y-98509292D01*
X157950000Y-98509292D01*
X157950002Y-98509292D01*
X158004668Y-98504509D01*
X158168674Y-98490161D01*
X158380703Y-98433347D01*
X158579646Y-98340579D01*
X158759457Y-98214674D01*
X158914674Y-98059457D01*
X159040579Y-97879646D01*
X159133347Y-97680703D01*
X159190161Y-97468674D01*
X159209292Y-97250000D01*
X159190161Y-97031326D01*
X159133347Y-96819297D01*
X159040579Y-96620354D01*
X159040577Y-96620351D01*
X159040576Y-96620349D01*
X158914677Y-96440547D01*
X158914672Y-96440541D01*
X158759458Y-96285327D01*
X158759452Y-96285322D01*
X158579650Y-96159423D01*
X158579642Y-96159419D01*
X158380708Y-96066655D01*
X158380706Y-96066654D01*
X158380703Y-96066653D01*
X158229885Y-96026240D01*
X158168675Y-96009839D01*
X158168668Y-96009838D01*
X157950002Y-95990708D01*
X157949998Y-95990708D01*
X157731331Y-96009838D01*
X157731324Y-96009839D01*
X157608902Y-96042642D01*
X157519297Y-96066653D01*
X157519295Y-96066653D01*
X157519291Y-96066655D01*
X157320357Y-96159419D01*
X157320349Y-96159423D01*
X157140547Y-96285322D01*
X157140541Y-96285327D01*
X156985327Y-96440541D01*
X156985322Y-96440547D01*
X156859423Y-96620349D01*
X156859419Y-96620357D01*
X156766655Y-96819291D01*
X156766653Y-96819295D01*
X156766653Y-96819297D01*
X156747728Y-96889926D01*
X156709839Y-97031324D01*
X156709838Y-97031331D01*
X156706034Y-97074814D01*
X156690708Y-97250000D01*
X154709292Y-97250000D01*
X154690161Y-97031326D01*
X154633347Y-96819297D01*
X154540579Y-96620354D01*
X154540577Y-96620351D01*
X154540576Y-96620349D01*
X154414677Y-96440547D01*
X154414672Y-96440541D01*
X154259458Y-96285327D01*
X154259452Y-96285322D01*
X154079650Y-96159423D01*
X154079642Y-96159419D01*
X153880708Y-96066655D01*
X153880706Y-96066654D01*
X153880703Y-96066653D01*
X153729885Y-96026240D01*
X153668675Y-96009839D01*
X153668668Y-96009838D01*
X153450002Y-95990708D01*
X153449998Y-95990708D01*
X153231331Y-96009838D01*
X153231324Y-96009839D01*
X153108902Y-96042642D01*
X153019297Y-96066653D01*
X153019295Y-96066653D01*
X153019291Y-96066655D01*
X152820357Y-96159419D01*
X152820349Y-96159423D01*
X152640547Y-96285322D01*
X152640541Y-96285327D01*
X152485327Y-96440541D01*
X152485322Y-96440547D01*
X152359423Y-96620349D01*
X152359419Y-96620357D01*
X152266655Y-96819291D01*
X152266653Y-96819295D01*
X152266653Y-96819297D01*
X152247728Y-96889926D01*
X152209839Y-97031324D01*
X152209838Y-97031331D01*
X152206034Y-97074814D01*
X152190708Y-97250000D01*
X152209839Y-97468674D01*
X152266653Y-97680703D01*
X152266654Y-97680706D01*
X152266655Y-97680708D01*
X152359419Y-97879642D01*
X152359423Y-97879650D01*
X152485322Y-98059452D01*
X152485327Y-98059458D01*
X152640541Y-98214672D01*
X152640547Y-98214677D01*
X152820349Y-98340576D01*
X152820351Y-98340577D01*
X152820354Y-98340579D01*
X153019297Y-98433347D01*
X153231326Y-98490161D01*
X153387521Y-98503826D01*
X153449998Y-98509292D01*
X153450000Y-98509292D01*
X153450002Y-98509292D01*
X153504668Y-98504509D01*
X153668674Y-98490161D01*
X153880703Y-98433347D01*
X153880708Y-98433344D01*
X153885791Y-98431495D01*
X153886572Y-98433641D01*
X153945993Y-98424599D01*
X154009785Y-98453100D01*
X154017037Y-98459797D01*
X156849888Y-101292648D01*
X156883373Y-101353971D01*
X156878389Y-101423663D01*
X156849888Y-101468010D01*
X155320932Y-102996967D01*
X155236311Y-103081587D01*
X155236307Y-103081593D01*
X155176472Y-103185228D01*
X155176473Y-103185228D01*
X155176473Y-103185229D01*
X155176473Y-103185230D01*
X155149912Y-103284357D01*
X155145499Y-103300825D01*
X155145499Y-103430485D01*
X155145500Y-103430498D01*
X155145500Y-104660377D01*
X155125815Y-104727416D01*
X155109181Y-104748058D01*
X154017036Y-105840202D01*
X153955713Y-105873687D01*
X153886021Y-105868703D01*
X153883938Y-105867830D01*
X153880706Y-105866654D01*
X153880703Y-105866653D01*
X153781988Y-105840202D01*
X153668675Y-105809839D01*
X153668668Y-105809838D01*
X153450002Y-105790708D01*
X153449998Y-105790708D01*
X153231331Y-105809838D01*
X153231324Y-105809839D01*
X153118012Y-105840202D01*
X153019297Y-105866653D01*
X153019295Y-105866653D01*
X153019291Y-105866655D01*
X152820357Y-105959419D01*
X152820349Y-105959423D01*
X152640547Y-106085322D01*
X152640541Y-106085327D01*
X152485327Y-106240541D01*
X152485322Y-106240547D01*
X152359423Y-106420349D01*
X152359419Y-106420357D01*
X152266655Y-106619291D01*
X152266653Y-106619295D01*
X152266653Y-106619297D01*
X152259260Y-106646888D01*
X152209839Y-106831324D01*
X152209838Y-106831331D01*
X152190708Y-107049997D01*
X152190708Y-107050002D01*
X146756919Y-107050002D01*
X146572347Y-107015500D01*
X146367653Y-107015500D01*
X146166444Y-107053112D01*
X146166441Y-107053112D01*
X146166441Y-107053113D01*
X145975575Y-107127054D01*
X145975569Y-107127057D01*
X145801539Y-107234812D01*
X145801537Y-107234814D01*
X145650269Y-107372712D01*
X145526912Y-107536064D01*
X145435673Y-107719295D01*
X145435672Y-107719299D01*
X145395794Y-107859458D01*
X145379654Y-107916183D01*
X145360768Y-108119999D01*
X145360768Y-108120000D01*
X143600500Y-108120000D01*
X143600500Y-105580000D01*
X145360768Y-105580000D01*
X145379654Y-105783816D01*
X145379654Y-105783818D01*
X145379655Y-105783821D01*
X145429618Y-105959423D01*
X145435673Y-105980704D01*
X145526912Y-106163935D01*
X145650269Y-106327287D01*
X145801537Y-106465185D01*
X145801539Y-106465187D01*
X145975569Y-106572942D01*
X145975575Y-106572945D01*
X146016010Y-106588609D01*
X146166444Y-106646888D01*
X146367653Y-106684500D01*
X146367656Y-106684500D01*
X146572344Y-106684500D01*
X146572347Y-106684500D01*
X146773556Y-106646888D01*
X146964427Y-106572944D01*
X147138462Y-106465186D01*
X147289732Y-106327285D01*
X147413088Y-106163935D01*
X147504328Y-105980701D01*
X147560345Y-105783821D01*
X147579232Y-105580000D01*
X147560345Y-105376179D01*
X147504328Y-105179299D01*
X147413088Y-104996065D01*
X147353904Y-104917693D01*
X147289730Y-104832712D01*
X147138462Y-104694814D01*
X147138460Y-104694812D01*
X146964430Y-104587057D01*
X146964424Y-104587054D01*
X146800440Y-104523527D01*
X146773556Y-104513112D01*
X146572347Y-104475500D01*
X146367653Y-104475500D01*
X146166444Y-104513112D01*
X146166441Y-104513112D01*
X146166441Y-104513113D01*
X145975575Y-104587054D01*
X145975569Y-104587057D01*
X145801539Y-104694812D01*
X145801537Y-104694814D01*
X145650269Y-104832712D01*
X145526912Y-104996064D01*
X145435673Y-105179295D01*
X145379654Y-105376183D01*
X145360768Y-105579999D01*
X145360768Y-105580000D01*
X143600500Y-105580000D01*
X143600500Y-103040000D01*
X145360768Y-103040000D01*
X145379654Y-103243816D01*
X145379654Y-103243818D01*
X145379655Y-103243821D01*
X145413707Y-103363502D01*
X145435673Y-103440704D01*
X145526912Y-103623935D01*
X145650269Y-103787287D01*
X145801537Y-103925185D01*
X145801539Y-103925187D01*
X145975569Y-104032942D01*
X145975575Y-104032945D01*
X146016010Y-104048609D01*
X146166444Y-104106888D01*
X146367653Y-104144500D01*
X146367656Y-104144500D01*
X146572344Y-104144500D01*
X146572347Y-104144500D01*
X146773556Y-104106888D01*
X146964427Y-104032944D01*
X147138462Y-103925186D01*
X147289732Y-103787285D01*
X147317888Y-103750000D01*
X152190708Y-103750000D01*
X152209839Y-103968674D01*
X152266653Y-104180703D01*
X152266654Y-104180706D01*
X152266655Y-104180708D01*
X152359419Y-104379642D01*
X152359423Y-104379650D01*
X152485322Y-104559452D01*
X152485327Y-104559458D01*
X152640541Y-104714672D01*
X152640547Y-104714677D01*
X152820349Y-104840576D01*
X152820351Y-104840577D01*
X152820354Y-104840579D01*
X153019297Y-104933347D01*
X153231326Y-104990161D01*
X153387521Y-105003826D01*
X153449998Y-105009292D01*
X153450000Y-105009292D01*
X153450002Y-105009292D01*
X153504668Y-105004509D01*
X153668674Y-104990161D01*
X153880703Y-104933347D01*
X154079646Y-104840579D01*
X154259457Y-104714674D01*
X154414674Y-104559457D01*
X154540579Y-104379646D01*
X154633347Y-104180703D01*
X154690161Y-103968674D01*
X154709292Y-103750000D01*
X154690161Y-103531326D01*
X154633347Y-103319297D01*
X154540579Y-103120354D01*
X154540577Y-103120351D01*
X154540576Y-103120349D01*
X154414677Y-102940547D01*
X154414672Y-102940541D01*
X154259458Y-102785327D01*
X154259452Y-102785322D01*
X154079650Y-102659423D01*
X154079642Y-102659419D01*
X153880708Y-102566655D01*
X153880706Y-102566654D01*
X153880703Y-102566653D01*
X153707931Y-102520358D01*
X153668675Y-102509839D01*
X153668668Y-102509838D01*
X153450002Y-102490708D01*
X153449998Y-102490708D01*
X153231331Y-102509838D01*
X153231324Y-102509839D01*
X153108902Y-102542642D01*
X153019297Y-102566653D01*
X153019295Y-102566653D01*
X153019291Y-102566655D01*
X152820357Y-102659419D01*
X152820349Y-102659423D01*
X152640547Y-102785322D01*
X152640541Y-102785327D01*
X152485327Y-102940541D01*
X152485322Y-102940547D01*
X152359423Y-103120349D01*
X152359419Y-103120357D01*
X152266655Y-103319291D01*
X152266653Y-103319295D01*
X152266653Y-103319297D01*
X152254808Y-103363502D01*
X152209839Y-103531324D01*
X152209838Y-103531331D01*
X152202014Y-103620767D01*
X152190708Y-103750000D01*
X147317888Y-103750000D01*
X147413088Y-103623935D01*
X147504328Y-103440701D01*
X147560345Y-103243821D01*
X147579232Y-103040000D01*
X147560345Y-102836179D01*
X147504328Y-102639299D01*
X147413088Y-102456065D01*
X147289732Y-102292715D01*
X147289730Y-102292712D01*
X147138462Y-102154814D01*
X147138460Y-102154812D01*
X146964430Y-102047057D01*
X146964424Y-102047054D01*
X146779542Y-101975431D01*
X146773556Y-101973112D01*
X146572347Y-101935500D01*
X146367653Y-101935500D01*
X146166444Y-101973112D01*
X146166441Y-101973112D01*
X146166441Y-101973113D01*
X145975575Y-102047054D01*
X145975569Y-102047057D01*
X145801539Y-102154812D01*
X145801537Y-102154814D01*
X145650269Y-102292712D01*
X145526912Y-102456064D01*
X145435673Y-102639295D01*
X145435672Y-102639299D01*
X145380327Y-102833819D01*
X145379654Y-102836183D01*
X145360768Y-103039999D01*
X145360768Y-103040000D01*
X143600500Y-103040000D01*
X143600500Y-100500000D01*
X145360768Y-100500000D01*
X145379654Y-100703816D01*
X145379654Y-100703818D01*
X145379655Y-100703821D01*
X145413707Y-100823501D01*
X145435673Y-100900704D01*
X145526912Y-101083935D01*
X145650269Y-101247287D01*
X145801537Y-101385185D01*
X145801539Y-101385187D01*
X145975569Y-101492942D01*
X145975575Y-101492945D01*
X146016010Y-101508609D01*
X146166444Y-101566888D01*
X146367653Y-101604500D01*
X146367656Y-101604500D01*
X146572344Y-101604500D01*
X146572347Y-101604500D01*
X146773556Y-101566888D01*
X146964427Y-101492944D01*
X147138462Y-101385186D01*
X147289732Y-101247285D01*
X147413088Y-101083935D01*
X147504328Y-100900701D01*
X147560345Y-100703821D01*
X147579232Y-100500000D01*
X147560345Y-100296179D01*
X147504328Y-100099299D01*
X147413088Y-99916065D01*
X147318113Y-99790297D01*
X147289730Y-99752712D01*
X147138462Y-99614814D01*
X147138460Y-99614812D01*
X146964430Y-99507057D01*
X146964424Y-99507054D01*
X146813993Y-99448777D01*
X146773556Y-99433112D01*
X146572347Y-99395500D01*
X146367653Y-99395500D01*
X146166444Y-99433112D01*
X146166441Y-99433112D01*
X146166441Y-99433113D01*
X145975575Y-99507054D01*
X145975569Y-99507057D01*
X145801539Y-99614812D01*
X145801537Y-99614814D01*
X145650269Y-99752712D01*
X145526912Y-99916064D01*
X145435673Y-100099295D01*
X145379654Y-100296183D01*
X145360768Y-100499999D01*
X145360768Y-100500000D01*
X143600500Y-100500000D01*
X143600500Y-97960000D01*
X145360768Y-97960000D01*
X145379654Y-98163816D01*
X145379654Y-98163818D01*
X145379655Y-98163821D01*
X145417351Y-98296309D01*
X145435673Y-98360704D01*
X145526912Y-98543935D01*
X145650269Y-98707287D01*
X145801537Y-98845185D01*
X145801539Y-98845187D01*
X145975569Y-98952942D01*
X145975575Y-98952945D01*
X146016010Y-98968609D01*
X146166444Y-99026888D01*
X146367653Y-99064500D01*
X146367656Y-99064500D01*
X146572344Y-99064500D01*
X146572347Y-99064500D01*
X146773556Y-99026888D01*
X146964427Y-98952944D01*
X147138462Y-98845186D01*
X147275373Y-98720375D01*
X147289730Y-98707287D01*
X147289732Y-98707285D01*
X147413088Y-98543935D01*
X147504328Y-98360701D01*
X147560345Y-98163821D01*
X147579232Y-97960000D01*
X147560345Y-97756179D01*
X147504328Y-97559299D01*
X147413088Y-97376065D01*
X147289732Y-97212715D01*
X147289730Y-97212712D01*
X147138462Y-97074814D01*
X147138460Y-97074812D01*
X146964430Y-96967057D01*
X146964424Y-96967054D01*
X146813993Y-96908777D01*
X146773556Y-96893112D01*
X146572347Y-96855500D01*
X146367653Y-96855500D01*
X146166444Y-96893112D01*
X146166441Y-96893112D01*
X146166441Y-96893113D01*
X145975575Y-96967054D01*
X145975569Y-96967057D01*
X145801539Y-97074812D01*
X145801537Y-97074814D01*
X145650269Y-97212712D01*
X145526912Y-97376064D01*
X145435673Y-97559295D01*
X145379654Y-97756183D01*
X145360768Y-97959999D01*
X145360768Y-97960000D01*
X143600500Y-97960000D01*
X143600500Y-90590000D01*
X145139364Y-90590000D01*
X145196567Y-90803486D01*
X145196570Y-90803492D01*
X145296399Y-91017578D01*
X145431894Y-91211082D01*
X145598917Y-91378105D01*
X145792421Y-91513600D01*
X146006507Y-91613429D01*
X146006516Y-91613433D01*
X146039037Y-91622147D01*
X146098698Y-91658512D01*
X146129227Y-91721358D01*
X146120933Y-91790734D01*
X146076448Y-91844612D01*
X146051739Y-91857548D01*
X145975581Y-91887052D01*
X145975569Y-91887057D01*
X145801539Y-91994812D01*
X145801537Y-91994814D01*
X145650269Y-92132712D01*
X145526912Y-92296064D01*
X145435673Y-92479295D01*
X145435672Y-92479299D01*
X145384305Y-92659838D01*
X145379654Y-92676183D01*
X145360768Y-92879999D01*
X145360768Y-92880000D01*
X145379654Y-93083816D01*
X145379654Y-93083818D01*
X145379655Y-93083821D01*
X145413707Y-93203501D01*
X145435673Y-93280704D01*
X145526912Y-93463935D01*
X145650269Y-93627287D01*
X145801537Y-93765185D01*
X145801539Y-93765187D01*
X145975569Y-93872942D01*
X145975575Y-93872945D01*
X146016010Y-93888609D01*
X146166444Y-93946888D01*
X146367653Y-93984500D01*
X146367656Y-93984500D01*
X146572344Y-93984500D01*
X146572347Y-93984500D01*
X146773556Y-93946888D01*
X146894582Y-93900002D01*
X152190708Y-93900002D01*
X152207811Y-94095500D01*
X152209839Y-94118674D01*
X152266653Y-94330703D01*
X152266654Y-94330706D01*
X152266655Y-94330708D01*
X152359419Y-94529642D01*
X152359423Y-94529650D01*
X152485322Y-94709452D01*
X152485327Y-94709458D01*
X152640541Y-94864672D01*
X152640547Y-94864677D01*
X152820349Y-94990576D01*
X152820351Y-94990577D01*
X152820354Y-94990579D01*
X153019297Y-95083347D01*
X153231326Y-95140161D01*
X153387521Y-95153826D01*
X153449998Y-95159292D01*
X153450000Y-95159292D01*
X153450002Y-95159292D01*
X153504668Y-95154509D01*
X153668674Y-95140161D01*
X153880703Y-95083347D01*
X154079646Y-94990579D01*
X154259457Y-94864674D01*
X154414674Y-94709457D01*
X154540579Y-94529646D01*
X154633347Y-94330703D01*
X154690161Y-94118674D01*
X154706067Y-93936868D01*
X154709292Y-93900002D01*
X154709292Y-93899997D01*
X154697498Y-93765187D01*
X154690161Y-93681326D01*
X154633347Y-93469297D01*
X154540579Y-93270354D01*
X154540577Y-93270351D01*
X154540576Y-93270349D01*
X154414677Y-93090547D01*
X154414672Y-93090541D01*
X154259458Y-92935327D01*
X154259452Y-92935322D01*
X154079650Y-92809423D01*
X154079642Y-92809419D01*
X153880708Y-92716655D01*
X153880706Y-92716654D01*
X153880703Y-92716653D01*
X153729655Y-92676179D01*
X153668675Y-92659839D01*
X153668668Y-92659838D01*
X153450002Y-92640708D01*
X153449998Y-92640708D01*
X153231331Y-92659838D01*
X153231324Y-92659839D01*
X153108902Y-92692642D01*
X153019297Y-92716653D01*
X153019295Y-92716653D01*
X153019291Y-92716655D01*
X152820357Y-92809419D01*
X152820349Y-92809423D01*
X152640547Y-92935322D01*
X152640541Y-92935327D01*
X152485327Y-93090541D01*
X152485322Y-93090547D01*
X152359423Y-93270349D01*
X152359419Y-93270357D01*
X152266655Y-93469291D01*
X152209839Y-93681324D01*
X152209838Y-93681331D01*
X152190708Y-93899997D01*
X152190708Y-93900002D01*
X146894582Y-93900002D01*
X146964427Y-93872944D01*
X147138462Y-93765186D01*
X147289732Y-93627285D01*
X147413088Y-93463935D01*
X147504328Y-93280701D01*
X147560345Y-93083821D01*
X147579232Y-92880000D01*
X147560345Y-92676179D01*
X147504328Y-92479299D01*
X147413088Y-92296065D01*
X147299367Y-92145474D01*
X147289730Y-92132712D01*
X147138462Y-91994814D01*
X147138460Y-91994812D01*
X146964430Y-91887057D01*
X146964424Y-91887054D01*
X146888261Y-91857549D01*
X146832859Y-91814976D01*
X146809269Y-91749209D01*
X146824980Y-91681129D01*
X146875004Y-91632350D01*
X146900963Y-91622147D01*
X146933481Y-91613434D01*
X146933492Y-91613429D01*
X147147578Y-91513600D01*
X147341082Y-91378105D01*
X147508105Y-91211082D01*
X147643600Y-91017578D01*
X147743429Y-90803492D01*
X147743432Y-90803486D01*
X147800636Y-90590000D01*
X146903012Y-90590000D01*
X146935925Y-90532993D01*
X146970000Y-90405826D01*
X146970000Y-90274174D01*
X146935925Y-90147007D01*
X146903012Y-90090000D01*
X147800636Y-90090000D01*
X147800635Y-90089999D01*
X147743432Y-89876513D01*
X147743429Y-89876507D01*
X147643600Y-89662422D01*
X147643599Y-89662420D01*
X147508113Y-89468926D01*
X147508108Y-89468920D01*
X147341082Y-89301894D01*
X147154968Y-89171575D01*
X147111344Y-89116998D01*
X147104151Y-89047499D01*
X147135673Y-88985145D01*
X147154968Y-88968425D01*
X147341082Y-88838105D01*
X147508105Y-88671082D01*
X147643600Y-88477578D01*
X147743429Y-88263492D01*
X147743432Y-88263486D01*
X147800636Y-88050000D01*
X146903012Y-88050000D01*
X146935925Y-87992993D01*
X146970000Y-87865826D01*
X146970000Y-87734174D01*
X146935925Y-87607007D01*
X146903012Y-87550000D01*
X147800636Y-87550000D01*
X147800635Y-87549999D01*
X147743432Y-87336513D01*
X147743429Y-87336507D01*
X147643600Y-87122422D01*
X147643599Y-87122420D01*
X147508113Y-86928926D01*
X147508108Y-86928920D01*
X147341082Y-86761894D01*
X147147578Y-86626399D01*
X146933492Y-86526570D01*
X146933477Y-86526564D01*
X146900960Y-86517851D01*
X146841300Y-86481486D01*
X146810772Y-86418638D01*
X146819067Y-86349263D01*
X146863553Y-86295386D01*
X146888257Y-86282452D01*
X146964427Y-86252944D01*
X147138462Y-86145186D01*
X147214159Y-86076179D01*
X147246318Y-86046863D01*
X147309122Y-86016246D01*
X147329856Y-86014500D01*
X147859554Y-86014500D01*
X147859574Y-86014501D01*
X147865688Y-86014501D01*
X148014314Y-86014501D01*
X148135894Y-85990315D01*
X148135894Y-85990316D01*
X148135900Y-85990313D01*
X148160080Y-85985505D01*
X148195942Y-85970649D01*
X148216944Y-85961951D01*
X148216947Y-85961949D01*
X148216955Y-85961946D01*
X148297389Y-85928630D01*
X148420966Y-85846059D01*
X149280963Y-84986060D01*
X149280966Y-84986059D01*
X149386059Y-84880966D01*
X149468629Y-84757390D01*
X149468630Y-84757389D01*
X149468633Y-84757385D01*
X149523389Y-84625187D01*
X149525505Y-84620079D01*
X149534994Y-84572373D01*
X149554501Y-84474314D01*
X149554501Y-84320578D01*
X149554500Y-84320552D01*
X149554500Y-84100002D01*
X152190708Y-84100002D01*
X152209838Y-84318668D01*
X152209839Y-84318675D01*
X152211717Y-84325682D01*
X152266653Y-84530703D01*
X152266654Y-84530706D01*
X152266655Y-84530708D01*
X152359419Y-84729642D01*
X152359423Y-84729650D01*
X152485322Y-84909452D01*
X152485327Y-84909458D01*
X152640541Y-85064672D01*
X152640547Y-85064677D01*
X152820349Y-85190576D01*
X152820351Y-85190577D01*
X152820354Y-85190579D01*
X153019297Y-85283347D01*
X153231326Y-85340161D01*
X153387521Y-85353826D01*
X153449998Y-85359292D01*
X153450000Y-85359292D01*
X153450002Y-85359292D01*
X153504668Y-85354509D01*
X153668674Y-85340161D01*
X153880703Y-85283347D01*
X154079646Y-85190579D01*
X154259457Y-85064674D01*
X154414674Y-84909457D01*
X154540579Y-84729646D01*
X154633347Y-84530703D01*
X154690161Y-84318674D01*
X154709292Y-84100002D01*
X156690708Y-84100002D01*
X156709838Y-84318668D01*
X156709839Y-84318675D01*
X156711717Y-84325682D01*
X156766653Y-84530703D01*
X156766654Y-84530706D01*
X156766655Y-84530708D01*
X156859419Y-84729642D01*
X156859423Y-84729650D01*
X156985322Y-84909452D01*
X156985327Y-84909458D01*
X157140541Y-85064672D01*
X157140547Y-85064677D01*
X157320349Y-85190576D01*
X157320351Y-85190577D01*
X157320354Y-85190579D01*
X157519297Y-85283347D01*
X157731326Y-85340161D01*
X157887521Y-85353826D01*
X157949998Y-85359292D01*
X157950000Y-85359292D01*
X157950002Y-85359292D01*
X158004668Y-85354509D01*
X158168674Y-85340161D01*
X158380703Y-85283347D01*
X158579646Y-85190579D01*
X158759457Y-85064674D01*
X158914674Y-84909457D01*
X159040579Y-84729646D01*
X159133347Y-84530703D01*
X159190161Y-84318674D01*
X159209292Y-84100000D01*
X159190161Y-83881326D01*
X159133347Y-83669297D01*
X159040579Y-83470354D01*
X159040577Y-83470351D01*
X159040576Y-83470349D01*
X158914677Y-83290547D01*
X158914672Y-83290541D01*
X158759458Y-83135327D01*
X158759452Y-83135322D01*
X158579650Y-83009423D01*
X158579642Y-83009419D01*
X158380708Y-82916655D01*
X158380706Y-82916654D01*
X158380703Y-82916653D01*
X158229885Y-82876240D01*
X158168675Y-82859839D01*
X158168668Y-82859838D01*
X157950002Y-82840708D01*
X157949998Y-82840708D01*
X157731331Y-82859838D01*
X157731324Y-82859839D01*
X157608902Y-82892642D01*
X157519297Y-82916653D01*
X157519295Y-82916653D01*
X157519291Y-82916655D01*
X157320357Y-83009419D01*
X157320349Y-83009423D01*
X157140547Y-83135322D01*
X157140541Y-83135327D01*
X156985327Y-83290541D01*
X156985322Y-83290547D01*
X156859423Y-83470349D01*
X156859419Y-83470357D01*
X156766655Y-83669291D01*
X156766653Y-83669295D01*
X156766653Y-83669297D01*
X156747708Y-83739999D01*
X156709839Y-83881324D01*
X156709838Y-83881331D01*
X156690708Y-84099997D01*
X156690708Y-84100002D01*
X154709292Y-84100002D01*
X154709292Y-84100000D01*
X154690161Y-83881326D01*
X154633347Y-83669297D01*
X154540579Y-83470354D01*
X154540577Y-83470351D01*
X154540576Y-83470349D01*
X154414677Y-83290547D01*
X154414672Y-83290541D01*
X154259458Y-83135327D01*
X154259452Y-83135322D01*
X154079650Y-83009423D01*
X154079642Y-83009419D01*
X153880708Y-82916655D01*
X153880706Y-82916654D01*
X153880703Y-82916653D01*
X153729885Y-82876240D01*
X153668675Y-82859839D01*
X153668668Y-82859838D01*
X153450002Y-82840708D01*
X153449998Y-82840708D01*
X153231331Y-82859838D01*
X153231324Y-82859839D01*
X153108902Y-82892642D01*
X153019297Y-82916653D01*
X153019295Y-82916653D01*
X153019291Y-82916655D01*
X152820357Y-83009419D01*
X152820349Y-83009423D01*
X152640547Y-83135322D01*
X152640541Y-83135327D01*
X152485327Y-83290541D01*
X152485322Y-83290547D01*
X152359423Y-83470349D01*
X152359419Y-83470357D01*
X152266655Y-83669291D01*
X152266653Y-83669295D01*
X152266653Y-83669297D01*
X152247708Y-83739999D01*
X152209839Y-83881324D01*
X152209838Y-83881331D01*
X152190708Y-84099997D01*
X152190708Y-84100002D01*
X149554500Y-84100002D01*
X149554500Y-77600002D01*
X152190708Y-77600002D01*
X152206001Y-77774814D01*
X152209839Y-77818674D01*
X152266653Y-78030703D01*
X152266654Y-78030706D01*
X152266655Y-78030708D01*
X152359419Y-78229642D01*
X152359423Y-78229650D01*
X152485322Y-78409452D01*
X152485327Y-78409458D01*
X152640541Y-78564672D01*
X152640547Y-78564677D01*
X152820349Y-78690576D01*
X152820351Y-78690577D01*
X152820354Y-78690579D01*
X153019297Y-78783347D01*
X153231326Y-78840161D01*
X153387521Y-78853826D01*
X153449998Y-78859292D01*
X153450000Y-78859292D01*
X153450002Y-78859292D01*
X153504668Y-78854509D01*
X153668674Y-78840161D01*
X153880703Y-78783347D01*
X154079646Y-78690579D01*
X154259457Y-78564674D01*
X154414674Y-78409457D01*
X154540579Y-78229646D01*
X154633347Y-78030703D01*
X154690161Y-77818674D01*
X154709292Y-77600002D01*
X156690708Y-77600002D01*
X156706001Y-77774814D01*
X156709839Y-77818674D01*
X156766653Y-78030703D01*
X156766654Y-78030706D01*
X156766655Y-78030708D01*
X156859419Y-78229642D01*
X156859423Y-78229650D01*
X156985322Y-78409452D01*
X156985327Y-78409458D01*
X157140541Y-78564672D01*
X157140547Y-78564677D01*
X157320349Y-78690576D01*
X157320351Y-78690577D01*
X157320354Y-78690579D01*
X157519297Y-78783347D01*
X157731326Y-78840161D01*
X157887521Y-78853826D01*
X157949998Y-78859292D01*
X157950000Y-78859292D01*
X157950002Y-78859292D01*
X158004668Y-78854509D01*
X158168674Y-78840161D01*
X158380703Y-78783347D01*
X158579646Y-78690579D01*
X158759457Y-78564674D01*
X158914674Y-78409457D01*
X159040579Y-78229646D01*
X159133347Y-78030703D01*
X159190161Y-77818674D01*
X159209292Y-77600002D01*
X165090708Y-77600002D01*
X165106001Y-77774814D01*
X165109839Y-77818674D01*
X165166653Y-78030703D01*
X165166654Y-78030706D01*
X165166655Y-78030708D01*
X165259419Y-78229642D01*
X165259423Y-78229650D01*
X165385322Y-78409452D01*
X165385327Y-78409458D01*
X165540541Y-78564672D01*
X165540547Y-78564677D01*
X165720349Y-78690576D01*
X165720351Y-78690577D01*
X165720354Y-78690579D01*
X165919297Y-78783347D01*
X166131326Y-78840161D01*
X166287521Y-78853826D01*
X166349998Y-78859292D01*
X166350000Y-78859292D01*
X166350002Y-78859292D01*
X166404668Y-78854509D01*
X166568674Y-78840161D01*
X166780703Y-78783347D01*
X166979646Y-78690579D01*
X167159457Y-78564674D01*
X167314674Y-78409457D01*
X167440579Y-78229646D01*
X167533347Y-78030703D01*
X167590161Y-77818674D01*
X167609292Y-77600002D01*
X169590708Y-77600002D01*
X169606001Y-77774814D01*
X169609839Y-77818674D01*
X169666653Y-78030703D01*
X169666654Y-78030706D01*
X169666655Y-78030708D01*
X169759419Y-78229642D01*
X169759423Y-78229650D01*
X169885322Y-78409452D01*
X169885327Y-78409458D01*
X170040541Y-78564672D01*
X170040547Y-78564677D01*
X170220349Y-78690576D01*
X170220351Y-78690577D01*
X170220354Y-78690579D01*
X170419297Y-78783347D01*
X170631326Y-78840161D01*
X170787521Y-78853826D01*
X170849998Y-78859292D01*
X170850000Y-78859292D01*
X170850002Y-78859292D01*
X170904668Y-78854509D01*
X171068674Y-78840161D01*
X171280703Y-78783347D01*
X171479646Y-78690579D01*
X171659457Y-78564674D01*
X171814674Y-78409457D01*
X171940579Y-78229646D01*
X172033347Y-78030703D01*
X172090161Y-77818674D01*
X172109292Y-77600000D01*
X172108689Y-77593113D01*
X172090161Y-77381331D01*
X172090161Y-77381326D01*
X172033347Y-77169297D01*
X171940579Y-76970354D01*
X171940577Y-76970351D01*
X171940576Y-76970349D01*
X171814677Y-76790547D01*
X171814672Y-76790541D01*
X171659458Y-76635327D01*
X171659452Y-76635322D01*
X171479650Y-76509423D01*
X171479642Y-76509419D01*
X171280708Y-76416655D01*
X171280706Y-76416654D01*
X171280703Y-76416653D01*
X171129885Y-76376240D01*
X171068675Y-76359839D01*
X171068668Y-76359838D01*
X170850002Y-76340708D01*
X170849998Y-76340708D01*
X170631331Y-76359838D01*
X170631324Y-76359839D01*
X170518012Y-76390202D01*
X170419297Y-76416653D01*
X170419295Y-76416653D01*
X170419291Y-76416655D01*
X170220357Y-76509419D01*
X170220349Y-76509423D01*
X170040547Y-76635322D01*
X170040541Y-76635327D01*
X169885327Y-76790541D01*
X169885322Y-76790547D01*
X169759423Y-76970349D01*
X169759419Y-76970357D01*
X169666655Y-77169291D01*
X169666653Y-77169295D01*
X169666653Y-77169297D01*
X169651861Y-77224500D01*
X169609839Y-77381324D01*
X169609838Y-77381331D01*
X169590708Y-77599997D01*
X169590708Y-77600002D01*
X167609292Y-77600002D01*
X167609292Y-77600000D01*
X167608689Y-77593113D01*
X167590161Y-77381331D01*
X167590161Y-77381326D01*
X167533347Y-77169297D01*
X167440579Y-76970354D01*
X167440577Y-76970351D01*
X167440576Y-76970349D01*
X167314677Y-76790547D01*
X167314672Y-76790541D01*
X167159458Y-76635327D01*
X167159452Y-76635322D01*
X166979650Y-76509423D01*
X166979642Y-76509419D01*
X166780708Y-76416655D01*
X166780706Y-76416654D01*
X166780703Y-76416653D01*
X166629885Y-76376240D01*
X166568675Y-76359839D01*
X166568668Y-76359838D01*
X166350002Y-76340708D01*
X166349998Y-76340708D01*
X166131331Y-76359838D01*
X166131324Y-76359839D01*
X166018012Y-76390202D01*
X165919297Y-76416653D01*
X165919295Y-76416653D01*
X165919291Y-76416655D01*
X165720357Y-76509419D01*
X165720349Y-76509423D01*
X165540547Y-76635322D01*
X165540541Y-76635327D01*
X165385327Y-76790541D01*
X165385322Y-76790547D01*
X165259423Y-76970349D01*
X165259419Y-76970357D01*
X165166655Y-77169291D01*
X165166653Y-77169295D01*
X165166653Y-77169297D01*
X165151861Y-77224500D01*
X165109839Y-77381324D01*
X165109838Y-77381331D01*
X165090708Y-77599997D01*
X165090708Y-77600002D01*
X159209292Y-77600002D01*
X159209292Y-77600000D01*
X159208689Y-77593113D01*
X159190161Y-77381331D01*
X159190161Y-77381326D01*
X159133347Y-77169297D01*
X159040579Y-76970354D01*
X159040577Y-76970351D01*
X159040576Y-76970349D01*
X158914677Y-76790547D01*
X158914672Y-76790541D01*
X158759458Y-76635327D01*
X158759452Y-76635322D01*
X158579650Y-76509423D01*
X158579642Y-76509419D01*
X158380708Y-76416655D01*
X158380706Y-76416654D01*
X158380703Y-76416653D01*
X158229885Y-76376240D01*
X158168675Y-76359839D01*
X158168668Y-76359838D01*
X157950002Y-76340708D01*
X157949998Y-76340708D01*
X157731331Y-76359838D01*
X157731324Y-76359839D01*
X157618012Y-76390202D01*
X157519297Y-76416653D01*
X157519295Y-76416653D01*
X157519291Y-76416655D01*
X157320357Y-76509419D01*
X157320349Y-76509423D01*
X157140547Y-76635322D01*
X157140541Y-76635327D01*
X156985327Y-76790541D01*
X156985322Y-76790547D01*
X156859423Y-76970349D01*
X156859419Y-76970357D01*
X156766655Y-77169291D01*
X156766653Y-77169295D01*
X156766653Y-77169297D01*
X156751861Y-77224500D01*
X156709839Y-77381324D01*
X156709838Y-77381331D01*
X156690708Y-77599997D01*
X156690708Y-77600002D01*
X154709292Y-77600002D01*
X154709292Y-77600000D01*
X154708689Y-77593113D01*
X154690161Y-77381331D01*
X154690161Y-77381326D01*
X154633347Y-77169297D01*
X154633344Y-77169291D01*
X154633343Y-77169286D01*
X154631494Y-77164205D01*
X154633649Y-77163420D01*
X154624592Y-77104053D01*
X154653069Y-77040250D01*
X154659783Y-77032975D01*
X160551941Y-71140819D01*
X160613264Y-71107334D01*
X160639622Y-71104500D01*
X175110378Y-71104500D01*
X175177417Y-71124185D01*
X175198059Y-71140819D01*
X175891059Y-71833819D01*
X175924544Y-71895142D01*
X175919560Y-71964834D01*
X175877688Y-72020767D01*
X175812224Y-72045184D01*
X175803378Y-72045500D01*
X175410643Y-72045500D01*
X175343604Y-72025815D01*
X175335157Y-72019876D01*
X175329643Y-72015645D01*
X175329638Y-72015642D01*
X175194757Y-71959773D01*
X175194752Y-71959771D01*
X175050001Y-71940715D01*
X175049999Y-71940715D01*
X174905247Y-71959771D01*
X174905245Y-71959772D01*
X174770361Y-72015643D01*
X174770358Y-72015644D01*
X174770358Y-72015645D01*
X174654526Y-72104526D01*
X174582312Y-72198638D01*
X174565643Y-72220361D01*
X174509772Y-72355245D01*
X174509771Y-72355247D01*
X174490715Y-72499998D01*
X174490715Y-72500001D01*
X174509771Y-72644752D01*
X174509773Y-72644757D01*
X174565642Y-72779638D01*
X174565645Y-72779644D01*
X174654525Y-72895473D01*
X174654526Y-72895474D01*
X174770355Y-72984354D01*
X174770361Y-72984357D01*
X174785962Y-72990819D01*
X174905246Y-73040228D01*
X174977623Y-73049756D01*
X175049999Y-73059285D01*
X175050000Y-73059285D01*
X175050001Y-73059285D01*
X175098251Y-73052932D01*
X175194754Y-73040228D01*
X175329643Y-72984355D01*
X175335157Y-72980124D01*
X175400326Y-72954930D01*
X175410643Y-72954500D01*
X176111850Y-72954500D01*
X176178889Y-72974185D01*
X176199531Y-72990819D01*
X178309181Y-75100469D01*
X178342666Y-75161792D01*
X178345500Y-75188150D01*
X178345500Y-75903378D01*
X178325815Y-75970417D01*
X178273011Y-76016172D01*
X178203853Y-76026116D01*
X178140297Y-75997091D01*
X178133819Y-75991059D01*
X176570761Y-74428001D01*
X176570759Y-74427998D01*
X176479072Y-74336311D01*
X176479066Y-74336306D01*
X176375434Y-74276474D01*
X176375429Y-74276472D01*
X176351003Y-74269926D01*
X176351003Y-74269927D01*
X176304915Y-74257578D01*
X176259836Y-74245499D01*
X176140164Y-74245499D01*
X176132568Y-74245499D01*
X176132552Y-74245500D01*
X170539622Y-74245500D01*
X170472583Y-74225815D01*
X170451941Y-74209181D01*
X169676392Y-73433632D01*
X169642907Y-73372309D01*
X169641137Y-73362155D01*
X169640228Y-73355246D01*
X169584355Y-73220358D01*
X169584354Y-73220357D01*
X169584353Y-73220354D01*
X169580293Y-73213321D01*
X169582987Y-73211765D01*
X169563097Y-73160325D01*
X169577131Y-73091879D01*
X169580425Y-73086754D01*
X169580293Y-73086678D01*
X169584351Y-73079647D01*
X169584355Y-73079643D01*
X169640228Y-72944754D01*
X169659285Y-72800000D01*
X169656604Y-72779638D01*
X169640228Y-72655247D01*
X169640228Y-72655246D01*
X169584355Y-72520358D01*
X169495474Y-72404526D01*
X169379643Y-72315645D01*
X169379640Y-72315644D01*
X169379638Y-72315642D01*
X169244757Y-72259773D01*
X169244752Y-72259771D01*
X169100001Y-72240715D01*
X169099999Y-72240715D01*
X168955247Y-72259771D01*
X168955245Y-72259772D01*
X168820361Y-72315643D01*
X168820358Y-72315644D01*
X168820358Y-72315645D01*
X168704526Y-72404526D01*
X168631266Y-72500001D01*
X168615643Y-72520361D01*
X168559772Y-72655245D01*
X168559771Y-72655247D01*
X168540715Y-72799998D01*
X168540715Y-72800001D01*
X168559771Y-72944752D01*
X168559773Y-72944757D01*
X168615642Y-73079638D01*
X168619707Y-73086678D01*
X168617015Y-73088231D01*
X168636905Y-73139703D01*
X168622855Y-73208145D01*
X168619577Y-73213246D01*
X168619707Y-73213321D01*
X168615646Y-73220354D01*
X168559772Y-73355245D01*
X168559771Y-73355247D01*
X168540715Y-73499998D01*
X168540715Y-73500001D01*
X168559771Y-73644752D01*
X168559773Y-73644757D01*
X168615642Y-73779638D01*
X168615645Y-73779644D01*
X168704525Y-73895473D01*
X168704526Y-73895474D01*
X168820355Y-73984354D01*
X168820361Y-73984357D01*
X168862417Y-74001777D01*
X168955246Y-74040228D01*
X168962132Y-74041134D01*
X169026027Y-74069395D01*
X169033632Y-74076392D01*
X169931968Y-74974728D01*
X169931978Y-74974739D01*
X169936308Y-74979069D01*
X169936309Y-74979070D01*
X170020930Y-75063691D01*
X170124569Y-75123527D01*
X170240164Y-75154500D01*
X175960378Y-75154500D01*
X176027417Y-75174185D01*
X176048059Y-75190819D01*
X177509181Y-76651941D01*
X177542666Y-76713264D01*
X177545500Y-76739622D01*
X177545500Y-94282551D01*
X177545499Y-94282569D01*
X177545499Y-94409835D01*
X177567022Y-94490163D01*
X177576471Y-94525427D01*
X177576474Y-94525434D01*
X177636306Y-94629066D01*
X177636311Y-94629072D01*
X177727995Y-94720756D01*
X177728001Y-94720761D01*
X177831968Y-94824728D01*
X177831978Y-94824739D01*
X177836308Y-94829069D01*
X177836309Y-94829070D01*
X177920930Y-94913691D01*
X178024569Y-94973527D01*
X178048993Y-94980071D01*
X178048995Y-94980072D01*
X178048996Y-94980072D01*
X178079386Y-94988215D01*
X178140164Y-95004501D01*
X178140166Y-95004501D01*
X178267432Y-95004501D01*
X178267448Y-95004500D01*
X178539357Y-95004500D01*
X178606396Y-95024185D01*
X178614843Y-95030124D01*
X178620357Y-95034355D01*
X178620359Y-95034355D01*
X178620361Y-95034357D01*
X178687801Y-95062291D01*
X178755246Y-95090228D01*
X178827623Y-95099756D01*
X178899999Y-95109285D01*
X178900000Y-95109285D01*
X178900001Y-95109285D01*
X178948251Y-95102932D01*
X179044754Y-95090228D01*
X179179638Y-95034357D01*
X179179639Y-95034357D01*
X179179639Y-95034356D01*
X179179643Y-95034355D01*
X179295474Y-94945474D01*
X179297522Y-94942803D01*
X179323614Y-94919927D01*
X179322624Y-94918637D01*
X179329068Y-94913692D01*
X179329067Y-94913692D01*
X179329070Y-94913691D01*
X179413691Y-94829070D01*
X179473527Y-94725431D01*
X179504500Y-94609836D01*
X179504500Y-94490164D01*
X179473527Y-94374569D01*
X179413691Y-94270930D01*
X179329070Y-94186309D01*
X179329069Y-94186308D01*
X179329066Y-94186305D01*
X179322625Y-94181363D01*
X179323612Y-94180076D01*
X179297522Y-94157195D01*
X179295474Y-94154526D01*
X179179644Y-94065645D01*
X179179638Y-94065642D01*
X179044757Y-94009773D01*
X179044752Y-94009771D01*
X178900001Y-93990715D01*
X178899999Y-93990715D01*
X178755247Y-94009771D01*
X178755245Y-94009772D01*
X178625953Y-94063327D01*
X178556483Y-94070796D01*
X178494004Y-94039521D01*
X178458352Y-93979432D01*
X178454500Y-93948766D01*
X178454500Y-92392655D01*
X178474185Y-92325616D01*
X178526989Y-92279861D01*
X178596147Y-92269917D01*
X178625950Y-92278093D01*
X178655246Y-92290228D01*
X178699583Y-92296065D01*
X178799999Y-92309285D01*
X178800000Y-92309285D01*
X178800001Y-92309285D01*
X178848251Y-92302932D01*
X178944754Y-92290228D01*
X179079643Y-92234355D01*
X179195474Y-92145474D01*
X179284355Y-92029643D01*
X179340228Y-91894754D01*
X179359285Y-91750000D01*
X179340228Y-91605246D01*
X179284355Y-91470358D01*
X179280122Y-91464841D01*
X179254930Y-91399671D01*
X179254500Y-91389357D01*
X179254500Y-83700004D01*
X180015447Y-83700004D01*
X180034817Y-83958489D01*
X180092497Y-84211202D01*
X180092499Y-84211209D01*
X180135423Y-84320578D01*
X180187202Y-84452506D01*
X180316810Y-84676994D01*
X180420395Y-84806886D01*
X180478431Y-84879662D01*
X180657807Y-85046097D01*
X180668447Y-85055969D01*
X180882622Y-85201991D01*
X181116164Y-85314459D01*
X181116165Y-85314459D01*
X181116168Y-85314461D01*
X181363868Y-85390866D01*
X181363869Y-85390866D01*
X181363872Y-85390867D01*
X181620181Y-85429499D01*
X181620186Y-85429499D01*
X181620189Y-85429500D01*
X181620190Y-85429500D01*
X181879404Y-85429500D01*
X181879405Y-85429500D01*
X181879412Y-85429499D01*
X182135721Y-85390867D01*
X182135722Y-85390866D01*
X182135726Y-85390866D01*
X182383426Y-85314461D01*
X182616972Y-85201991D01*
X182831147Y-85055969D01*
X182989056Y-84909452D01*
X183021162Y-84879662D01*
X183021162Y-84879660D01*
X183021166Y-84879658D01*
X183182784Y-84676994D01*
X183312392Y-84452506D01*
X183407095Y-84211209D01*
X183464776Y-83958491D01*
X183477636Y-83786886D01*
X183484147Y-83700004D01*
X183484147Y-83699995D01*
X183464776Y-83441510D01*
X183441446Y-83339295D01*
X183407095Y-83188791D01*
X183312392Y-82947494D01*
X183182784Y-82723006D01*
X183021166Y-82520342D01*
X183021165Y-82520341D01*
X183021162Y-82520337D01*
X182831147Y-82344031D01*
X182794866Y-82319295D01*
X182616972Y-82198009D01*
X182616968Y-82198007D01*
X182616965Y-82198005D01*
X182616963Y-82198004D01*
X182383428Y-82085540D01*
X182383430Y-82085540D01*
X182135727Y-82009134D01*
X182135721Y-82009132D01*
X181879412Y-81970500D01*
X181879405Y-81970500D01*
X181620189Y-81970500D01*
X181620181Y-81970500D01*
X181363872Y-82009132D01*
X181363866Y-82009134D01*
X181116164Y-82085540D01*
X180882630Y-82198004D01*
X180882628Y-82198005D01*
X180668446Y-82344031D01*
X180478431Y-82520337D01*
X180316810Y-82723006D01*
X180187203Y-82947491D01*
X180187201Y-82947495D01*
X180092499Y-83188790D01*
X180092497Y-83188797D01*
X180034817Y-83441510D01*
X180015447Y-83699995D01*
X180015447Y-83700004D01*
X179254500Y-83700004D01*
X179254500Y-75496622D01*
X179274185Y-75429583D01*
X179326989Y-75383828D01*
X179396147Y-75373884D01*
X179459703Y-75402909D01*
X179466181Y-75408941D01*
X193151968Y-89094728D01*
X193151978Y-89094739D01*
X193156308Y-89099069D01*
X193156309Y-89099070D01*
X193240930Y-89183691D01*
X193315173Y-89226555D01*
X193344569Y-89243527D01*
X193460164Y-89274500D01*
X193501501Y-89274500D01*
X193568540Y-89294185D01*
X193614295Y-89346989D01*
X193625501Y-89398500D01*
X193625501Y-89695066D01*
X193640265Y-89769296D01*
X193640266Y-89769301D01*
X193696515Y-89853484D01*
X193727332Y-89874075D01*
X193780699Y-89909734D01*
X193780702Y-89909734D01*
X193780703Y-89909735D01*
X193805666Y-89914700D01*
X193854933Y-89924500D01*
X195605066Y-89924499D01*
X195679301Y-89909734D01*
X195763484Y-89853484D01*
X195819734Y-89769301D01*
X195834500Y-89695067D01*
X195834499Y-87944934D01*
X195819734Y-87870699D01*
X195781320Y-87813209D01*
X195763484Y-87786515D01*
X195713019Y-87752796D01*
X195679301Y-87730266D01*
X195679299Y-87730265D01*
X195679296Y-87730264D01*
X195605069Y-87715500D01*
X193854936Y-87715500D01*
X193780698Y-87730266D01*
X193696515Y-87786515D01*
X193640266Y-87870699D01*
X193640264Y-87870703D01*
X193625500Y-87944928D01*
X193625500Y-87983378D01*
X193605815Y-88050417D01*
X193553011Y-88096172D01*
X193483853Y-88106116D01*
X193420297Y-88077091D01*
X193413819Y-88071059D01*
X191622760Y-86280000D01*
X193620768Y-86280000D01*
X193639654Y-86483816D01*
X193639654Y-86483818D01*
X193639655Y-86483821D01*
X193695672Y-86680701D01*
X193695673Y-86680704D01*
X193786912Y-86863935D01*
X193910269Y-87027287D01*
X194061537Y-87165185D01*
X194061539Y-87165187D01*
X194235569Y-87272942D01*
X194235575Y-87272945D01*
X194255023Y-87280479D01*
X194426444Y-87346888D01*
X194627653Y-87384500D01*
X194627656Y-87384500D01*
X194832344Y-87384500D01*
X194832347Y-87384500D01*
X195033556Y-87346888D01*
X195224427Y-87272944D01*
X195398462Y-87165186D01*
X195549732Y-87027285D01*
X195673088Y-86863935D01*
X195764328Y-86680701D01*
X195820345Y-86483821D01*
X195839232Y-86280000D01*
X195820345Y-86076179D01*
X195764328Y-85879299D01*
X195673088Y-85696065D01*
X195549732Y-85532715D01*
X195549730Y-85532712D01*
X195398462Y-85394814D01*
X195398460Y-85394812D01*
X195224430Y-85287057D01*
X195224424Y-85287054D01*
X195073993Y-85228777D01*
X195033556Y-85213112D01*
X194832347Y-85175500D01*
X194627653Y-85175500D01*
X194426444Y-85213112D01*
X194426441Y-85213112D01*
X194426441Y-85213113D01*
X194235575Y-85287054D01*
X194235569Y-85287057D01*
X194061539Y-85394812D01*
X194061537Y-85394814D01*
X193910269Y-85532712D01*
X193786912Y-85696064D01*
X193695673Y-85879295D01*
X193639654Y-86076183D01*
X193620768Y-86279999D01*
X193620768Y-86280000D01*
X191622760Y-86280000D01*
X189082760Y-83740000D01*
X193620768Y-83740000D01*
X193639654Y-83943816D01*
X193639654Y-83943818D01*
X193639655Y-83943821D01*
X193690862Y-84123794D01*
X193695673Y-84140704D01*
X193786912Y-84323935D01*
X193910269Y-84487287D01*
X194061537Y-84625185D01*
X194061539Y-84625187D01*
X194235569Y-84732942D01*
X194235575Y-84732945D01*
X194276010Y-84748609D01*
X194426444Y-84806888D01*
X194627653Y-84844500D01*
X194627656Y-84844500D01*
X194832344Y-84844500D01*
X194832347Y-84844500D01*
X195033556Y-84806888D01*
X195224427Y-84732944D01*
X195398462Y-84625186D01*
X195549732Y-84487285D01*
X195673088Y-84323935D01*
X195764328Y-84140701D01*
X195820345Y-83943821D01*
X195839232Y-83740000D01*
X195820345Y-83536179D01*
X195764328Y-83339299D01*
X195673088Y-83156065D01*
X195549732Y-82992715D01*
X195549730Y-82992712D01*
X195398462Y-82854814D01*
X195398460Y-82854812D01*
X195224430Y-82747057D01*
X195224424Y-82747054D01*
X195073993Y-82688777D01*
X195033556Y-82673112D01*
X194832347Y-82635500D01*
X194627653Y-82635500D01*
X194426444Y-82673112D01*
X194426441Y-82673112D01*
X194426441Y-82673113D01*
X194235575Y-82747054D01*
X194235569Y-82747057D01*
X194061539Y-82854812D01*
X194061537Y-82854814D01*
X193910269Y-82992712D01*
X193786912Y-83156064D01*
X193695673Y-83339295D01*
X193639654Y-83536183D01*
X193620768Y-83739999D01*
X193620768Y-83740000D01*
X189082760Y-83740000D01*
X186542760Y-81200000D01*
X193620768Y-81200000D01*
X193639654Y-81403816D01*
X193695673Y-81600704D01*
X193786912Y-81783935D01*
X193910269Y-81947287D01*
X194061537Y-82085185D01*
X194061539Y-82085187D01*
X194235569Y-82192942D01*
X194235575Y-82192945D01*
X194248634Y-82198004D01*
X194426444Y-82266888D01*
X194627653Y-82304500D01*
X194627656Y-82304500D01*
X194832344Y-82304500D01*
X194832347Y-82304500D01*
X195033556Y-82266888D01*
X195224427Y-82192944D01*
X195398462Y-82085186D01*
X195549732Y-81947285D01*
X195673088Y-81783935D01*
X195764328Y-81600701D01*
X195820345Y-81403821D01*
X195839232Y-81200000D01*
X195820345Y-80996179D01*
X195764328Y-80799299D01*
X195673088Y-80616065D01*
X195549732Y-80452715D01*
X195549730Y-80452712D01*
X195398462Y-80314814D01*
X195398460Y-80314812D01*
X195224430Y-80207057D01*
X195224424Y-80207054D01*
X195073993Y-80148777D01*
X195033556Y-80133112D01*
X194832347Y-80095500D01*
X194627653Y-80095500D01*
X194426444Y-80133112D01*
X194426441Y-80133112D01*
X194426441Y-80133113D01*
X194235575Y-80207054D01*
X194235569Y-80207057D01*
X194061539Y-80314812D01*
X194061537Y-80314814D01*
X193910269Y-80452712D01*
X193786912Y-80616064D01*
X193695673Y-80799295D01*
X193639654Y-80996183D01*
X193620768Y-81199999D01*
X193620768Y-81200000D01*
X186542760Y-81200000D01*
X184002760Y-78660000D01*
X193620768Y-78660000D01*
X193639654Y-78863816D01*
X193695673Y-79060704D01*
X193786912Y-79243935D01*
X193910269Y-79407287D01*
X194061537Y-79545185D01*
X194061539Y-79545187D01*
X194235569Y-79652942D01*
X194235575Y-79652945D01*
X194276010Y-79668609D01*
X194426444Y-79726888D01*
X194627653Y-79764500D01*
X194627656Y-79764500D01*
X194832344Y-79764500D01*
X194832347Y-79764500D01*
X195033556Y-79726888D01*
X195224427Y-79652944D01*
X195398462Y-79545186D01*
X195549732Y-79407285D01*
X195673088Y-79243935D01*
X195764328Y-79060701D01*
X195820345Y-78863821D01*
X195839232Y-78660000D01*
X195820345Y-78456179D01*
X195764328Y-78259299D01*
X195673088Y-78076065D01*
X195549732Y-77912715D01*
X195549730Y-77912712D01*
X195398462Y-77774814D01*
X195398460Y-77774812D01*
X195224430Y-77667057D01*
X195224424Y-77667054D01*
X195051328Y-77599997D01*
X195033556Y-77593112D01*
X194832347Y-77555500D01*
X194627653Y-77555500D01*
X194426444Y-77593112D01*
X194426441Y-77593112D01*
X194426441Y-77593113D01*
X194235575Y-77667054D01*
X194235569Y-77667057D01*
X194061539Y-77774812D01*
X194061537Y-77774814D01*
X193910269Y-77912712D01*
X193786912Y-78076064D01*
X193695673Y-78259295D01*
X193639654Y-78456183D01*
X193620768Y-78659999D01*
X193620768Y-78660000D01*
X184002760Y-78660000D01*
X178042761Y-72700001D01*
X184969752Y-72700001D01*
X184989906Y-72981795D01*
X185049956Y-73257836D01*
X185148685Y-73522541D01*
X185148687Y-73522545D01*
X185284073Y-73770487D01*
X185284078Y-73770495D01*
X185387539Y-73908702D01*
X185387540Y-73908703D01*
X185888219Y-73408024D01*
X185977281Y-73530607D01*
X186119190Y-73672516D01*
X186241771Y-73761576D01*
X185741092Y-74262255D01*
X185879308Y-74365722D01*
X185879309Y-74365723D01*
X186127251Y-74501109D01*
X186127255Y-74501111D01*
X186391960Y-74599840D01*
X186668001Y-74659890D01*
X186949796Y-74680045D01*
X186949798Y-74680045D01*
X187231592Y-74659890D01*
X187507633Y-74599840D01*
X187772338Y-74501111D01*
X187772342Y-74501109D01*
X188020293Y-74365718D01*
X188158499Y-74262256D01*
X188158500Y-74262255D01*
X187657821Y-73761577D01*
X187780404Y-73672516D01*
X187922313Y-73530607D01*
X188011373Y-73408024D01*
X188512052Y-73908703D01*
X188512053Y-73908702D01*
X188570970Y-73830000D01*
X193399364Y-73830000D01*
X193456567Y-74043486D01*
X193456570Y-74043492D01*
X193556399Y-74257578D01*
X193691894Y-74451082D01*
X193858917Y-74618105D01*
X194052421Y-74753600D01*
X194266507Y-74853429D01*
X194266516Y-74853433D01*
X194299037Y-74862147D01*
X194358698Y-74898512D01*
X194389227Y-74961358D01*
X194380933Y-75030734D01*
X194336448Y-75084612D01*
X194311739Y-75097548D01*
X194235581Y-75127052D01*
X194235569Y-75127057D01*
X194061539Y-75234812D01*
X194061537Y-75234814D01*
X193910269Y-75372712D01*
X193786912Y-75536064D01*
X193695673Y-75719295D01*
X193639654Y-75916183D01*
X193620768Y-76119999D01*
X193620768Y-76120000D01*
X193639654Y-76323816D01*
X193639654Y-76323818D01*
X193639655Y-76323821D01*
X193692462Y-76509419D01*
X193695673Y-76520704D01*
X193786912Y-76703935D01*
X193910269Y-76867287D01*
X194061537Y-77005185D01*
X194061539Y-77005187D01*
X194235569Y-77112942D01*
X194235575Y-77112945D01*
X194276010Y-77128609D01*
X194426444Y-77186888D01*
X194627653Y-77224500D01*
X194627656Y-77224500D01*
X194832344Y-77224500D01*
X194832347Y-77224500D01*
X195033556Y-77186888D01*
X195224427Y-77112944D01*
X195398462Y-77005186D01*
X195549732Y-76867285D01*
X195673088Y-76703935D01*
X195764328Y-76520701D01*
X195820345Y-76323821D01*
X195839232Y-76120000D01*
X195820345Y-75916179D01*
X195764328Y-75719299D01*
X195673088Y-75536065D01*
X195577089Y-75408941D01*
X195549730Y-75372712D01*
X195398462Y-75234814D01*
X195398460Y-75234812D01*
X195224430Y-75127057D01*
X195224424Y-75127054D01*
X195148261Y-75097549D01*
X195092859Y-75054976D01*
X195069269Y-74989209D01*
X195084980Y-74921129D01*
X195135004Y-74872350D01*
X195160963Y-74862147D01*
X195193481Y-74853434D01*
X195193492Y-74853429D01*
X195407578Y-74753600D01*
X195601082Y-74618105D01*
X195768105Y-74451082D01*
X195903600Y-74257578D01*
X196003429Y-74043492D01*
X196003432Y-74043486D01*
X196060636Y-73830000D01*
X195163012Y-73830000D01*
X195195925Y-73772993D01*
X195230000Y-73645826D01*
X195230000Y-73514174D01*
X195195925Y-73387007D01*
X195163012Y-73330000D01*
X196060636Y-73330000D01*
X196060635Y-73329999D01*
X196003432Y-73116513D01*
X196003429Y-73116507D01*
X195903600Y-72902422D01*
X195903599Y-72902420D01*
X195768113Y-72708926D01*
X195768108Y-72708920D01*
X195601082Y-72541894D01*
X195407578Y-72406399D01*
X195193492Y-72306570D01*
X195193477Y-72306564D01*
X195160960Y-72297851D01*
X195101300Y-72261486D01*
X195070772Y-72198638D01*
X195079067Y-72129263D01*
X195123553Y-72075386D01*
X195148257Y-72062452D01*
X195224427Y-72032944D01*
X195398462Y-71925186D01*
X195549732Y-71787285D01*
X195673088Y-71623935D01*
X195764328Y-71440701D01*
X195820345Y-71243821D01*
X195839232Y-71040000D01*
X195820345Y-70836179D01*
X195764328Y-70639299D01*
X195673088Y-70456065D01*
X195549732Y-70292715D01*
X195549730Y-70292712D01*
X195398462Y-70154814D01*
X195398460Y-70154812D01*
X195224430Y-70047057D01*
X195224424Y-70047054D01*
X195073993Y-69988777D01*
X195033556Y-69973112D01*
X194832347Y-69935500D01*
X194627653Y-69935500D01*
X194426444Y-69973112D01*
X194426441Y-69973112D01*
X194426441Y-69973113D01*
X194235575Y-70047054D01*
X194235569Y-70047057D01*
X194061539Y-70154812D01*
X194061537Y-70154814D01*
X193910269Y-70292712D01*
X193786912Y-70456064D01*
X193695673Y-70639295D01*
X193639654Y-70836183D01*
X193620768Y-71039999D01*
X193620768Y-71040000D01*
X193639654Y-71243816D01*
X193695673Y-71440704D01*
X193786912Y-71623935D01*
X193910269Y-71787287D01*
X194061537Y-71925185D01*
X194061539Y-71925187D01*
X194235569Y-72032942D01*
X194235571Y-72032943D01*
X194235573Y-72032944D01*
X194235576Y-72032945D01*
X194235578Y-72032946D01*
X194311737Y-72062450D01*
X194367139Y-72105023D01*
X194390730Y-72170789D01*
X194375019Y-72238870D01*
X194324996Y-72287649D01*
X194299040Y-72297851D01*
X194266519Y-72306565D01*
X194266507Y-72306570D01*
X194052422Y-72406399D01*
X194052420Y-72406400D01*
X193858926Y-72541886D01*
X193858920Y-72541891D01*
X193691891Y-72708920D01*
X193691886Y-72708926D01*
X193556400Y-72902420D01*
X193556399Y-72902422D01*
X193456570Y-73116507D01*
X193456567Y-73116513D01*
X193399364Y-73329999D01*
X193399364Y-73330000D01*
X194296988Y-73330000D01*
X194264075Y-73387007D01*
X194230000Y-73514174D01*
X194230000Y-73645826D01*
X194264075Y-73772993D01*
X194296988Y-73830000D01*
X193399364Y-73830000D01*
X188570970Y-73830000D01*
X188615515Y-73770496D01*
X188750906Y-73522545D01*
X188750908Y-73522541D01*
X188849637Y-73257836D01*
X188909687Y-72981795D01*
X188929842Y-72700001D01*
X188929842Y-72699998D01*
X188909687Y-72418204D01*
X188849637Y-72142163D01*
X188750908Y-71877458D01*
X188750906Y-71877454D01*
X188615520Y-71629512D01*
X188615519Y-71629511D01*
X188512052Y-71491295D01*
X188011373Y-71991974D01*
X187922313Y-71869393D01*
X187780404Y-71727484D01*
X187657821Y-71638422D01*
X188158500Y-71137743D01*
X188158499Y-71137742D01*
X188020292Y-71034281D01*
X188020284Y-71034276D01*
X187772342Y-70898890D01*
X187772338Y-70898888D01*
X187507633Y-70800159D01*
X187231592Y-70740109D01*
X186949798Y-70719955D01*
X186949796Y-70719955D01*
X186668001Y-70740109D01*
X186391960Y-70800159D01*
X186127255Y-70898888D01*
X186127251Y-70898890D01*
X185879309Y-71034276D01*
X185879301Y-71034281D01*
X185741093Y-71137742D01*
X185741092Y-71137743D01*
X186241772Y-71638422D01*
X186119190Y-71727484D01*
X185977281Y-71869393D01*
X185888220Y-71991975D01*
X185387540Y-71491295D01*
X185387539Y-71491296D01*
X185284078Y-71629504D01*
X185284073Y-71629512D01*
X185148687Y-71877454D01*
X185148685Y-71877458D01*
X185049956Y-72142163D01*
X184989906Y-72418204D01*
X184969752Y-72699998D01*
X184969752Y-72700001D01*
X178042761Y-72700001D01*
X175720761Y-70378001D01*
X175720759Y-70377998D01*
X175629072Y-70286311D01*
X175629066Y-70286306D01*
X175525434Y-70226474D01*
X175525429Y-70226472D01*
X175501003Y-70219926D01*
X175501003Y-70219927D01*
X175455419Y-70207713D01*
X175409836Y-70195499D01*
X175290164Y-70195499D01*
X175282568Y-70195499D01*
X175282552Y-70195500D01*
X160340164Y-70195500D01*
X160224569Y-70226473D01*
X160224566Y-70226474D01*
X160120933Y-70286307D01*
X160120927Y-70286311D01*
X160036307Y-70370932D01*
X154017036Y-76390202D01*
X153955713Y-76423687D01*
X153886021Y-76418703D01*
X153883938Y-76417830D01*
X153880706Y-76416654D01*
X153880703Y-76416653D01*
X153781988Y-76390202D01*
X153668675Y-76359839D01*
X153668668Y-76359838D01*
X153450002Y-76340708D01*
X153449998Y-76340708D01*
X153231331Y-76359838D01*
X153231324Y-76359839D01*
X153118012Y-76390202D01*
X153019297Y-76416653D01*
X153019295Y-76416653D01*
X153019291Y-76416655D01*
X152820357Y-76509419D01*
X152820349Y-76509423D01*
X152640547Y-76635322D01*
X152640541Y-76635327D01*
X152485327Y-76790541D01*
X152485322Y-76790547D01*
X152359423Y-76970349D01*
X152359419Y-76970357D01*
X152266655Y-77169291D01*
X152266653Y-77169295D01*
X152266653Y-77169297D01*
X152251861Y-77224500D01*
X152209839Y-77381324D01*
X152209838Y-77381331D01*
X152190708Y-77599997D01*
X152190708Y-77600002D01*
X149554500Y-77600002D01*
X149554500Y-76063885D01*
X149574185Y-75996846D01*
X149590814Y-75976209D01*
X151280963Y-74286060D01*
X151280966Y-74286059D01*
X151386059Y-74180966D01*
X151468629Y-74057390D01*
X151525505Y-73920080D01*
X151530399Y-73895474D01*
X151533285Y-73880968D01*
X151533285Y-73880966D01*
X151554501Y-73774312D01*
X151554501Y-73625688D01*
X151554501Y-73620578D01*
X151554500Y-73620552D01*
X151554500Y-70525687D01*
X151554499Y-70525683D01*
X151525506Y-70379927D01*
X151525505Y-70379920D01*
X151468629Y-70242610D01*
X151457847Y-70226474D01*
X151386060Y-70119035D01*
X151386054Y-70119028D01*
X151280971Y-70013945D01*
X151280964Y-70013939D01*
X151157391Y-69931371D01*
X151020080Y-69874495D01*
X151020072Y-69874493D01*
X150874316Y-69845500D01*
X150874312Y-69845500D01*
X150725688Y-69845500D01*
X150725683Y-69845500D01*
X150579927Y-69874493D01*
X150579919Y-69874495D01*
X150442608Y-69931371D01*
X150319035Y-70013939D01*
X150319028Y-70013945D01*
X150213945Y-70119028D01*
X150213939Y-70119035D01*
X150131371Y-70242608D01*
X150074495Y-70379919D01*
X150074493Y-70379927D01*
X150045500Y-70525683D01*
X150045500Y-73336112D01*
X150025815Y-73403151D01*
X150009181Y-73423793D01*
X148213943Y-75219030D01*
X148213942Y-75219031D01*
X148131369Y-75342612D01*
X148119174Y-75372056D01*
X148083828Y-75457390D01*
X148083827Y-75457393D01*
X148074495Y-75479918D01*
X148074493Y-75479925D01*
X148045499Y-75625685D01*
X148045499Y-75780425D01*
X148045500Y-75780446D01*
X148045500Y-84036113D01*
X148025815Y-84103152D01*
X148009181Y-84123794D01*
X147663794Y-84469181D01*
X147602471Y-84502666D01*
X147576113Y-84505500D01*
X147329856Y-84505500D01*
X147262817Y-84485815D01*
X147246318Y-84473137D01*
X147138462Y-84374814D01*
X147138460Y-84374812D01*
X146964430Y-84267057D01*
X146964424Y-84267054D01*
X146813993Y-84208777D01*
X146773556Y-84193112D01*
X146572347Y-84155500D01*
X146367653Y-84155500D01*
X146166444Y-84193112D01*
X146166441Y-84193112D01*
X146166441Y-84193113D01*
X145975575Y-84267054D01*
X145975569Y-84267057D01*
X145801539Y-84374812D01*
X145801537Y-84374814D01*
X145650269Y-84512712D01*
X145526912Y-84676064D01*
X145435673Y-84859295D01*
X145379654Y-85056183D01*
X145360768Y-85259999D01*
X145360768Y-85260000D01*
X145379654Y-85463816D01*
X145379654Y-85463818D01*
X145379655Y-85463821D01*
X145430212Y-85641510D01*
X145435673Y-85660704D01*
X145526912Y-85843935D01*
X145650269Y-86007287D01*
X145801537Y-86145185D01*
X145801539Y-86145187D01*
X145975569Y-86252942D01*
X145975571Y-86252943D01*
X145975573Y-86252944D01*
X146045412Y-86280000D01*
X146051737Y-86282450D01*
X146107139Y-86325023D01*
X146130730Y-86390789D01*
X146115019Y-86458870D01*
X146064996Y-86507649D01*
X146039040Y-86517851D01*
X146006519Y-86526565D01*
X146006507Y-86526570D01*
X145792422Y-86626399D01*
X145792420Y-86626400D01*
X145598926Y-86761886D01*
X145598920Y-86761891D01*
X145431891Y-86928920D01*
X145431886Y-86928926D01*
X145296400Y-87122420D01*
X145296399Y-87122422D01*
X145196570Y-87336507D01*
X145196567Y-87336513D01*
X145139364Y-87549999D01*
X145139364Y-87550000D01*
X146036988Y-87550000D01*
X146004075Y-87607007D01*
X145970000Y-87734174D01*
X145970000Y-87865826D01*
X146004075Y-87992993D01*
X146036988Y-88050000D01*
X145139364Y-88050000D01*
X145196567Y-88263486D01*
X145196570Y-88263492D01*
X145296399Y-88477578D01*
X145431894Y-88671082D01*
X145598917Y-88838105D01*
X145785031Y-88968425D01*
X145828656Y-89023003D01*
X145835848Y-89092501D01*
X145804326Y-89154856D01*
X145785031Y-89171575D01*
X145598922Y-89301890D01*
X145598920Y-89301891D01*
X145431891Y-89468920D01*
X145431886Y-89468926D01*
X145296400Y-89662420D01*
X145296399Y-89662422D01*
X145196570Y-89876507D01*
X145196567Y-89876513D01*
X145139364Y-90089999D01*
X145139364Y-90090000D01*
X146036988Y-90090000D01*
X146004075Y-90147007D01*
X145970000Y-90274174D01*
X145970000Y-90405826D01*
X146004075Y-90532993D01*
X146036988Y-90590000D01*
X145139364Y-90590000D01*
X143600500Y-90590000D01*
X143600500Y-82720000D01*
X145360768Y-82720000D01*
X145379654Y-82923816D01*
X145379654Y-82923818D01*
X145379655Y-82923821D01*
X145404011Y-83009423D01*
X145435673Y-83120704D01*
X145526912Y-83303935D01*
X145650269Y-83467287D01*
X145801537Y-83605185D01*
X145801539Y-83605187D01*
X145975569Y-83712942D01*
X145975575Y-83712945D01*
X146016010Y-83728609D01*
X146166444Y-83786888D01*
X146367653Y-83824500D01*
X146367656Y-83824500D01*
X146572344Y-83824500D01*
X146572347Y-83824500D01*
X146773556Y-83786888D01*
X146964427Y-83712944D01*
X147138462Y-83605186D01*
X147286362Y-83470357D01*
X147289730Y-83467287D01*
X147309197Y-83441509D01*
X147413088Y-83303935D01*
X147504328Y-83120701D01*
X147560345Y-82923821D01*
X147579232Y-82720000D01*
X147560345Y-82516179D01*
X147504328Y-82319299D01*
X147413088Y-82136065D01*
X147289732Y-81972715D01*
X147289730Y-81972712D01*
X147138462Y-81834814D01*
X147138460Y-81834812D01*
X146964430Y-81727057D01*
X146964424Y-81727054D01*
X146813993Y-81668777D01*
X146773556Y-81653112D01*
X146572347Y-81615500D01*
X146367653Y-81615500D01*
X146166444Y-81653112D01*
X146166441Y-81653112D01*
X146166441Y-81653113D01*
X145975575Y-81727054D01*
X145975569Y-81727057D01*
X145801539Y-81834812D01*
X145801537Y-81834814D01*
X145650269Y-81972712D01*
X145526912Y-82136064D01*
X145435673Y-82319295D01*
X145379654Y-82516183D01*
X145360768Y-82719999D01*
X145360768Y-82720000D01*
X143600500Y-82720000D01*
X143600500Y-80180000D01*
X145360768Y-80180000D01*
X145379654Y-80383816D01*
X145435673Y-80580704D01*
X145526912Y-80763935D01*
X145650269Y-80927287D01*
X145801537Y-81065185D01*
X145801539Y-81065187D01*
X145975569Y-81172942D01*
X145975575Y-81172945D01*
X146016010Y-81188609D01*
X146166444Y-81246888D01*
X146367653Y-81284500D01*
X146367656Y-81284500D01*
X146572344Y-81284500D01*
X146572347Y-81284500D01*
X146773556Y-81246888D01*
X146964427Y-81172944D01*
X147138462Y-81065186D01*
X147289732Y-80927285D01*
X147413088Y-80763935D01*
X147504328Y-80580701D01*
X147560345Y-80383821D01*
X147579232Y-80180000D01*
X147560345Y-79976179D01*
X147504328Y-79779299D01*
X147413088Y-79596065D01*
X147289732Y-79432715D01*
X147289730Y-79432712D01*
X147138462Y-79294814D01*
X147138460Y-79294812D01*
X146964430Y-79187057D01*
X146964424Y-79187054D01*
X146813993Y-79128777D01*
X146773556Y-79113112D01*
X146572347Y-79075500D01*
X146367653Y-79075500D01*
X146166444Y-79113112D01*
X146166441Y-79113112D01*
X146166441Y-79113113D01*
X145975575Y-79187054D01*
X145975569Y-79187057D01*
X145801539Y-79294812D01*
X145801537Y-79294814D01*
X145650269Y-79432712D01*
X145526912Y-79596064D01*
X145435673Y-79779295D01*
X145379654Y-79976183D01*
X145360768Y-80179999D01*
X145360768Y-80180000D01*
X143600500Y-80180000D01*
X143600500Y-77640000D01*
X145360768Y-77640000D01*
X145379654Y-77843816D01*
X145435673Y-78040704D01*
X145526912Y-78223935D01*
X145650269Y-78387287D01*
X145801537Y-78525185D01*
X145801539Y-78525187D01*
X145975569Y-78632942D01*
X145975575Y-78632945D01*
X146016010Y-78648609D01*
X146166444Y-78706888D01*
X146367653Y-78744500D01*
X146367656Y-78744500D01*
X146572344Y-78744500D01*
X146572347Y-78744500D01*
X146773556Y-78706888D01*
X146964427Y-78632944D01*
X147138462Y-78525186D01*
X147289732Y-78387285D01*
X147413088Y-78223935D01*
X147504328Y-78040701D01*
X147560345Y-77843821D01*
X147579232Y-77640000D01*
X147560345Y-77436179D01*
X147504328Y-77239299D01*
X147413088Y-77056065D01*
X147289732Y-76892715D01*
X147289730Y-76892712D01*
X147138462Y-76754814D01*
X147138460Y-76754812D01*
X146964430Y-76647057D01*
X146964424Y-76647054D01*
X146813993Y-76588777D01*
X146773556Y-76573112D01*
X146572347Y-76535500D01*
X146367653Y-76535500D01*
X146166444Y-76573112D01*
X146166441Y-76573112D01*
X146166441Y-76573113D01*
X145975575Y-76647054D01*
X145975569Y-76647057D01*
X145801539Y-76754812D01*
X145801537Y-76754814D01*
X145650269Y-76892712D01*
X145526912Y-77056064D01*
X145435673Y-77239295D01*
X145379654Y-77436183D01*
X145360768Y-77639999D01*
X145360768Y-77640000D01*
X143600500Y-77640000D01*
X143600500Y-75975063D01*
X145365500Y-75975063D01*
X145380266Y-76049301D01*
X145436515Y-76133484D01*
X145470234Y-76156014D01*
X145520699Y-76189734D01*
X145520702Y-76189734D01*
X145520703Y-76189735D01*
X145545666Y-76194700D01*
X145594933Y-76204500D01*
X147345066Y-76204499D01*
X147419301Y-76189734D01*
X147503484Y-76133484D01*
X147559734Y-76049301D01*
X147574500Y-75975067D01*
X147574499Y-74224934D01*
X147559734Y-74150699D01*
X147512494Y-74080000D01*
X147503484Y-74066515D01*
X147453019Y-74032796D01*
X147419301Y-74010266D01*
X147419299Y-74010265D01*
X147419296Y-74010264D01*
X147345069Y-73995500D01*
X145594936Y-73995500D01*
X145520698Y-74010266D01*
X145436515Y-74066515D01*
X145380266Y-74150699D01*
X145380264Y-74150703D01*
X145365500Y-74224928D01*
X145365500Y-75975063D01*
X143600500Y-75975063D01*
X143600500Y-68500000D01*
X193620768Y-68500000D01*
X193639654Y-68703816D01*
X193695673Y-68900704D01*
X193786912Y-69083935D01*
X193910269Y-69247287D01*
X194061537Y-69385185D01*
X194061539Y-69385187D01*
X194235569Y-69492942D01*
X194235575Y-69492945D01*
X194276010Y-69508609D01*
X194426444Y-69566888D01*
X194627653Y-69604500D01*
X194627656Y-69604500D01*
X194832344Y-69604500D01*
X194832347Y-69604500D01*
X195033556Y-69566888D01*
X195224427Y-69492944D01*
X195398462Y-69385186D01*
X195549732Y-69247285D01*
X195673088Y-69083935D01*
X195764328Y-68900701D01*
X195820345Y-68703821D01*
X195839232Y-68500000D01*
X195820345Y-68296179D01*
X195764328Y-68099299D01*
X195673088Y-67916065D01*
X195549732Y-67752715D01*
X195549730Y-67752712D01*
X195398462Y-67614814D01*
X195398460Y-67614812D01*
X195224430Y-67507057D01*
X195224424Y-67507054D01*
X195073993Y-67448777D01*
X195033556Y-67433112D01*
X194832347Y-67395500D01*
X194627653Y-67395500D01*
X194426444Y-67433112D01*
X194426441Y-67433112D01*
X194426441Y-67433113D01*
X194235575Y-67507054D01*
X194235569Y-67507057D01*
X194061539Y-67614812D01*
X194061537Y-67614814D01*
X193910269Y-67752712D01*
X193786912Y-67916064D01*
X193695673Y-68099295D01*
X193639654Y-68296183D01*
X193620768Y-68499999D01*
X193620768Y-68500000D01*
X143600500Y-68500000D01*
X143600500Y-61251288D01*
X144619500Y-61251288D01*
X144651161Y-61491785D01*
X144713947Y-61726104D01*
X144806773Y-61950205D01*
X144806776Y-61950212D01*
X144928064Y-62160289D01*
X144928066Y-62160292D01*
X144928067Y-62160293D01*
X145075733Y-62352736D01*
X145075739Y-62352743D01*
X145247256Y-62524260D01*
X145247262Y-62524265D01*
X145439711Y-62671936D01*
X145649788Y-62793224D01*
X145873900Y-62886054D01*
X146108211Y-62948838D01*
X146288586Y-62972584D01*
X146348711Y-62980500D01*
X146348712Y-62980500D01*
X146591289Y-62980500D01*
X146639388Y-62974167D01*
X146831789Y-62948838D01*
X147066100Y-62886054D01*
X147290212Y-62793224D01*
X147500289Y-62671936D01*
X147692738Y-62524265D01*
X147864265Y-62352738D01*
X148011936Y-62160289D01*
X148133224Y-61950212D01*
X148226054Y-61726100D01*
X148288838Y-61491789D01*
X148320500Y-61251288D01*
X148320500Y-61008712D01*
X148288838Y-60768211D01*
X148226054Y-60533900D01*
X148133224Y-60309788D01*
X148011936Y-60099711D01*
X147864265Y-59907262D01*
X147864260Y-59907256D01*
X147692743Y-59735739D01*
X147692736Y-59735733D01*
X147500293Y-59588067D01*
X147500292Y-59588066D01*
X147500289Y-59588064D01*
X147290212Y-59466776D01*
X147290205Y-59466773D01*
X147066104Y-59373947D01*
X146831785Y-59311161D01*
X146591289Y-59279500D01*
X146591288Y-59279500D01*
X146348712Y-59279500D01*
X146348711Y-59279500D01*
X146108214Y-59311161D01*
X145873895Y-59373947D01*
X145649794Y-59466773D01*
X145649785Y-59466777D01*
X145439706Y-59588067D01*
X145247263Y-59735733D01*
X145247256Y-59735739D01*
X145075739Y-59907256D01*
X145075733Y-59907263D01*
X144928067Y-60099706D01*
X144806777Y-60309785D01*
X144806773Y-60309794D01*
X144713947Y-60533895D01*
X144651161Y-60768214D01*
X144619500Y-61008711D01*
X144619500Y-61251288D01*
X143600500Y-61251288D01*
X143600500Y-58724500D01*
X143620185Y-58657461D01*
X143672989Y-58611706D01*
X143724500Y-58600500D01*
X155841324Y-58600500D01*
X155908363Y-58620185D01*
G37*
%TD.AperFunction*%
%TD*%
M02*
