%TF.GenerationSoftware,KiCad,Pcbnew,8.0.1*%
%TF.CreationDate,2024-04-15T20:54:24+02:00*%
%TF.ProjectId,Audio_shield,41756469-6f5f-4736-9869-656c642e6b69,rev?*%
%TF.SameCoordinates,Original*%
%TF.FileFunction,Soldermask,Bot*%
%TF.FilePolarity,Negative*%
%FSLAX46Y46*%
G04 Gerber Fmt 4.6, Leading zero omitted, Abs format (unit mm)*
G04 Created by KiCad (PCBNEW 8.0.1) date 2024-04-15 20:54:24*
%MOMM*%
%LPD*%
G01*
G04 APERTURE LIST*
%ADD10C,3.200000*%
%ADD11C,2.000000*%
%ADD12R,1.700000X1.700000*%
%ADD13O,1.700000X1.700000*%
%ADD14R,1.980000X3.960000*%
%ADD15O,1.980000X3.960000*%
%ADD16C,2.950000*%
G04 APERTURE END LIST*
D10*
%TO.C,REF\u002A\u002A*%
X179490000Y-113200000D03*
%TD*%
D11*
%TO.C,SW2*%
X170850000Y-97250000D03*
X170850000Y-103750000D03*
X166350000Y-97250000D03*
X166350000Y-103750000D03*
%TD*%
D10*
%TO.C,REF\u002A\u002A*%
X194730000Y-62400000D03*
%TD*%
D11*
%TO.C,SW1*%
X170850000Y-107050000D03*
X170850000Y-113550000D03*
X166350000Y-107050000D03*
X166350000Y-113550000D03*
%TD*%
%TO.C,SW4*%
X170850000Y-77600000D03*
X170850000Y-84100000D03*
X166350000Y-77600000D03*
X166350000Y-84100000D03*
%TD*%
%TO.C,SW5*%
X157950000Y-107050000D03*
X157950000Y-113550000D03*
X153450000Y-107050000D03*
X153450000Y-113550000D03*
%TD*%
D12*
%TO.C,J2*%
X194730000Y-110660000D03*
D13*
X194730000Y-108120000D03*
X194730000Y-105580000D03*
X194730000Y-103040000D03*
X194730000Y-100500000D03*
X194730000Y-97960000D03*
X194730000Y-95420000D03*
X194730000Y-92880000D03*
%TD*%
D11*
%TO.C,SW7*%
X157950000Y-87400000D03*
X157950000Y-93900000D03*
X153450000Y-87400000D03*
X153450000Y-93900000D03*
%TD*%
%TO.C,SW6*%
X157950000Y-97250000D03*
X157950000Y-103750000D03*
X153450000Y-97250000D03*
X153450000Y-103750000D03*
%TD*%
%TO.C,SW3*%
X170850000Y-87400000D03*
X170850000Y-93900000D03*
X166350000Y-87400000D03*
X166350000Y-93900000D03*
%TD*%
D12*
%TO.C,J1*%
X194730000Y-88820000D03*
D13*
X194730000Y-86280000D03*
X194730000Y-83740000D03*
X194730000Y-81200000D03*
X194730000Y-78660000D03*
X194730000Y-76120000D03*
X194730000Y-73580000D03*
X194730000Y-71040000D03*
X194730000Y-68500000D03*
X194730000Y-65960000D03*
%TD*%
D11*
%TO.C,SW8*%
X157950000Y-77600000D03*
X157950000Y-84100000D03*
X153450000Y-77600000D03*
X153450000Y-84100000D03*
%TD*%
D12*
%TO.C,J3*%
X146470000Y-110660000D03*
D13*
X146470000Y-108120000D03*
X146470000Y-105580000D03*
X146470000Y-103040000D03*
X146470000Y-100500000D03*
X146470000Y-97960000D03*
%TD*%
D12*
%TO.C,J4*%
X146470000Y-75100000D03*
D13*
X146470000Y-77640000D03*
X146470000Y-80180000D03*
X146470000Y-82720000D03*
X146470000Y-85260000D03*
X146470000Y-87800000D03*
X146470000Y-90340000D03*
X146470000Y-92880000D03*
%TD*%
D10*
%TO.C,REF\u002A\u002A*%
X146470000Y-61130000D03*
%TD*%
D14*
%TO.C,LS1*%
X184385000Y-106750000D03*
D15*
X189385000Y-106750000D03*
%TD*%
D16*
%TO.C,J6*%
X186949797Y-72700000D03*
X181749797Y-83700000D03*
X186949797Y-85900000D03*
%TD*%
M02*
