M48
; DRILL file {KiCad 8.0.1} date 2024-04-15T20:54:34+0200
; FORMAT={-:-/ absolute / inch / decimal}
; #@! TF.CreationDate,2024-04-15T20:54:34+02:00
; #@! TF.GenerationSoftware,Kicad,Pcbnew,8.0.1
; #@! TF.FileFunction,Plated,1,2,PTH
FMAT,2
INCH
; #@! TA.AperFunction,Plated,PTH,ViaDrill
T1C0.0118
; #@! TA.AperFunction,Plated,PTH,ComponentDrill
T2C0.0394
; #@! TA.AperFunction,Plated,PTH,ComponentDrill
T3C0.0433
; #@! TA.AperFunction,Plated,PTH,ComponentDrill
T4C0.0520
; #@! TA.AperFunction,Plated,PTH,ComponentDrill
T5C0.1004
%
G90
G05
T1
X5.8445Y-3.5531
X5.9154Y-3.5531
X5.937Y-2.7795
X5.937Y-2.8071
X5.937Y-2.8346
X5.937Y-2.8622
X5.937Y-2.8898
X6.3858Y-3.4685
X6.4252Y-3.5394
X6.4843Y-3.6713
X6.4882Y-3.7618
X6.6535Y-3.7224
X6.6575Y-2.8661
X6.6575Y-2.8937
X6.7913Y-3.7933
X6.811Y-3.813
X6.8917Y-2.8543
X6.998Y-3.9075
X6.998Y-4.0472
X7.0394Y-3.6122
X7.0433Y-3.7224
X7.3602Y-3.4567
X7.3602Y-3.4823
X7.3602Y-3.5079
X7.3602Y-3.8898
X7.3602Y-3.9154
X7.3602Y-3.9409
X7.3602Y-3.9665
X7.3602Y-3.9921
X7.4016Y-3.6299
X7.4646Y-3.6614
T2
X5.7665Y-2.9567
X5.7665Y-3.0567
X5.7665Y-3.1567
X5.7665Y-3.2567
X5.7665Y-3.3567
X5.7665Y-3.4567
X5.7665Y-3.5567
X5.7665Y-3.6567
X5.7665Y-3.8567
X5.7665Y-3.9567
X5.7665Y-4.0567
X5.7665Y-4.1567
X5.7665Y-4.2567
X5.7665Y-4.3567
X7.6665Y-2.5969
X7.6665Y-2.6969
X7.6665Y-2.7969
X7.6665Y-2.8969
X7.6665Y-2.9969
X7.6665Y-3.0969
X7.6665Y-3.1969
X7.6665Y-3.2969
X7.6665Y-3.3969
X7.6665Y-3.4969
X7.6665Y-3.6567
X7.6665Y-3.7567
X7.6665Y-3.8567
X7.6665Y-3.9567
X7.6665Y-4.0567
X7.6665Y-4.1567
X7.6665Y-4.2567
X7.6665Y-4.3567
T3
X6.0413Y-3.0551
X6.0413Y-3.311
X6.0413Y-3.4409
X6.0413Y-3.6969
X6.0413Y-3.8287
X6.0413Y-4.0846
X6.0413Y-4.2146
X6.0413Y-4.4705
X6.2185Y-3.0551
X6.2185Y-3.311
X6.2185Y-3.4409
X6.2185Y-3.6969
X6.2185Y-3.8287
X6.2185Y-4.0846
X6.2185Y-4.2146
X6.2185Y-4.4705
X6.5492Y-3.0551
X6.5492Y-3.311
X6.5492Y-3.4409
X6.5492Y-3.6969
X6.5492Y-3.8287
X6.5492Y-4.0846
X6.5492Y-4.2146
X6.5492Y-4.4705
X6.7264Y-3.0551
X6.7264Y-3.311
X6.7264Y-3.4409
X6.7264Y-3.6969
X6.7264Y-3.8287
X6.7264Y-4.0846
X6.7264Y-4.2146
X6.7264Y-4.4705
T4
X7.2593Y-4.2028
X7.4561Y-4.2028
T5
X7.1555Y-3.2953
X7.3602Y-2.8622
X7.3602Y-3.3819
M30
