%TF.GenerationSoftware,KiCad,Pcbnew,8.0.1*%
%TF.CreationDate,2024-04-15T20:54:24+02:00*%
%TF.ProjectId,Audio_shield,41756469-6f5f-4736-9869-656c642e6b69,rev?*%
%TF.SameCoordinates,Original*%
%TF.FileFunction,Soldermask,Top*%
%TF.FilePolarity,Negative*%
%FSLAX46Y46*%
G04 Gerber Fmt 4.6, Leading zero omitted, Abs format (unit mm)*
G04 Created by KiCad (PCBNEW 8.0.1) date 2024-04-15 20:54:24*
%MOMM*%
%LPD*%
G01*
G04 APERTURE LIST*
G04 Aperture macros list*
%AMRoundRect*
0 Rectangle with rounded corners*
0 $1 Rounding radius*
0 $2 $3 $4 $5 $6 $7 $8 $9 X,Y pos of 4 corners*
0 Add a 4 corners polygon primitive as box body*
4,1,4,$2,$3,$4,$5,$6,$7,$8,$9,$2,$3,0*
0 Add four circle primitives for the rounded corners*
1,1,$1+$1,$2,$3*
1,1,$1+$1,$4,$5*
1,1,$1+$1,$6,$7*
1,1,$1+$1,$8,$9*
0 Add four rect primitives between the rounded corners*
20,1,$1+$1,$2,$3,$4,$5,0*
20,1,$1+$1,$4,$5,$6,$7,0*
20,1,$1+$1,$6,$7,$8,$9,0*
20,1,$1+$1,$8,$9,$2,$3,0*%
G04 Aperture macros list end*
%ADD10C,3.200000*%
%ADD11C,2.000000*%
%ADD12RoundRect,0.250000X0.450000X-0.350000X0.450000X0.350000X-0.450000X0.350000X-0.450000X-0.350000X0*%
%ADD13RoundRect,0.250000X0.475000X-0.337500X0.475000X0.337500X-0.475000X0.337500X-0.475000X-0.337500X0*%
%ADD14RoundRect,0.250000X-0.450000X0.325000X-0.450000X-0.325000X0.450000X-0.325000X0.450000X0.325000X0*%
%ADD15RoundRect,0.250000X0.350000X0.450000X-0.350000X0.450000X-0.350000X-0.450000X0.350000X-0.450000X0*%
%ADD16RoundRect,0.250000X-0.475000X0.337500X-0.475000X-0.337500X0.475000X-0.337500X0.475000X0.337500X0*%
%ADD17RoundRect,0.250000X-0.350000X-0.450000X0.350000X-0.450000X0.350000X0.450000X-0.350000X0.450000X0*%
%ADD18RoundRect,0.250000X-0.450000X0.350000X-0.450000X-0.350000X0.450000X-0.350000X0.450000X0.350000X0*%
%ADD19R,1.700000X1.700000*%
%ADD20O,1.700000X1.700000*%
%ADD21RoundRect,0.250000X0.325000X0.450000X-0.325000X0.450000X-0.325000X-0.450000X0.325000X-0.450000X0*%
%ADD22RoundRect,0.250000X0.337500X0.475000X-0.337500X0.475000X-0.337500X-0.475000X0.337500X-0.475000X0*%
%ADD23RoundRect,0.250000X1.500000X1.000000X-1.500000X1.000000X-1.500000X-1.000000X1.500000X-1.000000X0*%
%ADD24RoundRect,0.375000X0.625000X0.375000X-0.625000X0.375000X-0.625000X-0.375000X0.625000X-0.375000X0*%
%ADD25RoundRect,0.500000X0.500000X1.400000X-0.500000X1.400000X-0.500000X-1.400000X0.500000X-1.400000X0*%
%ADD26R,1.980000X3.960000*%
%ADD27O,1.980000X3.960000*%
%ADD28RoundRect,0.150000X0.825000X0.150000X-0.825000X0.150000X-0.825000X-0.150000X0.825000X-0.150000X0*%
%ADD29R,2.290000X3.000000*%
%ADD30C,2.950000*%
G04 APERTURE END LIST*
D10*
%TO.C,REF\u002A\u002A*%
X179490000Y-113200000D03*
%TD*%
D11*
%TO.C,SW2*%
X170850000Y-97250000D03*
X170850000Y-103750000D03*
X166350000Y-97250000D03*
X166350000Y-103750000D03*
%TD*%
D12*
%TO.C,R13*%
X150800000Y-96400000D03*
X150800000Y-94400000D03*
%TD*%
D13*
%TO.C,C1*%
X189600000Y-91537500D03*
X189600000Y-89462500D03*
%TD*%
D14*
%TO.C,D2*%
X173700000Y-109297500D03*
X173700000Y-111347500D03*
%TD*%
%TO.C,D4*%
X173700000Y-89647500D03*
X173700000Y-91697500D03*
%TD*%
D15*
%TO.C,R5*%
X173500000Y-72500000D03*
X171500000Y-72500000D03*
%TD*%
D10*
%TO.C,REF\u002A\u002A*%
X194730000Y-62400000D03*
%TD*%
D12*
%TO.C,R9*%
X163700000Y-96600000D03*
X163700000Y-94600000D03*
%TD*%
D11*
%TO.C,SW1*%
X170850000Y-107050000D03*
X170850000Y-113550000D03*
X166350000Y-107050000D03*
X166350000Y-113550000D03*
%TD*%
D12*
%TO.C,R12*%
X150800000Y-106300000D03*
X150800000Y-104300000D03*
%TD*%
D11*
%TO.C,SW4*%
X170850000Y-77600000D03*
X170850000Y-84100000D03*
X166350000Y-77600000D03*
X166350000Y-84100000D03*
%TD*%
D16*
%TO.C,C3*%
X176300000Y-89562500D03*
X176300000Y-91637500D03*
%TD*%
D12*
%TO.C,R2*%
X191800000Y-91500000D03*
X191800000Y-89500000D03*
%TD*%
D17*
%TO.C,R11*%
X148300000Y-114300000D03*
X150300000Y-114300000D03*
%TD*%
D14*
%TO.C,D7*%
X160700000Y-99297500D03*
X160700000Y-101347500D03*
%TD*%
D11*
%TO.C,SW5*%
X157950000Y-107050000D03*
X157950000Y-113550000D03*
X153450000Y-107050000D03*
X153450000Y-113550000D03*
%TD*%
D14*
%TO.C,D6*%
X160700000Y-109297500D03*
X160700000Y-111347500D03*
%TD*%
D18*
%TO.C,R3*%
X184300000Y-97100000D03*
X184300000Y-99100000D03*
%TD*%
D19*
%TO.C,J2*%
X194730000Y-110660000D03*
D20*
X194730000Y-108120000D03*
X194730000Y-105580000D03*
X194730000Y-103040000D03*
X194730000Y-100500000D03*
X194730000Y-97960000D03*
X194730000Y-95420000D03*
X194730000Y-92880000D03*
%TD*%
D11*
%TO.C,SW7*%
X157950000Y-87400000D03*
X157950000Y-93900000D03*
X153450000Y-87400000D03*
X153450000Y-93900000D03*
%TD*%
D18*
%TO.C,R7*%
X163700000Y-112500000D03*
X163700000Y-114500000D03*
%TD*%
D12*
%TO.C,R14*%
X150800000Y-86600000D03*
X150800000Y-84600000D03*
%TD*%
D11*
%TO.C,SW6*%
X157950000Y-97250000D03*
X157950000Y-103750000D03*
X153450000Y-97250000D03*
X153450000Y-103750000D03*
%TD*%
%TO.C,SW3*%
X170850000Y-87400000D03*
X170850000Y-93900000D03*
X166350000Y-87400000D03*
X166350000Y-93900000D03*
%TD*%
D12*
%TO.C,R4*%
X175700000Y-96050000D03*
X175700000Y-94050000D03*
%TD*%
D19*
%TO.C,J1*%
X194730000Y-88820000D03*
D20*
X194730000Y-86280000D03*
X194730000Y-83740000D03*
X194730000Y-81200000D03*
X194730000Y-78660000D03*
X194730000Y-76120000D03*
X194730000Y-73580000D03*
X194730000Y-71040000D03*
X194730000Y-68500000D03*
X194730000Y-65960000D03*
%TD*%
D21*
%TO.C,D1*%
X177725000Y-69250000D03*
X175675000Y-69250000D03*
%TD*%
D14*
%TO.C,D5*%
X173700000Y-79847500D03*
X173700000Y-81897500D03*
%TD*%
D11*
%TO.C,SW8*%
X157950000Y-77600000D03*
X157950000Y-84100000D03*
X153450000Y-77600000D03*
X153450000Y-84100000D03*
%TD*%
D15*
%TO.C,R1*%
X191700000Y-95400000D03*
X189700000Y-95400000D03*
%TD*%
D13*
%TO.C,C4*%
X180750000Y-99087500D03*
X180750000Y-97012500D03*
%TD*%
D14*
%TO.C,D8*%
X160700000Y-89447500D03*
X160700000Y-91497500D03*
%TD*%
D22*
%TO.C,C2*%
X191737500Y-98100000D03*
X189662500Y-98100000D03*
%TD*%
D19*
%TO.C,J3*%
X146470000Y-110660000D03*
D20*
X146470000Y-108120000D03*
X146470000Y-105580000D03*
X146470000Y-103040000D03*
X146470000Y-100500000D03*
X146470000Y-97960000D03*
%TD*%
D17*
%TO.C,R6*%
X171600000Y-69250000D03*
X173600000Y-69250000D03*
%TD*%
D19*
%TO.C,J4*%
X146470000Y-75100000D03*
D20*
X146470000Y-77640000D03*
X146470000Y-80180000D03*
X146470000Y-82720000D03*
X146470000Y-85260000D03*
X146470000Y-87800000D03*
X146470000Y-90340000D03*
X146470000Y-92880000D03*
%TD*%
D12*
%TO.C,R8*%
X163700000Y-106500000D03*
X163700000Y-104500000D03*
%TD*%
D14*
%TO.C,D9*%
X160700000Y-79647500D03*
X160700000Y-81697500D03*
%TD*%
D23*
%TO.C,C5*%
X154950000Y-67600000D03*
X148450000Y-67600000D03*
%TD*%
D24*
%TO.C,Q1*%
X166350000Y-72500000D03*
X166350000Y-70200000D03*
D25*
X160050000Y-70200000D03*
D24*
X166350000Y-67900000D03*
%TD*%
D10*
%TO.C,REF\u002A\u002A*%
X146470000Y-61130000D03*
%TD*%
D26*
%TO.C,LS1*%
X184385000Y-106750000D03*
D27*
X189385000Y-106750000D03*
%TD*%
D28*
%TO.C,U1*%
X185245000Y-94555000D03*
X185245000Y-93285000D03*
X185245000Y-92015000D03*
X185245000Y-90745000D03*
X180295000Y-90745000D03*
X180295000Y-92015000D03*
X180295000Y-93285000D03*
X180295000Y-94555000D03*
D29*
X182770000Y-92650000D03*
%TD*%
D14*
%TO.C,D3*%
X173700000Y-99497500D03*
X173700000Y-101547500D03*
%TD*%
D30*
%TO.C,J6*%
X186949797Y-72700000D03*
X181749797Y-83700000D03*
X186949797Y-85900000D03*
%TD*%
D12*
%TO.C,R10*%
X163700000Y-86800000D03*
X163700000Y-84800000D03*
%TD*%
M02*
